<svg xmlns="http://www.w3.org/2000/svg" width="137.275" height="23.76" xmlns:v="https://vecta.io/nano"><linearGradient id="A" gradientUnits="userSpaceOnUse" x1="28.99" y1="12.736" x2="99.54" y2="3.565"><stop offset="0" stop-color="#283339"/><stop offset="1" stop-color="#1d8dcc"/></linearGradient><path fill="url(#A)" d="M33.005 16.372c-.626 0-1.204-.116-1.734-.353a4.3 4.3 0 0 1-1.384-.963 4.36 4.36 0 0 1-.914-1.449c-.218-.561-.327-1.165-.327-1.815 0-.659.109-1.259.327-1.803s.522-1.007.914-1.39.854-.68 1.384-.889 1.108-.314 1.734-.314h4.864v1.567h-4.864a2.87 2.87 0 0 0-1.118.216 2.67 2.67 0 0 0-.883.6 2.75 2.75 0 0 0-.58.914c-.14.354-.21.746-.21 1.173a3.22 3.22 0 0 0 .21 1.173 2.79 2.79 0 0 0 .58.932 2.65 2.65 0 0 0 .883.611c.343.148.714.223 1.118.223h3.839v-2.334h-4.049v-1.319h5.63v5.222l-5.42-.002h0z"/><linearGradient id="B" gradientUnits="userSpaceOnUse" x1="29.131" y1="13.802" x2="99.678" y2="4.631"><stop offset="0" stop-color="#283339"/><stop offset="1" stop-color="#1d8dcc"/></linearGradient><path fill="url(#B)" d="M39.87 16.372V7.396h8.013v1.567h-6.458v5.841h6.471v1.566l-8.026.002h0zm2.703-3.901v-1.319h4.976v1.319h-4.976 0z"/><linearGradient id="C" gradientUnits="userSpaceOnUse" x1="29.293" y1="15.078" x2="99.854" y2="5.905"><stop offset="0" stop-color="#283339"/><stop offset="1" stop-color="#1d8dcc"/></linearGradient><path fill="url(#C)" d="M50.696 9.805v6.567h-1.493V8.225c0-.289.071-.518.216-.687a.73.73 0 0 1 .586-.253.76.76 0 0 1 .333.074 1.26 1.26 0 0 1 .333.246l6.334 6.285V7.322h1.494v8.224c0 .296-.072.526-.217.691s-.331.247-.563.247c-.255 0-.494-.112-.716-.334l-6.307-6.345z"/><linearGradient id="D" gradientUnits="userSpaceOnUse" x1="29.471" y1="16.378" x2="100.012" y2="7.208"><stop offset="0" stop-color="#283339"/><stop offset="1" stop-color="#1d8dcc"/></linearGradient><path fill="url(#D)" d="M60.018 16.372V7.396h8.014v1.567h-6.457v5.841h6.47v1.566l-8.027.002h0zm2.704-3.901v-1.319H67.7v1.319h-4.978 0z"/><linearGradient id="E" gradientUnits="userSpaceOnUse" x1="29.649" y1="17.77" x2="100.197" y2="8.599"><stop offset="0" stop-color="#283339"/><stop offset="1" stop-color="#1d8dcc"/></linearGradient><path fill="url(#E)" d="M78.416 16.372l-3.767-3.667-3.729 3.667h-2.038l4.816-4.667-4.47-4.309h2.159l3.421 3.32 3.37-3.32h2.037l-4.469 4.309 4.864 4.667h-2.194z"/><linearGradient id="F" gradientUnits="userSpaceOnUse" x1="29.895" y1="19.708" x2="100.453" y2="10.536"><stop offset="0" stop-color="#283339"/><stop offset="1" stop-color="#1d8dcc"/></linearGradient><path fill="url(#F)" d="M85.368 16.372v-1.567h6.729c.42 0 .742-.106.969-.32s.341-.497.341-.853c0-.387-.113-.677-.341-.87s-.55-.291-.969-.291h-4.125c-.42 0-.8-.063-1.143-.19s-.629-.304-.864-.531-.415-.495-.543-.808-.19-.655-.19-1.025c0-.361.06-.697.18-1.006s.296-.574.529-.796a2.54 2.54 0 0 1 .871-.525 3.43 3.43 0 0 1 1.187-.19h6.444v1.568h-6.444c-.363 0-.642.096-.841.29s-.297.464-.297.81.103.613.304.803.476.284.821.284h4.111c.913 0 1.605.214 2.079.642s.711 1.079.711 1.95c0 .38-.058.729-.173 1.051a2.23 2.23 0 0 1-.52.833c-.23.234-.521.418-.871.551s-.758.195-1.228.195h-6.728v-.005z"/><linearGradient id="G" gradientUnits="userSpaceOnUse" x1="30.015" y1="20.594" x2="100.568" y2="11.422"><stop offset="0" stop-color="#283339"/><stop offset="1" stop-color="#1d8dcc"/></linearGradient><path fill="url(#G)" d="M98.938 13.879V12.36h3.604c.551 0 .981-.155 1.29-.472.309-.311.462-.723.462-1.233 0-.519-.153-.931-.462-1.234s-.739-.457-1.29-.457h-4.755v7.408h-1.555V7.396h6.31c.519 0 .981.076 1.389.229s.75.367 1.031.643.494.61.644 1.006a3.82 3.82 0 0 1 .222 1.332c0 .486-.074.929-.222 1.328a2.89 2.89 0 0 1-.644 1.03 2.92 2.92 0 0 1-1.031.675c-.407.159-.87.239-1.389.239l-3.604.001h0z"/><linearGradient id="H" gradientUnits="userSpaceOnUse" x1="30.281" y1="22.693" x2="100.839" y2="13.521"><stop offset="0" stop-color="#283339"/><stop offset="1" stop-color="#1d8dcc"/></linearGradient><path fill="url(#H)" d="M115 16.372l-1.347-2.259h-4.245l.739-1.272h2.754l-2-3.357-4.074 6.889h-1.791l5.161-8.593c.091-.156.198-.28.321-.371s.271-.135.445-.135a.71.71 0 0 1 .438.135c.119.091.226.215.313.371l5.175 8.593H115z"/><linearGradient id="I" gradientUnits="userSpaceOnUse" x1="30.456" y1="23.918" x2="101.002" y2="14.747"><stop offset="0" stop-color="#283339"/><stop offset="1" stop-color="#1d8dcc"/></linearGradient><path fill="url(#I)" d="M120.755 16.372a4.2 4.2 0 0 1-1.734-.353c-.531-.232-.992-.556-1.383-.963s-.695-.891-.915-1.449-.325-1.165-.325-1.815c0-.659.107-1.259.325-1.803s.523-1.007.915-1.39a4.1 4.1 0 0 1 1.383-.889 4.67 4.67 0 0 1 1.734-.314h4.864v1.567h-4.864a2.87 2.87 0 0 0-1.118.216 2.67 2.67 0 0 0-.883.6c-.246.255-.438.56-.58.914s-.209.746-.209 1.173a3.22 3.22 0 0 0 .209 1.173 2.84 2.84 0 0 0 .58.932 2.64 2.64 0 0 0 .883.611c.343.148.714.223 1.118.223h4.864v1.567h-4.864 0z"/><linearGradient id="J" gradientUnits="userSpaceOnUse" x1="30.573" y1="24.927" x2="101.13" y2="15.754"><stop offset="0" stop-color="#283339"/><stop offset="1" stop-color="#1d8dcc"/></linearGradient><path fill="url(#J)" d="M126.891 16.372V7.396h8.014v1.567h-6.457v5.841h6.47v1.566l-8.027.002h0zm2.703-3.901v-1.319h4.977v1.319h-4.977 0z"/><path fill="#18a4ed" d="M21.55 5.93l-2.693.91-.229.062c-.139-.38-.375-.688-.713-.906-.172-.108-.219-.243-.159-.429l.137-.458c.038-.168-.03-.224-.189-.185l-.116.027c-.526.089-.718-.072-.716-.604 0-.091-.007-.181.01-.269a.46.46 0 0 0-.255-.546c-.294-.168-.479-.471-.774-.646-.141-.084-.109-.265-.116-.412-.015-.402-.066-.478-.438-.599-.09-.028-.186-.063-.189-.163-.021-.371-.094-.742-.004-1.111.75.043 1.472.229 2.184.459 3.967 1.281 6.896 4.607 7.684 8.731.424 2.218.194 4.376-.658 6.468-.018.045-.046.086-.069.127-.208-.091-.224-.281-.194-.455.063-.381-.174-.688-.213-1.041-.003-.027-.021-.062-.046-.073-.357-.188-.41-.569-.56-.888-.073-.153-.156-.267-.344-.285-.224-.024-.329-.17-.334-.39-.006-.237-.074-.471-.066-.711.004-.136-.053-.25-.131-.358-.257-.34-.507-.688-.791-1.01-.11-.128-.234-.209-.407-.212-.121-.003-.237-.026-.339-.102-.163-.163-.19-.388-.258-.591-.069-.209-.184-.301-.416-.286-.429.026-.625-.11-.75-.515-.158-.519-.291-1.045-.371-1.584.482-.396 1.006-.734 1.506-1.11l1.078-.792c.022-.025.018-.051-.009-.067-.018-.009-.037-.004-.052.014"/><path d="M6.194 13.889a.38.38 0 0 1 .059-.026c.176.157.38.188.609.163.41-.045.796.47.649.854-.024.064-.058.126-.084.192-.071.177-.006.266.181.274l.148.008c.68.061.712.097.645.779-.01.103-.024.205.067.274.187.139.239.34.252.551.019.294.164.479.435.579.084.031.162.079.237.126.171.104.161.25.106.416-.118.354-.063.456.294.558.172.047.351.06.512.15.185.104.285.238.272.454-.006.099.01.2-.001.297-.027.255.068.381.331.431.332.064.371.146.298.482-.035.161-.029.345-.197.45-.124.048-.233-.005-.345-.044-1.646-.596-3.264-1.25-4.82-2.055-.521-.27-1.017-.58-1.499-.914-.071-.051-.153-.096-.171-.195l-.267-.231c-.394-.297-.561-.844-.365-1.364a2.27 2.27 0 0 1 .501-.767c.422-.44.925-.774 1.45-1.078.205-.12.4-.255.63-.325.028-.01.052-.025.073-.039m-.408-1.67l-.796.519c-.447.298-.876.616-1.264.993-.381.371-.71.776-.898 1.326-.038-.084-.071-.136-.085-.192-.598-2.315-.504-4.603.3-6.856.012-.038.037-.07.055-.105.176.003.209.147.227.266.056.385.395.555.597.827.071.097.199.06.31.049.351-.034.471.084.396.425-.043.199-.033.318.174.432.262.142.331.739.155.996-.097.142-.287.271-.163.468.119.188.326.1.495.077.608-.075.675-.013.569.584-.012.068-.032.131-.072.191m7.037 11.045c-.801-.021-1.576-.192-2.336-.425-2.582-.79-4.637-2.303-6.168-4.526-.038-.057-.07-.118-.104-.18-.019-.056.015-.085.06-.104.108-.016.192.04.271.102 1.102.879 2.373 1.45 3.655 1.995l3.881 1.456c.103.035.212.061.284.154.078.23-.105.365-.203.527-.223.373-.18.496.227.662.168.069.424.024.457.303l-.024.036z" fill="#01466b"/><path fill="#14a0e9" d="M15.102.604c.076.322.053.646.059.974.004.211.007.211.212.231.237.022.417.195.442.433.009.089.01.181 0 .269-.023.227.074.325.271.454.287.188.508.477.809.668.09.059.131.203.084.353-.066.221-.021.453-.024.68-.001.12.063.186.183.189.203.011.408.093.604-.029.032-.02.075-.021.114-.023.137-.007.191.047.157.178l-.196.652c-.049.139-.02.228.115.285.199.082.367.194.426.42.012.042.062.086.104.104.223.097.246.258.167.461a9.31 9.31 0 0 1-1.139.399c-.118-.281-.1-.595-.2-.886-.067-.19-.163-.301-.364-.321-.181-.021-.343-.084-.477-.209-.199-.205-.418-.389-.645-.563-.102-.077-.194-.168-.223-.304.09-.313.184-.618.035-.947-.079-.173-.173-.309-.359-.368-.422-.139-.594-.451-.474-.884.05-.178.063-.348.027-.527-.027-.143-.078-.264-.22-.332-.092-.045-.172-.117-.2-.213-.165-.556-.608-.773-1.104-.938a.99.99 0 0 1-.219-.097c-.049-.044-.092-.089-.061-.163.462-.084.928-.053 1.391-.023.236.012.479-.009.705.077"/><path fill="#014a72" d="M10.971 20.868c.18-.188.137-.442.204-.664.021-.071-.052-.094-.108-.116-.11-.046-.23-.049-.347-.074-.198-.045-.218-.073-.222-.283l-.002-.418c-.007-.114.055-.258-.053-.338-.141-.103-.281-.23-.474-.224s-.345-.079-.498-.165c-.167-.092-.179-.146-.118-.34l.061-.168c.104-.258.111-.287-.135-.384-.4-.158-.674-.377-.659-.857.004-.142-.037-.317-.232-.378-.105-.029-.124-.137-.092-.221.065-.176.024-.356.06-.528.027-.144-.05-.178-.146-.194-.223-.045-.443-.098-.674-.092s-.333-.142-.208-.32c.223-.316.136-.568-.065-.849-.098-.135-.159-.232-.349-.155-.104.039-.235.013-.354.017-.176.005-.281-.076-.306-.254a7.12 7.12 0 0 1 1.259-.583c.535.124.728.553.891 1.006.019.057.018.127.056.168.248.256.358.53.187.879-.046.094.035.164.125.206.18.084.358.161.552.215.338.093.431.272.318.599-.043.129-.047.229.067.315.166.127.248.308.304.5.048.162.132.271.321.302.251.041.378.231.464.457.035.211-.029.411-.057.618-.022.177.021.28.21.261.514-.05.658.063.543.674-.044.232-.006.449.16.664.201.258.237.602.297.924.015.078-.029.131-.106.154-.323-.042-.645-.079-.874-.354"/><path fill="#109ce5" d="M23.709 17.477c-.209.431-.462.832-.772 1.197-.121-.035-.154-.146-.21-.238-.061-.104-.124-.201-.234-.264-.372-.205-.539-.529-.49-.945l.084-.53c.049-.336.042-.347-.287-.31-.079.008-.158.018-.237.008-.397-.047-.645-.396-.557-.779l.036-.145c.104-.418.103-.416-.282-.574-.309-.129-.515-.338-.521-.692.183-.397-.05-.664-.309-.901-.166-.148-.262-.283-.151-.506.069-.139-.029-.221-.125-.295-.159-.121-.297-.262-.375-.449-.057-.14-.108-.28.013-.416.199-.076.411-.067.616-.099.214-.032.35.06.348.293-.001.29.105.461.405.574.276.104.315.431.382.698.007.027-.001.061-.001.09-.019.584.028.634.604.6.174-.01.256.073.304.223.077.25.042.494-.054.729-.087.211-.031.356.147.488.168.12.353.226.494.384.278.21.61.314.922.456.36.163.384.19.243.547-.098.243-.187.479.018.714.028.034.011.095-.011.142"/><path fill="#139fe8" d="M22.507 15.668l-.688-.518c-.079-.074-.101-.139-.068-.234l.123-.365c.053-.136.047-.275.027-.412-.039-.276-.101-.326-.367-.244-.258.082-.407-.101-.592-.196-.057-.029-.052-.104-.025-.163.04-.085.019-.18.04-.264.073-.289-.151-.491-.209-.741-.015-.062-.084-.072-.146-.087-.353-.082-.408-.148-.426-.491-.018-.374-.047-.401-.422-.312-.159.037-.316.017-.475.025-.129-.049-.146-.178-.198-.279s-.089-.242-.2-.285c-.29-.112-.348-.34-.357-.612-.007-.211-.112-.396-.191-.585-.048-.19.029-.354.13-.502.196-.292.18-.565-.022-.844-.041-.055-.088-.109-.106-.178.215-.184.444-.35.688-.49.159.287.223.606.277.922.052.294.146.568.243.845.067.192.353.304.58.267.336-.055.386-.023.496.293l.216.613c.02.037.029.082.005.114-.163.224-.06.421.034.639.123.287.248.499.622.521.311.021.391.382.181.648-.218.275-.209.268.041.505.186.175.389.304.643.354.197.042.307.158.295.38l-.01 1.313c-.006.133.025.285-.139.363"/><path fill="#0995de" d="M12.351.61c.016-.015.03-.015.048-.005.164-.018.114.102.102.178-.016.088-.081.159-.119.24-.141.298-.047.503.273.582.104.026.216.037.307.105.082.064.123.156.146.253.073.28.188.509.504.603.173.05.229.238.25.41.052.388.213.714.408 1.059.217.386.469.725.747 1.055.028.064.044.137.036.203-.037.303.042.566.217.813.197.282.121.545-.093.784-.105.047-.196-.008-.272-.066-.272-.213-.592-.307-.924-.369-.194-.113-.326-.324-.564-.374-.151-.114-.18-.294-.239-.458a.97.97 0 0 1-.032-.129c-.002-.031 0-.061.008-.089.168-.263.307-.524.203-.859-.043-.141-.093-.221-.234-.267-.348-.11-.412-.211-.403-.587.004-.149-.026-.296-.038-.444-.015-.173-.117-.268-.256-.371-.438-.332-.867-.684-1.137-1.179-.084-.153-.214-.224-.353-.304-.182-.107-.424-.14-.514-.375.503-.181 1.017-.308 1.551-.353.121-.058.26.024.378-.056"/><path fill="#01527d" d="M3.926 6.167c.092-.218.218-.413.369-.594.17.004.169.134.178.25.035.473.377.771.852.752.157-.007.311-.069.471-.037.22.103.371.251.345.519-.191.332-.144.635.09.929.072.09.127.2.177.308.106.229.286.352.532.36.219.005.353.096.383.321.023.1.031.205.072.302.107.33.271.642.327.988.019.11.106.187.16.281.09.159.224.314.104.518a3.27 3.27 0 0 1-.649.315c-.177-.077-.188-.241-.203-.396-.016-.177-.067-.31-.272-.324-.116-.009-.211-.073-.252-.181-.119-.314-.351-.463-.676-.49-.057-.005-.112-.036-.162-.068-.125-.083-.195-.211-.203-.35-.018-.451-.217-.81-.538-1.114-.072-.164-.025-.329.011-.492.021-.095.064-.204-.04-.271-.37-.236-.564-.683-1.019-.824-.182-.057-.205-.22-.135-.395.04-.099.118-.189.078-.307"/><path fill="#16a2eb" d="M22.507 15.668a.57.57 0 0 0 .063-.287l.018-1.486c.01-.114-.063-.161-.148-.188-.094-.028-.192-.043-.289-.069-.065-.018-.143-.028-.192-.068l-.624-.538c.075-.146.189-.228.288-.323.114-.111.139-.234.08-.377-.058-.137-.173-.184-.313-.184-.03-.002-.06 0-.089-.002-.271-.006-.264-.008-.365-.266-.068-.175-.158-.343-.248-.508-.069-.125-.1-.229.029-.338.057-.05.081-.134.121-.203.125.023.246.08.378.061.158-.024.265.062.358.168.324.375.617.772.912 1.168.039.056.08.129.075.189-.02.271.067.53.069.797.002.295.05.353.341.361.152.006.229.058.277.208.063.205.201.382.242.604.025.142.132.241.271.293s.197.154.184.304c-.008.079-.004.161.043.229.14.208.176.437.135.679-.03.186.029.347.122.5a4.89 4.89 0 0 1-.533 1.086c-.017-.047-.019-.112-.05-.136-.223-.163-.199-.357-.092-.571.043-.09.074-.184.108-.276.076-.196.072-.229-.137-.304-.318-.11-.599-.312-.926-.396-.069-.02-.102-.061-.108-.127"/><path fill="#0995de" d="M20.296 14.176c.023.36.219.579.564.672l.199.052c.118.038.181.104.14.245l-.155.631c-.037.113 0 .184.068.265.205.241.442.362.76.248a.42.42 0 0 1 .087-.019c.21-.021.281.041.242.25l-.127.757c-.059.286.135.481.202.723.012.038.058.058.098.056.247-.006.336.176.427.354l.134.268c-.188.301-.406.577-.666.821-.188-.067-.384-.026-.576-.037-.027-.015-.043-.037-.047-.067.064-.324.209-.619.327-.922.061-.16.08-.285-.157-.235-.271.057-.434-.069-.537-.31-.092-.207-.248-.38-.319-.601-.048-.149-.194-.181-.333-.217-.167-.04-.364-.038-.445-.243-.047-.242-.013-.492-.065-.735-.032-.146-.093-.248-.229-.319-.212-.112-.38-.278-.509-.482.016-.234.007-.46-.077-.691-.1-.278.078-.483.279-.658.248.028.5.047.715.194"/><path fill="#0793dc" d="M19.581 13.995c.001.089-.061.144-.111.203-.137.157-.176.333-.063.521.116.198.106.395-.005.59-.194.142-.348.045-.455-.111-.209-.307-.482-.589-.412-1.016.019-.108-.031-.22-.12-.293-.169-.14-.243-.334-.317-.528-.078-.203-.132-.413-.396-.472-.113-.023-.152-.157-.166-.265-.034-.278-.176-.479-.415-.616-.201-.293-.433-.553-.753-.732-.236-.135-.271-.372-.217-.624.015-.067.045-.132.069-.195.136-.343.136-.343-.176-.469.124-.126.269-.22.425-.297.234.026.456.116.694.134.198.013.296.159.313.344.045.448.334.654.729.749.213.052.27.179.244.371-.012.079-.016.161-.042.233-.147.397.041.681.333.902.259.195.404.456.526.74.014.037.023.076.035.113.009.021.015.043.022.064l.037.09a.37.37 0 0 1 .026.057l.042.084c.012.018.021.035.028.055l.03.057c.011.021.02.039.027.059l.029.057c.01.019.018.037.026.059a.49.49 0 0 1 .036.088c.004.02-.005.037-.023.048"/><path fill="#014f79" d="M10.737 17.879l-.213-.244c-.068-.078-.151-.142-.261-.105-.146.049-.2-.045-.248-.145-.038-.08-.071-.164-.094-.25-.048-.19-.141-.353-.315-.449-.144-.077-.123-.174-.065-.299.159-.35.067-.533-.324-.586-.227-.033-.385-.197-.598-.244-.078-.017-.099-.094-.083-.17a.46.46 0 0 1 .037-.11c.121-.263.146-.494-.133-.691-.151-.104-.091-.329-.196-.481a.96.96 0 0 1-.154-.348c-.021-.102-.082-.234-.231-.234-.176 0-.264-.114-.346-.241a5.56 5.56 0 0 1 1.016-.42c.011.247.157.405.334.562.199.176.412.346.482.627.034.135.162.161.284.184.16.027.288.111.327.271.091.376.275.648.688.706.125.12.229.254.276.426.031.163-.058.281-.158.397-.192.226-.231.83-.078 1.071.048.072.121.099.2.117l.458.131c.313.119.37.287.194.578-.046.075-.096.15-.174.2-.25.018-.467-.042-.625-.253"/><path fill="#0184c9" d="M21.375 20.395c-.288.296-.607.554-.958.771-.136-.069-.215-.203-.334-.292a.3.3 0 0 1-.106-.371c.011-.027.021-.057.026-.085.143-.604.078-.678-.506-.557l-.146.026c-.32.051-.402-.029-.354-.349.011-.079.023-.158.045-.233.067-.231.035-.404-.231-.486-.182-.059-.246-.219-.259-.398-.009-.14-.022-.277-.128-.387l-.066-.059c-.034-.028-.066-.059-.098-.09-.232-.195-.177-.437-.113-.685.086-.322.082-.327-.224-.392-.129-.027-.224-.1-.272-.211-.143-.328-.399-.5-.737-.582-.027-.013-.052-.029-.072-.053a.21.21 0 0 1-.042-.081c.084-.298.28-.521.488-.739.327-.09.609.028.886.184.36.186.542.46.483.879-.022.158.057.309.095.461.005.602.235.994.905.989.057-.002.111.032.16.069.11.123.08.263.031.394-.087.235-.078.442.125.619.044.038.088.09.098.146.125.649.742.856 1.133 1.269.066.073.201.095.171.243"/><path fill="#017cbd" d="M7.987 2.094c.235-.176.496-.308.771-.414.217.06.235.26.3.425.009.152-.061.287-.114.423-.164.431-.155.443.293.458.088.002.177-.001.264.021.33.123.395.396.398.702-.106.192-.117.38-.037.594.072.185.158.291.375.305.301.019.354.135.235.414-.053.125-.144.234-.169.396.292.062.622-.065.873.171.12.176.23.359.391.506.09.082.137.188.14.313a.5.5 0 0 1-.177.422c-.141.129-.256.277-.365.432-.403.021-.438.008-.589-.341-.116-.265-.32-.452-.532-.629a.38.38 0 0 1-.15-.438c.088-.336-.063-.575-.399-.67-.107-.034-.215-.045-.297-.129-.135-.152-.191-.349-.26-.529-.08-.215-.155-.424-.324-.592-.113-.111-.102-.271-.11-.42s-.048-.287-.19-.381a.85.85 0 0 1-.327-1.039"/><path fill="#014a71" d="M5.063 8.44c.323.233.547.516.545.947-.002.17.053.347.17.486.021.021.054.051.049.072-.106.468.191.877.184 1.33-.005.267.207.3.405.34.092.02.228-.061.26.105l-.005.004c-.029.035-.084.022-.113.061l-.003.001c-.03.033-.087.021-.114.062h-.003c-.033.03-.092.021-.115.064-.167.126-.346.227-.536.307-.002-.16-.013-.313.032-.474.061-.213.012-.255-.223-.259-.208-.003-.408.068-.619.07-.125.002-.209-.008-.268-.119s-.104-.219-.01-.334c.024-.029.037-.073.066-.099.23-.187.24-.421.182-.688-.044-.205-.087-.386-.333-.425-.122-.022-.166-.084-.115-.213a1.57 1.57 0 0 0 .081-.317c.028-.193-.074-.319-.252-.253-.343.131-.52-.027-.669-.298-.027-.048-.073-.11-.122-.126-.21-.067-.224-.248-.268-.418-.034-.131-.032-.282-.172-.364.067-.254.168-.492.3-.721.03-.031.016-.083.054-.111v-.004c.196.07.265.271.405.402.258.232.58.416.666.801.027.118.144.111.248.102s.221-.057.293.069"/><path fill="#0490d9" d="M10.423 1.02c.217.162.466.268.707.385.113.057.201.117.225.255.038.223.196.364.367.487s.328.256.426.447c.08.159.248.195.39.256.112.05.174.104.188.229.029.231.106.456.059.698-.043.211.094.377.313.421l.202.05c.094.02.131.079.126.173a1.42 1.42 0 0 0 .054.409c.025.118.01.232-.086.332-.08.086-.139.191-.207.291-.194.083-.367-.025-.488-.13-.217-.185-.443-.365-.619-.597-.031-.146.037-.273.081-.402.052-.156.023-.271-.128-.352-.109-.055-.198-.129-.236-.252-.102-.32-.297-.514-.66-.469-.058.008-.117-.013-.171-.043-.138-.105-.12-.263-.128-.41-.01-.209-.084-.369-.261-.505-.253-.192-.482-.424-.517-.768-.015-.138-.192-.181-.162-.33.165-.086.339-.146.525-.175"/><path fill="#015b8b" d="M16.591 22.951a.54.54 0 0 1-.357.063c-.012-.002-.024-.004-.037-.004-.084-.029-.155-.084-.238-.119l-.184-.069c-.191-.134-.436-.185-.59-.376-.053-.116-.178-.197-.199-.326-.069-.421-.293-.743-.551-1.078-.231-.302-.473-.509-.839-.576-.13-.231-.252-.469-.343-.723-.025-.221.113-.364.244-.508.109-.122.216-.25.343-.356.243-.018.45.071.606.249.205.233.426.434.729.525.088.025.153.089.199.169.069.128.166.244.201.389.126.442.204.901.456 1.3.035.061.063.123.062.195-.028.151-.144.253-.222.374-.163.253-.167.252.14.308.125.021.251.032.375.069.104.031.208.062.255.177.035.113.036.223-.05.317"/><path fill="#0c98e1" d="M19.221 13.278c-.056-.261-.188-.511-.372-.66-.161-.129-.276-.298-.439-.419-.147-.111-.167-.262-.132-.428l.1-.489c.033-.19.001-.228-.189-.277-.205-.052-.38-.168-.563-.265-.071-.037-.118-.102-.134-.188l-.078-.346c-.07-.275-.124-.334-.398-.329-.213.005-.386-.062-.546-.188.327-.258.667-.496 1.022-.713.203-.002.197.172.226.291.056.234.16.396.424.412.12.008.19.095.245.192.174.261.244.551.239.86-.001.084.015.178.103.195.331.066.394.35.497.602l.059.136c-.027.332.139.565.385.757.047.037.103.063.144.105.077.082.114.158.045.285-.116.22-.103.229.105.399.134.109.222.253.316.392.128.185.175.375.019.569-.248-.021-.495-.052-.716-.18v-.06c-.022-.02-.037-.043-.061-.061v-.061c-.021-.02-.037-.043-.061-.06v-.062c-.021-.019-.037-.042-.061-.059v-.062c-.021-.019-.036-.042-.06-.06v-.061c-.022-.018-.037-.042-.06-.061v-.06c-.02-.004-.036-.028-.059-.046"/><path fill="#0189d0" d="M12.112 4.735c.203.122.38.271.53.456.138.169.356.188.543.262l.001.061c.021.018.037.041.061.06a1.64 1.64 0 0 0 .18.478c.024.28-.136.508-.226.754-.068.19-.097.33.141.426.213.085.25.317.325.511s.143.349.402.362c.154.007.328.107.254.341a2.51 2.51 0 0 1-.601.229c-.092-.317-.34-.432-.634-.489-.308-.066-.452-.229-.478-.572-.028-.401-.354-.644-.677-.841-.147-.092-.286-.17-.301-.363.022-.148-.077-.234-.173-.319a.92.92 0 0 1-.305-.456c-.07-.355.148-.61.305-.889.218-.107.434-.148.653-.011"/><path fill="#015e90" d="M6.079 7.066c.031-.242-.135-.359-.299-.478-.203-.188-.213-.438-.196-.686.013-.218-.054-.369-.249-.488-.219-.136-.366-.353-.514-.562a1.58 1.58 0 0 1 .35-.422c.03-.014.056-.03.063-.065l-.007.004c.04-.01.062-.037.063-.077.001-.021.011-.034.032-.039.005-.021.018-.034.039-.04l.013-.015a.09.09 0 0 1 .047-.049l.01-.011c.011-.021.029-.038.05-.052l.006-.008c.016-.021.033-.039.053-.055l.006-.008a.45.45 0 0 1 .053-.054l.006-.006c.017-.021.034-.037.054-.055l.004-.005.054-.058.003-.003.058-.053.005-.005c.017-.02.034-.037.054-.053l.006-.008c.016-.019.034-.037.055-.053l.006-.005c.016-.018.036-.027.061-.03s.047.001.068.014c.03.02.054.045.071.074s.026.065.035.099l.037.097c.01.024.018.047.024.071a.43.43 0 0 1 .021.118.23.23 0 0 1-.023.08c-.155.184-.297.35-.199.636.074.211.152.353.386.385s.315.181.305.401c-.002.09.016.184 0 .269-.055.279.015.44.336.413.104-.008.199.059.242.15.114.252.309.408.556.511.036.014.058.053.073.091.004.039.011.087-.021.11-.244.187-.366.464-.533.708-.153.019-.231-.098-.313-.186-.265-.283-.635-.398-.951-.602"/><path fill="#0187ce" d="M9.897 1.197a.61.61 0 0 1 .264.443c.037.258.25.478.475.605.23.132.262.319.281.533.012.136-.018.275.063.402-.05.272.049.455.289.609.301.192.353.537.196.95-.29-.021-.544-.156-.809-.257-.134-.051-.179-.184-.197-.312-.032-.223-.14-.334-.373-.321-.1.002-.198-.024-.243-.135-.028-.267-.077-.524-.36-.653-.094-.103-.104-.236-.106-.356-.003-.282-.117-.48-.371-.601l-.249-.426c.303-.181.62-.319.958-.416.037-.026.09-.016.124-.048.019-.004.039-.01.058-.017"/><path fill="#008cd4" d="M16.043 9.987a.72.72 0 0 0 .29-.036c.105-.032.156.029.119.131l-.194.463c-.12.268-.089.587.245.742.303.143.501.374.629.677-.166.339-.113.73-.271 1.07-.225.101-.411.007-.595-.116-.177-.117-.316-.291-.532-.353-.211-.097-.459-.145-.516-.427-.013-.449-.058-.887-.389-1.235-.034-.036-.039-.091-.036-.142.326-.127.586-.357.876-.539.126-.077.234-.18.374-.235"/><path fill="#0177b5" d="M12.463 11.479c.369-.148.75-.268 1.139-.355.035-.021.095-.035.105-.006.095.283.409.363.551.604.047.265.021.531.019.799 0 .11-.016.226.105.285.203.099.313.275.382.473a12.41 12.41 0 0 0 .41 1.01c-.218.311-.415.365-.793.227-.233-.295-.634-.443-.725-.867-.039-.178-.085-.349.008-.518.085-.154.03-.256-.099-.354-.138-.103-.282-.178-.45-.219s-.307-.143-.29-.324a.78.78 0 0 0-.362-.755"/><path fill="#016fa8" d="M12.463 11.479c.376.134.424.197.426.57.001.36.003.355.382.458.215.061.363.232.535.361.063.047.039.129-.011.188-.155.181-.161.377-.062.582.088.179.107.398.349.482.155.052.237.203.301.352.026.277-.229.688-.489.791-.181-.141-.138-.359-.176-.545-.049-.238-.121-.383-.407-.317a.69.69 0 0 1-.435-.039c-.118-.074-.215-.166-.264-.302.021-.301-.154-.561-.178-.852 0-.101.037-.193.059-.289.029-.141-.012-.242-.133-.326-.479-.332-.478-.332-.297-.886.013-.037.034-.071.037-.11a.81.81 0 0 1 .363-.118"/><path fill="#0d99e2" d="M15.159 6.887c.014-.047.016-.104.043-.141.158-.212.154-.431-.012-.623-.228-.263-.228-.564-.211-.88v-.147c.222-.201.455-.222.657-.063a.77.77 0 0 0 .24.26c.22.15.411.329.596.518.12.179.073.359.017.541-.051.16-.099.317-.102.49-.005.228.094.326.318.32.107-.005.218-.007.324.01.117.021.242.038.233.203l-.002-.002c-.041.02-.093.016-.128.05l-.002.003c-.047.051-.131.002-.176.062h0c-.051.05-.135-.002-.18.063l.002-.003c-.052.048-.138-.005-.182.064l.004-.003c-.04.023-.091.018-.126.052l-.017.013-.021-.003c-.046.021-.102.013-.141.054-.227.115-.465.196-.712.259-.106-.097-.066-.218-.045-.329.03-.178-.023-.295-.188-.385-.136-.078-.308-.165-.189-.383"/><path fill="#0173af" d="M7.987 2.094c-.012.237.093.465.065.705-.014.127.088.18.181.201.306.076.369.297.353.563-.01.171.036.307.171.416.118.098.169.219.207.375.056.234.185.455.282.68.011.304-.239.415-.42.576-.059.022-.118.027-.179.015a.83.83 0 0 1-.4-.341.34.34 0 0 1 .031-.258c.121-.226.048-.351-.188-.409-.115-.031-.229-.071-.332-.13s-.159-.122-.096-.261a.71.71 0 0 0-.504-.992c-.125-.106-.255-.209-.347-.35a5.92 5.92 0 0 1 1.176-.79"/><path fill="#015784" d="M10.618 15.25c-.055-.02-.113-.06-.166-.055-.256.025-.385-.1-.445-.332-.012-.049-.037-.092-.049-.139-.064-.259-.164-.471-.491-.438-.104.012-.165-.079-.184-.164-.074-.358-.355-.565-.609-.769-.196-.154-.233-.289-.146-.496a5.38 5.38 0 0 1 .951-.361c.077-.046.146-.018.166.057.092.395.413.482.741.567.114.073.205.162.224.304a1.23 1.23 0 0 0 .086.977c.139.264.108.579-.078.849"/><path fill="#0169a0" d="M8.289 5.274l.358.299c.062.069.056.147.019.219-.123.237-.183.499-.3.735-.027.02-.059.023-.09.017-.334-.146-.516-.431-.645-.745-.118-.285-.292-.41-.612-.392-.386.023-.419-.037-.376-.434l.014-.178c.031-.431.031-.429-.359-.611a.19.19 0 0 1-.099-.104c-.035-.032-.022-.089-.061-.12l-.001-.06c-.02-.019-.035-.043-.058-.06l-.001-.119-.06-.062c-.023-.013-.041-.033-.052-.057a4.75 4.75 0 0 1 .844-.719c.168.037.25.174.344.299.094.193-.021.371-.056.548-.048.258-.013.418.271.49.226.057.358.226.338.465-.023.301.078.477.399.493.071.004.131.047.183.096"/><path fill="#01669c" d="M8.289 6.528h.061c.396.063.738.229 1.009.532.051.102.08.207.08.319-.007.238-.128.458-.083.706.039.216.035.435.277.55.096.045.104.163.104.265s-.01.2-.039.293c-.078.267-.006.433.272.521.148.048.347.114.235.356-.251.135-.514.248-.784.338-.084-.135-.067-.288-.076-.438.099-.34-.082-.613-.222-.895-.065-.127-.189-.164-.315-.201-.298-.089-.351-.178-.3-.476l.056-.23c.044-.144.007-.242-.154-.245-.265-.005-.359-.171-.4-.396-.027-.146-.098-.282-.107-.431.035-.25.188-.426.386-.568"/><path fill="#0180c3" d="M11.634 6.407c.07.137.176.228.319.282.179.068.331.176.421.354.021.043.057.085.098.111.214.134.24.34.239.564-.002.25.005.25.242.332l.392.133c.346.101.354.107.379.486-.312.141-.626.271-.955.365-.06-.104-.082-.22-.142-.323-.208-.354-.226-.377-.629-.295-.25.052-.374-.034-.413-.274a.9.9 0 0 0-.223-.529c-.09-.104-.237-.191-.207-.369-.021-.218.166-.302.283-.428.113-.119.232-.222.196-.409"/><path fill="#008cd5" d="M21.375 20.395c-.381-.258-.657-.649-1.081-.852-.07-.033-.1-.088-.121-.156-.092-.28-.169-.564-.411-.772-.114-.101-.071-.259-.024-.392.052-.149.101-.301.082-.463-.052-.08-.062-.148.043-.191.111.242.319.313.566.349.381.056.665.343.727.718.039.229.119.416.32.543.094.061.164.146.196.256h0c.234.184.14.401.068.619a1.48 1.48 0 0 1-.365.341"/><path fill="#016398" d="M16.591 22.951l.002-.354c-.126-.181-.044-.362.01-.535.066-.213 0-.291-.215-.28-.115.005-.238.013-.332-.08l-.135-.228c-.116-.185-.388-1.035-.404-1.267.297-.188.631-.272.963-.36.207.027.328.17.343.352.021.311.161.58.254.865.014.101.019.207-.033.291-.135.224-.053.393.103.56s.295.343.338.583c.023.124.002.186-.111.221a2.95 2.95 0 0 1-.783.232"/><path fill="#017fc2" d="M18.385 17.939c.207.033.245.195.234.356-.021.285.083.46.371.513.151.024.192.125.17.259l-.104.521c-.044.228.006.277.224.231l.84-.184c-.03.33.067.638-.09.93-.061.111-.003.179.092.244.128.09.271.175.294.354a3.93 3.93 0 0 1-.834.546c-.069-.172-.021-.351-.016-.523a.44.44 0 0 0-.299-.483c-.127-.051-.251-.112-.358-.201a.46.46 0 0 1-.15-.223c.008-.038-.021.004-.001-.029.352-.548-.109-.827-.383-1.169-.131-.164-.352-.021-.49-.15a.5.5 0 0 1-.145-.269c.093-.351.368-.538.645-.723"/><path fill="#015a8a" d="M9.423 9.993c-.031.139.064.276 0 .416l-1.436.655c-.02-.221-.084-.42-.25-.579-.039-.04-.094-.095-.095-.144-.005-.387-.243-.701-.31-1.065.074-.042.155-.036.226-.012.327.111.675.082 1.009.145.191.186.381.367.685.347.153-.013.122.152.171.237"/><path fill="#0171ac" d="M11.694 9.458c-.289.142-.586.271-.896.363-.021-.23-.114-.408-.327-.521-.087-.046-.174-.125-.187-.224-.06-.485-.399-.854-.524-1.312-.023-.086-.113-.176 0-.266.136-.063.284-.084.429-.113.342-.074.493.036.563.381.04.201-.075.451.094.595.15.127.383.03.577.063.09.013.174.037.233.113.098.231.063.488.143.726.027.083-.035.147-.105.195"/><path fill="#018dd6" d="M14.324 8.442c-.116-.269-.169-.314-.403-.272-.12.021-.168-.023-.205-.113l-.174-.44c-.067-.183-.145-.347-.367-.384-.135-.025-.165-.109-.112-.243l.363-.939c.281-.033.395.186.537.359.061.438.332.768.563 1.12a1.3 1.3 0 0 0 .367.379c.094.063.258.138.086.292-.209.106-.427.188-.655.241"/><path fill="#016aa1" d="M9.722 7.544c.165.226.216.503.341.748.022.044.021.11.053.136.178.146.228.332.208.554-.009.099.065.161.134.22.06.05.127.09.191.136.246.169.25.181.151.485a2.53 2.53 0 0 1-.592.25c.018-.165-.101-.217-.22-.274-.146-.072-.373-.067-.417-.236-.036-.148.044-.324.071-.488.011-.059.016-.116.023-.175.017-.137-.033-.238-.171-.269-.164-.033-.165-.147-.193-.281-.069-.338-.004-.66.066-.984.145.001.247.096.355.178"/><path fill="#014e76" d="M6.676 11.723c-.034-.043-.08-.064-.131-.043-.234.1-.394-.056-.567-.162-.078-.047-.1-.136-.063-.209.073-.153.035-.297-.027-.432-.12-.256-.215-.508-.11-.796.021-.061.002-.139.003-.208l.458.102a.34.34 0 0 1 .31.23c.021.055.078.098.09.148.043.19.159.246.345.24.162-.002.22.071.226.31a1.02 1.02 0 0 0 .13.477 3.94 3.94 0 0 1-.664.343"/><path fill="#015683" d="M4.821 4.852c.11.007.177.08.231.164.115.18.257.33.451.418.116.053.167.135.157.26l-.001.06c-.028.287.021.564.121.835-.23.064-.474.037-.703.089-.098.021-.15-.017-.208-.074l-.318-.314c-.133-.118-.222-.235-.154-.433.035-.097.019-.22-.103-.282a3.47 3.47 0 0 1 .527-.723"/><path fill="#0692db" d="M14.979 8.2c.054-.087.024-.171-.058-.196-.317-.102-.421-.398-.593-.631-.047-.063-.081-.139-.133-.197-.189-.224-.276-.475-.231-.769.301-.003.574.077.822.25.118.084.249.153.373.229-.017.181.099.264.239.327.239.111.276.175.23.423-.021.114-.066.226-.046.346-.19.101-.394.167-.603.218"/><path fill="#014e77" d="M5.063 8.44c-.128-.055-.256-.006-.375.019s-.187.018-.223-.107c-.078-.267-.214-.478-.454-.65-.223-.162-.436-.366-.559-.634.068-.219.174-.414.303-.6.02-.024.041-.048.045-.08-.007-.02 0-.033.02-.041a.54.54 0 0 0 .04-.065l-.002.005c.049-.023.035-.084.066-.116l.001-.002c.063.013.127.027.093.111l-.127.271c-.046.108-.02.19.092.245l.369.193c.174.099.34.204.402.413.033.108.13.146.221.186.209.094.207.094.155.324-.039.172-.088.348-.067.528"/><path fill="#0181c5" d="M14.203 11.727c-.042-.105-.145-.133-.231-.176-.139-.064-.27-.129-.252-.318.007-.072-.055-.098-.118-.109.391-.145.784-.275 1.191-.359l.345.438c.13.186.105.41.137.62.018.104.004.216.004.323-.288.154-.52-.086-.78-.112-.178-.022-.277-.132-.296-.307"/><path fill="#016aa1" d="M17.372 22.719c.023-.027.076-.074.068-.087-.095-.163-.043-.382-.221-.521-.127-.101-.214-.251-.326-.374-.066-.077-.039-.143-.001-.215.069-.131.141-.26.119-.418.179-.002.351.056.529.05s.269.116.326.259c.11.268.303.436.581.502.086.094.197.18.119.332a5.23 5.23 0 0 1-1.194.472"/><path fill="#119de6" d="M17.263 7.376c-.058-.114-.157-.135-.272-.134-.157.005-.316.01-.474-.003-.172-.017-.202-.079-.214-.25-.017-.238.023-.466.115-.685.068-.16.052-.328.055-.494.16.17.378.209.59.229.174.019.22.097.266.252.081.285.16.567.182.864.003.053-.003.097-.021.145a.37.37 0 0 1-.227.076"/><path fill="#016194" d="M10.558 13.398l-.179-.239c-.135-.36 0-.69.116-1.022.169-.093.349-.15.537-.187.255.021.423.198.603.345.172.141.04.305-.009.46-.12.293-.344.5-.58.698-.168.036-.336.063-.488-.055"/><path fill="#0169a0" d="M11.575 12.741c.097-.347.097-.347-.192-.545l-.35-.247a6.5 6.5 0 0 1 1.066-.354c.046.03.064.067.043.125l-.093.277c-.092.289-.086.305.171.438.435.228.447.258.273.729l-.024.055c-.424.194-.93-.074-.894-.478"/><path fill="#0173af" d="M18.567 22.245c.01-.122-.131-.185-.121-.305.061-.222.015-.4-.138-.589-.364-.455-.312-.735.177-1.135.114-.033.224-.033.317.051l.12.18c.129.206.02.424.02.634 0 .265.035.464.344.515.083.015.204.041.182.183a3.95 3.95 0 0 1-.901.466"/><path fill="#109ce5" d="M18.385 9.873c-.135-.145-.331-.118-.497-.168-.099-.031-.149-.063-.169-.168-.023-.136-.079-.266-.109-.398-.018-.074-.052-.129-.119-.16a7.1 7.1 0 0 1 .843-.598c.106.002.155.074.188.16.045.107.077.221.17.305.068.063.052.146.006.217-.094.149-.122.332-.231.476-.074.098-.091.213-.082.334"/><path fill="#017dbe" d="M11.694 9.458c.028-.071.086-.144.037-.219-.137-.213-.088-.45-.098-.681-.081-.14-.123-.279 0-.418.043.029.059.075.063.127.014.107.093.129.172.099.113-.042.236-.022.342-.072.141-.063.23.003.303.104.102.142.186.296.279.443.045.073.006.131-.021.194a8.5 8.5 0 0 1-1.077.423"/><path fill="#0178b7" d="M19.468 21.777c-.105-.126-.263-.117-.4-.154s-.211-.105-.209-.268c.004-.305.01-.606.064-.908l.557.279c.072.035.154.074.152.164-.005.273.059.553-.05.819-.025.048-.068.062-.114.068"/><path fill="#0d99e2" d="M12.948 1.749c-.106-.01-.206-.051-.313-.065-.399-.061-.5-.371-.34-.683.04-.078.098-.146.146-.222.041-.067.029-.129-.043-.174.198-.074.405-.059.61-.058l.06.124c.064.371.067.736-.12 1.078"/><path fill="#025b8b" d="M10.496 12.135c.032.24-.05.469-.083.701l-.033.322c-.238-.014-.467-.042-.637-.245-.069-.083-.15-.153-.143-.278.008-.084-.039-.128-.121-.138.327-.151.666-.274 1.017-.362"/><path fill="#0692db" d="M21.74 20.053c-.034-.207.04-.423-.068-.621.121-.02.235-.07.363-.062.103.007.189.021.235.126-.151.209-.328.395-.53.557"/><path fill="#01466b" d="M4.035 17.764c.088.097.2.166.269.282l-.089.087c-.106-.104-.187-.227-.225-.373.017-.02.032-.019.045.004"/><path fill="#0d99e2" d="M12.351.61c-.111.112-.25.047-.377.057.118-.067.248-.058.377-.057"/><path fill="#88d5f7" d="M21.55 5.93c.006-.01.012-.018.02-.022.043-.031.105-.062.127-.011s-.036.08-.088.091l-.059-.058"/><path fill="#01466b" d="M3.925 17.699c-.033-.018-.063-.047-.031-.079.014-.013.063.012.094.021.015.013.021.028.019.043s-.007.024-.011.024c-.027.017-.05.011-.071-.009"/><g fill="#119de6"><path d="M16.774 7.549c.041-.076.111-.063.18-.063-.049.055-.111.065-.18.063"/><path d="M16.595 7.611c.039-.082.112-.067.181-.064-.047.058-.112.063-.181.064m.358-.125c.041-.073.11-.063.176-.063-.047.054-.109.066-.176.063"/></g><path fill="#0490d9" d="M9.84 1.217c-.031.047-.076.053-.125.049.032-.043.075-.054.125-.049"/><path fill="#016397" d="M5.967 3.602l.053.058-.115.002c.008-.035.031-.053.062-.06"/><path fill="#014e76" d="M6.323 11.912c.019-.055.063-.064.115-.064-.023.048-.067.061-.115.064"/><path fill="#119de6" d="M16.295 7.723c.033-.056.085-.058.141-.051-.037.045-.087.055-.141.051"/><path d="M6.44 11.848c.021-.05.064-.063.114-.062-.026.044-.065.062-.114.062m.117-.063c.023-.049.065-.061.113-.061-.025.042-.062.062-.113.061" fill="#014e76"/><path fill="#119de6" d="M16.473 7.66c.029-.049.075-.057.126-.052-.03.047-.075.055-.126.052"/><path fill="#01466b" d="M3.925 17.699l.065-.001c.022-.021.04-.015.051.013l-.007.006c.003.016.003.031.001.047l-.023.002-.022-.006c-.041 0-.058-.026-.065-.061"/><path fill="#01527d" d="M3.925 6.169c.001.052-.01.097-.066.116.003-.051.019-.093.066-.116"/><path fill="#119de6" d="M17.131 7.423c.029-.052.076-.058.128-.05-.03.049-.078.055-.128.05"/><path fill="#014e77" d="M3.451 7.07c0 .045-.011.087-.054.111-.005-.046.015-.083.054-.111"/><path fill="#014a72" d="M6.194 13.889l-.07.039c.012-.032.037-.045.07-.039"/><g fill="#016397"><path d="M5.899 3.666l-.054.053c.003-.031.021-.05.054-.053"/><path d="M5.839 3.727l-.054.053c.004-.033.021-.051.054-.053"/></g><path fill="#01466b" d="M4.041 17.711c-.021.001-.036-.003-.051-.013 0-.021-.001-.039-.003-.06.03.016.049.04.054.073"/><g fill="#016397"><path d="M5.778 3.784l-.057.053c.004-.032.024-.05.057-.053"/><path d="M5.719 3.842l-.055.057c.002-.035.019-.053.055-.057"/><path d="M5.66 3.903l-.054.055c.002-.032.022-.05.054-.055"/><path d="M5.599 3.964l-.052.054c.002-.033.02-.049.052-.054"/><path d="M5.541 4.025l-.052.055c.002-.035.019-.053.052-.055"/><path d="M5.481 4.087l-.049.052c.001-.031.018-.049.049-.052m-.058.063l-.047.049c.001-.03.016-.046.047-.049m-.061.063c-.008.017-.02.032-.038.04-.001-.026.014-.039.038-.04"/><path d="M5.292 4.292c-.003.04-.024.067-.063.077.006-.037.028-.062.063-.077"/><path d="M5.233 4.364c-.006.035-.026.058-.061.066.005-.035.024-.058.061-.066"/></g><g fill="#01527d"><path d="M3.862 6.28l-.043.066c-.004-.033.009-.056.043-.066"/><path d="M3.801 6.389c-.002.033-.016.061-.045.078-.003-.037.01-.063.045-.078"/></g><path fill="#014c73" d="M13.729 22.238c.162.313.213.67.408 1.008H12.83c-.047-.104-.119-.157-.24-.186-.236-.057-.473-.131-.632-.346-.065-.084-.065-.134-.015-.229.125-.245.332-.44.408-.713l1.378.466"/><path fill="#109ce5" d="M12.948 1.749c.066-.356.026-.725.119-1.076.198-.003.351.13.531.179.415.107.68.373.816.777.049.146.13.271.299.301.063.012.121.047.13.107.036.271.14.53.013.814-.103.228.019.459.103.678.026.07.113.064.184.072a.55.55 0 0 1 .556.481l.055.199c.064.205.092.405-.082.579-.043.045-.033.113-.034.171-.229-.101-.44.013-.657.062-.199-.136-.343-.328-.518-.49-.014-.012-.035-.028-.037-.045-.058-.375-.354-.623-.514-.941-.102-.201-.065-.425-.12-.637-.054-.206-.108-.374-.356-.406-.162-.021-.253-.139-.303-.293l-.185-.532"/><path fill="#014e77" d="M13.411 21.708a13.18 13.18 0 0 1-1.602-.542c.051-.01.099-.02.079-.092l-.224-.796c-.018-.056-.053-.13-.096-.144-.188-.063-.178-.205-.176-.356.004-.198.017-.394.053-.589.049-.252 0-.293-.256-.295-.119-.002-.238.002-.357-.002-.203-.006-.238-.054-.198-.256.048-.25.101-.502.104-.759.187.112.401.147.598.238.135.045.166.168.191.282.048.219.187.312.396.339.146.019.298.026.436.097.026.016.049.032.068.057.01.027.014.057.012.086-.047.213-.119.418-.185.627-.032.102-.077.234.063.281.346.108.448.411.558.69a2.15 2.15 0 0 0 .505.787c.07.069.133.151.161.248.04.135-.038.131-.13.099"/><path fill="#0490d9" d="M13.248 5.572l-.06-.061.06.061z"/><path fill="#015886" d="M6.079 7.066c.427.069.753.314 1.053.604.063.063.117.137.201.174.036.024.053.063.064.103l.053.16c.102.21-.012.394-.065.587-.036.096-.027.208-.111.285-.063-.168-.15-.256-.36-.252-.224.003-.435-.078-.539-.336-.085-.209-.224-.396-.345-.588-.129-.199-.172-.397-.018-.605.029-.039.044-.088.067-.132"/><path fill="#015e8f" d="M7.272 8.979c.017-.101-.039-.217.062-.301.37-.108.752-.084 1.087.064.292.129.21.45.167.713-.43.023-.851-.021-1.254-.179-.101-.084-.045-.199-.062-.297"/><path fill="#028ed7" d="M16.832 13.039c.024-.193.069-.384.063-.582s.115-.349.235-.493c.219.095.429.195.433.487 0 .075.031.152.055.229.031.1.076.192.201.179.153-.017.207.069.246.196l.164.442c.043.099.067.229.163.276.266.13.251.356.216.578-.021.112-.002.178.063.267.102.142.18.302.268.454.11.191.252.265.461.236.125.066.205.187.307.276.044.04.083.105.133.115.42.084.348.437.393.718.023.145.004.295.004.443-.03.232-.118.421-.373.48-.301-.283-.607-.561-1.049-.596-.052-.005-.094-.029-.131-.064-.124-.226-.135-.47-.117-.718.013-.192-.019-.35-.234-.416-.085-.026-.146-.097-.187-.181.018-.371-.017-.708-.428-.885-.092-.041-.047-.198-.019-.305a.74.74 0 0 0-.594-.896.54.54 0 0 1-.086-.021c-.083-.053-.2-.08-.187-.219"/><path fill="#0692db" d="M19.879 17.342c.126-.154.274-.294.358-.479.089.181.278.146.421.17.239.04.348.148.428.38.084.247.244.474.386.697.068.106.199.073.305.058.115-.018.254-.113.334-.005s-.03.242-.075.358l-.363.91-.396-.307c-.166-.129-.172-.324-.199-.505-.041-.274-.344-.589-.612-.624-.097-.013-.192-.039-.289-.057-.287-.053-.287-.053-.297-.359-.069-.079-.069-.158-.001-.237"/><path d="M19.52 13.876l.06.06-.06-.06m-.059-.119l.06.061-.06-.061m-.06-.118l.06.06-.06-.06m-.06-.119l.061.058-.061-.058m-.059-.122l.06.06-.06-.06m-.061-.12l.061.06-.061-.06" fill="#0995de"/><path fill="#015b8b" d="M10.558 13.398h.539c.339.232.644.5.835.871-.052.269.026.533.012.799-.004.099.048.176.123.227.347.231.368.583.358.948-.038.204-.11.388-.285.517-.028.012-.059.02-.09.018-.536-.072-.821-.473-1.12-.857-.072-.094-.003-.218-.072-.31l-.239-.358c-.003-.208.094-.406.062-.619-.01-.066.014-.146-.031-.203-.271-.327-.257-.674-.092-1.033"/><path fill="#015480" d="M10.858 15.609c.141.355.404.617.67.879.072.07.164.104.258.14s.195.036.267.116c.065.211-.081.354-.17.516-.147.266-.112.344.183.326.234-.015.354.096.405.303l.142.608c.041.187.006.337-.2.397-.204-.036-.406-.101-.61-.104-.226-.004-.291-.151-.331-.313-.032-.127-.079-.242-.135-.358l.206-.361c.072-.155.033-.235-.128-.298-.203-.079-.413-.146-.629-.171-.138-.017-.214-.089-.213-.202.002-.221-.077-.429-.077-.648-.001-.186.041-.327.187-.443.12-.1.205-.219.175-.387"/><path fill="#017dbe" d="M18.385 17.939c-.123.182-.299.313-.445.474-.065.072-.154.129-.152.243-.294-.035-.489-.238-.695-.421-.043-.082-.07-.171-.077-.267a.84.84 0 0 1 .054-.289c.112-.308.112-.574-.219-.759-.107-.062-.152-.181-.152-.307 0-.235-.032-.472.003-.706.043-.034.087-.037.131-.002l.06.06c.348.031.625.16.764.507a.4.4 0 0 0 .464.277c.205-.02.207.005.159.223-.023.106-.033.218-.075.315-.095.229-.059.423.124.591.017.018.033.042.056.061"/><path fill="#0180c4" d="M16.832 15.906h-.12c-.179.084-.339.007-.398-.141-.147-.373-.462-.612-.682-.928-.04-.057-.084-.111-.089-.184.272-.305.159-.604.001-.916-.087-.173-.184-.378.086-.505a.85.85 0 0 1 .72.479.86.86 0 0 0 .331.36c.286.322.501.684.571 1.117-.062.21-.211.365-.332.537-.042.06-.088.109-.088.181"/><path fill="#018ad2" d="M17.251 15.191l-.301-.606a2.14 2.14 0 0 0-.297-.469c-.051-.068-.077-.147-.037-.22.127-.229.197-.49.396-.678h.179c.15-.017.268.025.336.176.031.07.078.14.131.194.188.195.246.398.104.65-.076.134-.025.248.121.31.02.008.036.021.053.027.356.182.359.184.26.564-.021.074-.051.147-.047.229-.291-.11-.58-.222-.898-.177"/><path fill="#0188cf" d="M19.879 17.342v.238c-.07.042-.058.113-.06.18l-.728-.135c-.157-.035-.289-.09-.31-.3s-.079-.426-.099-.642c.291-.045.541.039.765.229a1.37 1.37 0 0 0 .276.169c.118.056.166.138.156.261"/><path fill="#017fc2" d="M18.385 17.939l-.06-.061.06.061"/><path fill="#0180c4" d="M16.891 15.967l-.06-.061.06.061"/><path fill="#0176b3" d="M11.635 8.141v.418c-.215-.11-.446-.047-.671-.057-.28-.013-.281-.007-.284-.279-.002-.148.011-.3-.006-.445-.033-.301-.159-.374-.457-.309-.163.037-.323.099-.494.075-.158.015-.262-.071-.358-.181.017-.106-.054-.195-.062-.298-.107-.232.059-.4.154-.569.104-.188.08-.305-.088-.424l-.359-.259c-.076-.066-.202-.102-.184-.24.117-.197.347-.307.418-.539.063.029.126.068.198.06.143-.019.235.059.341.144.232.19.3.405.176.681-.045.1-.052.171.056.253.301.23.585.479.687.871.023.095.09.153.198.144a.45.45 0 0 1 .258.061c.078.137.188.257.293.366.153.156.206.322.184.527"/><path fill="#0181c4" d="M9.843 3.719c.125.082.268.063.405.062.151-.004.248.041.253.214.01.304.16.479.469.535.171.031.344.091.485.207.016.015.021.027.016.04s-.011.02-.016.02c-.045.298-.267.533-.298.837-.156-.099-.326-.134-.512-.121-.146.01-.296.002-.463.002.036-.22.158-.377.237-.555.103-.229.077-.281-.181-.279-.322.003-.315.02-.432-.32-.016-.047-.021-.1-.047-.143-.114-.191-.069-.352.084-.499"/><path fill="#0180c3" d="M9.006 2.107c.103-.012.188.041.282.063.087.023.139.085.132.172-.021.244.091.476.063.721-.244-.014-.496.05-.729-.086-.01-.319.202-.572.252-.87"/><path fill="#008cd5" d="M11.455 4.795v-.06l.003-.47c.017-.193-.071-.317-.221-.416l-.123-.08c-.313-.213-.318-.235-.138-.588h.206c.407 0 .561.088.669.468a.4.4 0 0 0 .235.269c.229.12.23.139.15.395l-.127.424c-.218.001-.44-.023-.654.058"/><path fill="#016295" d="M15.338 19.852c-.112-.138-.279-.174-.433-.232-.133-.05-.235-.111-.318-.237-.176-.261-.439-.407-.742-.485-.174-.123-.309-.295-.501-.396-.114-.063-.132-.185-.123-.31.02-.228.011-.45-.028-.675.029-.196.076-.388.25-.515a3.84 3.84 0 0 1 .778-.071c.148.061.242.162.263.324.064.485.248.869.804.937.058.006.105.046.145.093.048.068.079.143.093.223-.056.34-.119.676-.065 1.024a.38.38 0 0 1-.123.32"/><path fill="#015786" d="M13.248 17.521c.108.215.069.445.048.666-.016.158.02.25.157.298.202.071.319.217.392.409-.013.168-.161.235-.255.343-.128.146-.274.278-.282.493-.391-.116-.626-.42-.861-.724-.011-.038 0-.081-.034-.112h0c.174-.228.176-.229.103-.502l-.106-.459c-.042-.258-.122-.307-.382-.254-.107.021-.227.055-.295-.06-.069-.108-.045-.224.039-.329a1.82 1.82 0 0 0 .284-.548h.061c.191.022.231.2.298.329.104.206.234.329.479.322.121.002.253.035.354.128"/><path fill="#01527d" d="M12.47 18.954c.211.245.414.498.708.658.051.026.086.079.128.116.099.24.276.447.3.719l.319 1.117c.032.115.107.302-.155.263-.13-.01-.25-.051-.359-.119.057-.013.132-.015.064-.104a3.47 3.47 0 0 0-.404-.469c-.094-.084-.137-.184-.172-.315-.068-.253-.216-.485-.346-.72-.048-.086-.154-.117-.255-.131-.151-.02-.209-.09-.156-.242.087-.258.134-.53.27-.772.018-.021.039-.021.058-.001"/><path fill="#015581" d="M13.77 21.827c.146-.019.133-.103.096-.211l-.27-.864c-.036-.109-.058-.205.01-.305.143-.018.274.029.41.055.109.021.178.079.236.163.178.261.314.558.607.724.056.029.05.102.062.158l.111.492c.016.122.092.193.166.271.036.039.065.078.001.117-.072-.027-.149-.052-.215-.09-.38-.228-.807-.344-1.214-.51"/><path fill="#01669b" d="M15.338 19.852c.022-.24.078-.479.007-.722-.036-.118-.011-.255.061-.368.056-.09.056-.187.053-.287.568.19 1.029.84 1.016 1.437l-.753.262c-.067.022-.132.038-.203.037-.038-.133-.169-.217-.181-.359"/><path fill="#015f91" d="M16.055 21.702l.567.001c.119 0 .16.054.123.171-.077.235-.167.47-.152.726-.313-.127-.653-.14-1.009-.207.143-.256.308-.474.471-.691"/><path fill="#016397" d="M8.289 6.528c-.085.2-.257.347-.359.537-.02.024-.04.024-.06 0-.014-.014-.024-.037-.04-.042-.3-.091-.528-.255-.63-.569-.038-.112-.154-.102-.254-.106-.117-.007-.254.047-.346-.037s.027-.2.019-.307c-.013-.158-.011-.316-.001-.476.008-.146-.065-.221-.198-.247-.048-.01-.099-.006-.147-.016-.237-.052-.233-.104-.322-.322-.147-.359-.056-.618.233-.84.008-.003.01-.017.015-.024.12.085.27.047.399.103.183.078.243.129.183.307-.076.221-.003.455-.091.674-.041.104.022.17.14.17l.477-.002c.127-.007.202.045.257.156l.26.502c.091.19.203.335.395.419.049.022.064.069.07.12"/><path fill="#016295" d="M7.871 7.066h.06c.104.163.13.352.179.534.06.228.063.229.298.244h.09c.182.019.224.074.172.25-.039.135-.083.265-.094.405-.013.171.032.28.192.292.297.02.411.198.526.441.119.252.206.487.128.761-.066-.111-.137-.209-.295-.18-.29.052-.438-.119-.541-.357-.075-.117-.058-.248-.062-.375-.004-.237-.08-.341-.31-.336-.298.009-.588-.057-.882-.067.002-.039-.008-.086.011-.115.102-.153.083-.316.049-.48-.037-.031-.021-.089-.06-.119v-.119l.069-.196c.052-.177.132-.327.307-.413.074-.037.129-.095.163-.17"/><path d="M6.138 3.959c.048.026.058.069.061.12-.05-.026-.06-.071-.061-.12m-.118-.3l.059.062-.059-.062m.059.181l.059.06-.059-.06" fill="#016397"/><path fill="#017ec0" d="M15.636 13.278c-.135.069-.14.176-.088.298l.209.482c.115.256.116.256-.073.455-.039.045-.072.092-.108.14-.099.039-.146-.045-.207-.091l-.048-.051c-.015-.014-.028-.031-.041-.048l-.021-.023c-.015-.013-.027-.029-.042-.044-.006-.008-.013-.017-.02-.022-.015-.016-.024-.032-.034-.05l-.005-.03c-.183-.237-.304-.491-.388-.789-.074-.266-.155-.593-.523-.661-.061-.011-.098-.069-.081-.14.075-.324.019-.653.036-.979.074.037.047.156.142.175.317.062.605.232.935.243.06.252.31.252.479.358.102.282.045.538-.122.777"/><path fill="#0186cb" d="M15.636 13.278l.12-.776a.53.53 0 0 1 .328.18c.204.211.457.324.747.357.045.074.153.086.179.18-.05.217-.166.404-.277.59-.06.101-.086.195-.082.308-.138-.054-.263-.113-.316-.272-.113-.335-.389-.474-.699-.567"/><path fill="#0172ad" d="M13.905 15.25c.222-.221.367-.488.478-.777.301.123.544-.002.776-.179h0c.018.022.04.04.06.06h0l.06.061h0l.061.061c.005.01.018.021.016.025-.166.338-.203.748-.547.989-.229.037-.461.091-.695.078-.193-.013-.34-.084-.209-.318"/><path fill="#016ba4" d="M13.905 15.25c.026.235.026.238.228.237.244 0 .479-.097.728-.06.285.161.385.438.447.735-.082.329-.15.64.051.974.147.239.17.547.197.834.014.14-.029.254-.158.324-.063-.027-.123-.057-.194-.06-.329-.017-.546-.183-.653-.493-.058-.17-.207-.309-.132-.521.031-.092-.122-.145-.155-.24-.068-.066-.081-.155-.074-.244.026-.374-.214-.639-.382-.932-.057-.101-.176-.117-.276-.153-.445-.208-.674-.569-.717-1.05-.011-.106-.011-.222.076-.309.156.066.321.047.479.025.33-.045.342-.047.408.273.043.223.049.447.127.66"/><path fill="#016295" d="M12.888 14.294v.119c-.034.498.169.874.593 1.136.024.014.045.04.064.061.095.119.021.222-.043.314-.104.151-.178.326-.331.44-.169.06-.351.063-.522.108-.188.052-.271-.032-.298-.207v-.178c-.017-.273-.036-.539-.311-.71-.127-.08-.255-.2-.17-.394a.21.21 0 0 0-.001-.146c-.083-.203-.036-.402.004-.604.23-.182.482-.268.775-.18.103.06.128.194.24.241"/><path fill="#01659a" d="M12.649 14.057c-.265.029-.516.123-.775.179-.154-.218-.367-.38-.544-.574-.079-.087-.179-.155-.232-.263-.001-.114.084-.176.155-.242.127-.124.25-.25.323-.414-.003.092.007.177.1.229.011.004.021.008.027.014a.84.84 0 0 0 .77.236l.226.638c.023.074-.023.132-.05.197"/><path d="M8.289 5.274c-.171.018-.326-.069-.496-.069-.106 0-.14-.104-.151-.191-.015-.107-.008-.218-.01-.326-.005-.268-.026-.299-.272-.387l-.168-.057c-.217-.077-.252-.127-.205-.345.052-.239.084-.484.166-.715.01.002.02.01.028.01.371.013.371.013.513.39.015.036.026.073.045.108.125.231.197.46-.084.639.135.129.296.155.439.215l.247.099c.11.041.11.104.079.209-.04.141-.152.26-.131.42m.538.298c.218.216.498.348.723.558.102.095.119.145.047.267-.123.209-.275.412-.292.67-.12-.15-.3-.207-.461-.29l-.494-.248c-.01-.274.129-.502.238-.738.032-.072.063-.138.061-.218l.178-.001m6.57 12.726c.127-.198.095-.416.039-.618-.07-.259-.067-.556-.295-.758-.021-.018-.041-.06-.033-.078.086-.227-.027-.5.17-.697.443-.194.73-.008.717.466-.019.582.221.956.756 1.182.12.05.236.099.32.205.041.074.067.151.061.238.021.052.011.106-.025.137-.312.249-.173.556-.104.847.039.164.162.239.337.217.167-.02.335-.038.501.017.256.229.405.542.604.815a2.31 2.31 0 0 1-.284.485c-.081.106-.078.188.004.288.1.121.181.258.276.385.197.262.198.262.004.515-.275.012-.482-.084-.572-.364-.012-.037-.04-.068-.055-.105-.084-.19-.211-.287-.435-.25-.134.021-.28.023-.373-.114-.005-.104-.063-.188-.108-.272a.99.99 0 0 1-.137-.507c.006-.198-.065-.369-.293-.416l-.264-.653a.93.93 0 0 0-.453-.546c-.109-.061-.199-.155-.298-.235-.025-.065-.062-.118-.06-.184" fill="#016fa9"/><path fill="#0174b1" d="M17.846 19.491c-.167.008-.336-.017-.504.019-.217.043-.409-.092-.426-.308-.009-.099-.01-.201-.053-.288-.094-.188-.045-.337.094-.475.063-.064.135-.117.173-.203.235.113.435.283.656.419l.12.239c.122.214.086.413-.06.597"/><path fill="#017bbb" d="M17.846 19.491c-.009-.202.098-.392.062-.597.046.013.104.053.137.037.231-.11.36.041.468.19.094.131.199.245.311.358.203.207.22.345.063.603-.036.06-.084.11-.084.185h-.358c-.199-.119-.313-.313-.431-.504l-.168-.272"/><path fill="#015480" d="M12.47 18.954h-.06v-.06l.06.06"/><path fill="#015e90" d="M7.334 7.962c.048.025.058.07.06.119-.05-.024-.059-.071-.06-.119"/><path fill="#015e8f" d="M12.351 16.266c.063.121.138.166.291.129.177-.045.358-.098.546-.068a.76.76 0 0 1 .239.717l-.18.479c-.207.004-.401-.086-.612-.065-.104.013-.148-.079-.188-.161a3.2 3.2 0 0 0-.334-.55c.098-.153.208-.297.238-.481"/><path fill="#0177b5" d="M17.071 17.998c-.271-.068-.51-.213-.77-.305-.087-.031-.129-.092-.125-.182.007-.123-.052-.211-.141-.278-.178-.136-.182-.314-.146-.509.009-.039.031-.073.036-.112a.37.37 0 0 0-.411-.466c-.079-.002-.159 0-.237 0-.121-.25-.246-.498-.418-.719.074-.166.205-.31.207-.514 0-.083.072-.158.14-.22.063-.063.134-.121.132-.224l.239.182c.173.211.329.438.532.621.076.065.145.144.162.24.047.248.2.365.44.392.104.186.062.389.056.584s.025.349.217.438c.041.021.071.071.113.092.161.076.172.201.135.349l-.161.631"/><path fill="#01659b" d="M13.427 17.042l-.238-.717c.03-.183.176-.3.26-.451.048-.085.113-.159.098-.266.181-.024.299.051.377.216.061.122.129.243.208.355.173.248.125.528.131.802-.278.046-.555.08-.836.061"/><g fill="#0177b5"><path d="M15.219 14.354l-.06-.06.06.06m.119.119l-.06-.06.06.06"/><path d="M15.278 14.413l-.061-.06.061.06"/></g></svg>