<?xml version="1.0" encoding="utf-8"?>
<!-- Generator: Adobe Illustrator 16.0.0, SVG Export Plug-In . SVG Version: 6.00 Build 0)  -->
<!DOCTYPE svg PUBLIC "-//W3C//DTD SVG 1.1//EN" "http://www.w3.org/Graphics/SVG/1.1/DTD/svg11.dtd">
<svg version="1.1" id="Layer_1" xmlns="http://www.w3.org/2000/svg" xmlns:xlink="http://www.w3.org/1999/xlink" x="0px" y="0px"
	 width="137.275px" height="23.76px" viewBox="0 0 137.275 23.76" enable-background="new 0 0 137.275 23.76" xml:space="preserve">
<g id="Layer_1_1_">
</g>
<g>
	<g>
		
			<linearGradient id="SVGID_1_" gradientUnits="userSpaceOnUse" x1="-4363.0098" y1="450.8008" x2="-4292.46" y2="441.6293" gradientTransform="matrix(1 0 0 1 4392 -438.0645)">
			<stop  offset="0" style="stop-color:#283339"/>
			<stop  offset="1" style="stop-color:#1D8DCC"/>
		</linearGradient>
		<path fill="url(#SVGID_1_)" d="M33.005,16.372c-0.626,0-1.204-0.116-1.734-0.353c-0.53-0.232-0.992-0.556-1.384-0.963
			c-0.392-0.406-0.694-0.891-0.914-1.449c-0.218-0.561-0.327-1.165-0.327-1.815c0-0.659,0.109-1.259,0.327-1.803
			c0.22-0.543,0.522-1.007,0.914-1.39s0.854-0.68,1.384-0.889c0.53-0.21,1.108-0.314,1.734-0.314h4.864v1.567h-4.864
			c-0.404,0-0.775,0.073-1.118,0.216c-0.341,0.145-0.636,0.345-0.883,0.6s-0.44,0.56-0.58,0.914c-0.14,0.354-0.21,0.746-0.21,1.173
			c0,0.42,0.07,0.812,0.21,1.173c0.14,0.362,0.333,0.673,0.58,0.932c0.248,0.26,0.542,0.465,0.883,0.611
			c0.343,0.148,0.714,0.223,1.118,0.223h3.839v-2.334h-4.049v-1.319h5.63v5.222L33.005,16.372L33.005,16.372z"/>
		
			<linearGradient id="SVGID_2_" gradientUnits="userSpaceOnUse" x1="-4362.8691" y1="451.8662" x2="-4292.3218" y2="442.6951" gradientTransform="matrix(1 0 0 1 4392 -438.0645)">
			<stop  offset="0" style="stop-color:#283339"/>
			<stop  offset="1" style="stop-color:#1D8DCC"/>
		</linearGradient>
		<path fill="url(#SVGID_2_)" d="M39.87,16.372V7.396h8.013v1.567h-6.458v5.841h6.471v1.566L39.87,16.372L39.87,16.372z
			 M42.573,12.471v-1.319h4.976v1.319H42.573L42.573,12.471z"/>
		
			<linearGradient id="SVGID_3_" gradientUnits="userSpaceOnUse" x1="-4362.707" y1="453.1426" x2="-4292.1465" y2="443.9697" gradientTransform="matrix(1 0 0 1 4392 -438.0645)">
			<stop  offset="0" style="stop-color:#283339"/>
			<stop  offset="1" style="stop-color:#1D8DCC"/>
		</linearGradient>
		<path fill="url(#SVGID_3_)" d="M50.696,9.805v6.567h-1.493V8.225c0-0.289,0.071-0.518,0.216-0.687s0.339-0.253,0.586-0.253
			c0.115,0,0.227,0.023,0.333,0.074c0.106,0.05,0.218,0.133,0.333,0.246l6.334,6.285V7.322h1.494v8.224
			c0,0.296-0.072,0.526-0.217,0.691c-0.145,0.164-0.331,0.247-0.563,0.247c-0.255,0-0.494-0.112-0.716-0.334L50.696,9.805z"/>
		
			<linearGradient id="SVGID_4_" gradientUnits="userSpaceOnUse" x1="-4362.5293" y1="454.4424" x2="-4291.9883" y2="445.2721" gradientTransform="matrix(1 0 0 1 4392 -438.0645)">
			<stop  offset="0" style="stop-color:#283339"/>
			<stop  offset="1" style="stop-color:#1D8DCC"/>
		</linearGradient>
		<path fill="url(#SVGID_4_)" d="M60.018,16.372V7.396h8.014v1.567h-6.457v5.841h6.47v1.566L60.018,16.372L60.018,16.372z
			 M62.722,12.471v-1.319H67.7v1.319H62.722L62.722,12.471z"/>
		
			<linearGradient id="SVGID_5_" gradientUnits="userSpaceOnUse" x1="-4362.3506" y1="455.835" x2="-4291.8027" y2="446.6637" gradientTransform="matrix(1 0 0 1 4392 -438.0645)">
			<stop  offset="0" style="stop-color:#283339"/>
			<stop  offset="1" style="stop-color:#1D8DCC"/>
		</linearGradient>
		<path fill="url(#SVGID_5_)" d="M78.416,16.372l-3.767-3.667l-3.729,3.667h-2.038l4.816-4.667l-4.47-4.309h2.159l3.421,3.32
			l3.37-3.32h2.037l-4.469,4.309l4.864,4.667H78.416z"/>
		
			<linearGradient id="SVGID_6_" gradientUnits="userSpaceOnUse" x1="-4362.1045" y1="457.7725" x2="-4291.5474" y2="448.6" gradientTransform="matrix(1 0 0 1 4392 -438.0645)">
			<stop  offset="0" style="stop-color:#283339"/>
			<stop  offset="1" style="stop-color:#1D8DCC"/>
		</linearGradient>
		<path fill="url(#SVGID_6_)" d="M85.368,16.372v-1.567h6.729c0.42,0,0.742-0.106,0.969-0.32c0.228-0.215,0.341-0.497,0.341-0.853
			c0-0.387-0.113-0.677-0.341-0.87c-0.227-0.193-0.55-0.291-0.969-0.291h-4.125c-0.42,0-0.8-0.063-1.143-0.19
			c-0.342-0.127-0.629-0.304-0.864-0.531c-0.233-0.226-0.415-0.495-0.543-0.808c-0.127-0.313-0.19-0.655-0.19-1.025
			c0-0.361,0.06-0.697,0.18-1.006c0.119-0.309,0.296-0.574,0.529-0.796c0.235-0.222,0.525-0.396,0.871-0.525
			c0.347-0.127,0.74-0.19,1.187-0.19h6.444v1.568h-6.444c-0.363,0-0.642,0.096-0.841,0.29c-0.196,0.193-0.297,0.464-0.297,0.81
			s0.103,0.613,0.304,0.803c0.202,0.189,0.476,0.284,0.821,0.284h4.111c0.913,0,1.605,0.214,2.079,0.642s0.711,1.079,0.711,1.95
			c0,0.38-0.058,0.729-0.173,1.051c-0.115,0.322-0.288,0.599-0.52,0.833c-0.23,0.234-0.521,0.418-0.871,0.551
			c-0.35,0.131-0.758,0.195-1.228,0.195h-6.728V16.372z"/>
		
			<linearGradient id="SVGID_7_" gradientUnits="userSpaceOnUse" x1="-4361.9854" y1="458.6582" x2="-4291.4321" y2="449.4863" gradientTransform="matrix(1 0 0 1 4392 -438.0645)">
			<stop  offset="0" style="stop-color:#283339"/>
			<stop  offset="1" style="stop-color:#1D8DCC"/>
		</linearGradient>
		<path fill="url(#SVGID_7_)" d="M98.938,13.879V12.36h3.604c0.551,0,0.981-0.155,1.29-0.472c0.309-0.311,0.462-0.723,0.462-1.233
			c0-0.519-0.153-0.931-0.462-1.234s-0.739-0.457-1.29-0.457h-4.755v7.408h-1.555V7.396h6.31c0.519,0,0.981,0.076,1.389,0.229
			s0.75,0.367,1.031,0.643c0.279,0.275,0.494,0.61,0.644,1.006c0.146,0.395,0.222,0.839,0.222,1.332
			c0,0.486-0.074,0.929-0.222,1.328c-0.148,0.398-0.363,0.744-0.644,1.03c-0.281,0.289-0.624,0.513-1.031,0.675
			c-0.407,0.159-0.87,0.239-1.389,0.239L98.938,13.879L98.938,13.879z"/>
		
			<linearGradient id="SVGID_8_" gradientUnits="userSpaceOnUse" x1="-4361.7188" y1="460.7578" x2="-4291.1611" y2="451.5852" gradientTransform="matrix(1 0 0 1 4392 -438.0645)">
			<stop  offset="0" style="stop-color:#283339"/>
			<stop  offset="1" style="stop-color:#1D8DCC"/>
		</linearGradient>
		<path fill="url(#SVGID_8_)" d="M115,16.372l-1.347-2.259h-4.245l0.739-1.272h2.754l-2-3.357l-4.074,6.889h-1.791l5.161-8.593
			c0.091-0.156,0.198-0.28,0.321-0.371c0.123-0.09,0.271-0.135,0.445-0.135c0.171,0,0.318,0.045,0.438,0.135
			c0.119,0.091,0.226,0.215,0.313,0.371l5.175,8.593H115z"/>
		
			<linearGradient id="SVGID_9_" gradientUnits="userSpaceOnUse" x1="-4361.5439" y1="461.9824" x2="-4290.9976" y2="452.8114" gradientTransform="matrix(1 0 0 1 4392 -438.0645)">
			<stop  offset="0" style="stop-color:#283339"/>
			<stop  offset="1" style="stop-color:#1D8DCC"/>
		</linearGradient>
		<path fill="url(#SVGID_9_)" d="M120.755,16.372c-0.626,0-1.203-0.116-1.734-0.353c-0.531-0.232-0.992-0.556-1.383-0.963
			c-0.392-0.406-0.695-0.891-0.915-1.449c-0.218-0.561-0.325-1.165-0.325-1.815c0-0.659,0.107-1.259,0.325-1.803
			c0.22-0.543,0.523-1.007,0.915-1.39c0.391-0.383,0.852-0.68,1.383-0.889c0.531-0.21,1.108-0.314,1.734-0.314h4.864v1.567h-4.864
			c-0.404,0-0.775,0.073-1.118,0.216c-0.342,0.145-0.635,0.345-0.883,0.6c-0.246,0.255-0.438,0.56-0.58,0.914
			c-0.14,0.354-0.209,0.746-0.209,1.173c0,0.42,0.069,0.812,0.209,1.173c0.142,0.362,0.334,0.673,0.58,0.932
			c0.248,0.26,0.541,0.465,0.883,0.611c0.343,0.148,0.714,0.223,1.118,0.223h4.864v1.567H120.755L120.755,16.372z"/>
		
			<linearGradient id="SVGID_10_" gradientUnits="userSpaceOnUse" x1="-4361.4268" y1="462.9912" x2="-4290.8701" y2="453.8188" gradientTransform="matrix(1 0 0 1 4392 -438.0645)">
			<stop  offset="0" style="stop-color:#283339"/>
			<stop  offset="1" style="stop-color:#1D8DCC"/>
		</linearGradient>
		<path fill="url(#SVGID_10_)" d="M126.891,16.372V7.396h8.014v1.567h-6.457v5.841h6.47v1.566L126.891,16.372L126.891,16.372z
			 M129.594,12.471v-1.319h4.977v1.319H129.594L129.594,12.471z"/>
	</g>
	<g>
		<path fill="#18A4ED" d="M21.55,5.93c-0.898,0.303-1.796,0.606-2.693,0.91c-0.074,0.023-0.152,0.04-0.229,0.062
			c-0.139-0.38-0.375-0.688-0.713-0.906c-0.172-0.108-0.219-0.243-0.159-0.429c0.048-0.151,0.101-0.303,0.137-0.458
			c0.038-0.168-0.03-0.224-0.189-0.185c-0.039,0.01-0.078,0.021-0.116,0.027c-0.526,0.089-0.718-0.072-0.716-0.604
			c0-0.091-0.007-0.181,0.01-0.269c0.052-0.248-0.036-0.421-0.255-0.546c-0.294-0.168-0.479-0.471-0.774-0.646
			c-0.141-0.084-0.109-0.265-0.116-0.412c-0.015-0.402-0.066-0.478-0.438-0.599c-0.09-0.028-0.186-0.063-0.189-0.163
			c-0.021-0.371-0.094-0.742-0.004-1.111c0.75,0.043,1.472,0.229,2.184,0.459c3.967,1.281,6.896,4.607,7.684,8.731
			c0.424,2.218,0.194,4.376-0.658,6.468c-0.018,0.045-0.046,0.086-0.069,0.127c-0.208-0.091-0.224-0.281-0.194-0.455
			c0.063-0.381-0.174-0.688-0.213-1.041c-0.003-0.027-0.021-0.062-0.046-0.073c-0.357-0.188-0.41-0.569-0.56-0.888
			c-0.073-0.153-0.156-0.267-0.344-0.285c-0.224-0.024-0.329-0.17-0.334-0.39c-0.006-0.237-0.074-0.471-0.066-0.711
			c0.004-0.136-0.053-0.25-0.131-0.358c-0.257-0.34-0.507-0.688-0.791-1.01c-0.11-0.128-0.234-0.209-0.407-0.212
			c-0.121-0.003-0.237-0.026-0.339-0.102c-0.163-0.163-0.19-0.388-0.258-0.591c-0.069-0.209-0.184-0.301-0.416-0.286
			c-0.429,0.026-0.625-0.11-0.75-0.515c-0.158-0.519-0.291-1.045-0.371-1.584c0.482-0.396,1.006-0.734,1.506-1.11
			c0.356-0.269,0.719-0.527,1.078-0.792c0.022-0.025,0.018-0.051-0.009-0.067C21.584,5.907,21.565,5.912,21.55,5.93"/>
		<path fill="#01466B" d="M6.194,13.889c0.02-0.011,0.039-0.019,0.059-0.026c0.176,0.157,0.38,0.188,0.609,0.163
			c0.41-0.045,0.796,0.47,0.649,0.854c-0.024,0.064-0.058,0.126-0.084,0.192c-0.071,0.177-0.006,0.266,0.181,0.274
			c0.05,0.002,0.1,0.004,0.148,0.008c0.68,0.061,0.712,0.097,0.645,0.779c-0.01,0.103-0.024,0.205,0.067,0.274
			c0.187,0.139,0.239,0.34,0.252,0.551c0.019,0.294,0.164,0.479,0.435,0.579c0.084,0.031,0.162,0.079,0.237,0.126
			c0.171,0.104,0.161,0.25,0.106,0.416c-0.118,0.354-0.063,0.456,0.294,0.558c0.172,0.047,0.351,0.06,0.512,0.15
			c0.185,0.104,0.285,0.238,0.272,0.454c-0.006,0.099,0.01,0.2-0.001,0.297c-0.027,0.255,0.068,0.381,0.331,0.431
			c0.332,0.064,0.371,0.146,0.298,0.482c-0.035,0.161-0.029,0.345-0.197,0.45c-0.124,0.048-0.233-0.005-0.345-0.044
			c-1.646-0.596-3.264-1.25-4.82-2.055c-0.521-0.27-1.017-0.58-1.499-0.914c-0.071-0.051-0.153-0.096-0.171-0.195
			C4.084,17.616,4,17.532,3.905,17.462c-0.394-0.297-0.561-0.844-0.365-1.364c0.109-0.293,0.287-0.541,0.501-0.767
			c0.422-0.44,0.925-0.774,1.45-1.078c0.205-0.12,0.4-0.255,0.63-0.325C6.149,13.918,6.173,13.903,6.194,13.889"/>
		<path fill="#01466B" d="M5.786,12.219c-0.266,0.172-0.532,0.342-0.796,0.519c-0.447,0.298-0.876,0.616-1.264,0.993
			c-0.381,0.371-0.71,0.776-0.898,1.326c-0.038-0.084-0.071-0.136-0.085-0.192c-0.598-2.315-0.504-4.603,0.3-6.856
			C3.055,7.971,3.08,7.939,3.098,7.904C3.274,7.907,3.307,8.051,3.325,8.17C3.381,8.555,3.72,8.725,3.922,8.997
			c0.071,0.097,0.199,0.06,0.31,0.049C4.583,9.012,4.703,9.13,4.628,9.471C4.585,9.67,4.595,9.789,4.802,9.903
			c0.262,0.142,0.331,0.739,0.155,0.996C4.86,11.041,4.67,11.17,4.794,11.367c0.119,0.188,0.326,0.1,0.495,0.077
			c0.608-0.075,0.675-0.013,0.569,0.584C5.846,12.096,5.826,12.159,5.786,12.219"/>
		<path fill="#01466B" d="M12.823,23.264c-0.801-0.021-1.576-0.192-2.336-0.425c-2.582-0.79-4.637-2.303-6.168-4.526
			c-0.038-0.057-0.07-0.118-0.104-0.18c-0.019-0.056,0.015-0.085,0.06-0.104c0.108-0.016,0.192,0.04,0.271,0.102
			c1.102,0.879,2.373,1.45,3.655,1.995c1.271,0.54,2.566,1.025,3.881,1.456c0.103,0.035,0.212,0.061,0.284,0.154
			c0.078,0.23-0.105,0.365-0.203,0.527c-0.223,0.373-0.18,0.496,0.227,0.662c0.168,0.069,0.424,0.024,0.457,0.303L12.823,23.264z"/>
		<path fill="#14A0E9" d="M15.102,0.604c0.076,0.322,0.053,0.646,0.059,0.974c0.004,0.211,0.007,0.211,0.212,0.231
			c0.237,0.022,0.417,0.195,0.442,0.433c0.009,0.089,0.01,0.181,0,0.269c-0.023,0.227,0.074,0.325,0.271,0.454
			c0.287,0.188,0.508,0.477,0.809,0.668c0.09,0.059,0.131,0.203,0.084,0.353c-0.066,0.221-0.021,0.453-0.024,0.68
			c-0.001,0.12,0.063,0.186,0.183,0.189c0.203,0.011,0.408,0.093,0.604-0.029c0.032-0.02,0.075-0.021,0.114-0.023
			c0.137-0.007,0.191,0.047,0.157,0.178c-0.056,0.219-0.122,0.438-0.196,0.652c-0.049,0.139-0.02,0.228,0.115,0.285
			C18.131,6,18.299,6.112,18.358,6.338c0.012,0.042,0.062,0.086,0.104,0.104c0.223,0.097,0.246,0.258,0.167,0.461
			c-0.37,0.159-0.751,0.289-1.139,0.399c-0.118-0.281-0.1-0.595-0.2-0.886c-0.067-0.19-0.163-0.301-0.364-0.321
			c-0.181-0.021-0.343-0.084-0.477-0.209c-0.199-0.205-0.418-0.389-0.645-0.563c-0.102-0.077-0.194-0.168-0.223-0.304
			c0.09-0.313,0.184-0.618,0.035-0.947c-0.079-0.173-0.173-0.309-0.359-0.368c-0.422-0.139-0.594-0.451-0.474-0.884
			c0.05-0.178,0.063-0.348,0.027-0.527c-0.027-0.143-0.078-0.264-0.22-0.332c-0.092-0.045-0.172-0.117-0.2-0.213
			c-0.165-0.556-0.608-0.773-1.104-0.938c-0.075-0.023-0.149-0.055-0.219-0.097c-0.049-0.044-0.092-0.089-0.061-0.163
			c0.462-0.084,0.928-0.053,1.391-0.023C14.633,0.539,14.876,0.518,15.102,0.604"/>
		<path fill="#014A72" d="M10.971,20.868c0.18-0.188,0.137-0.442,0.204-0.664c0.021-0.071-0.052-0.094-0.108-0.116
			c-0.11-0.046-0.23-0.049-0.347-0.074c-0.198-0.045-0.218-0.073-0.222-0.283c-0.002-0.139,0.005-0.279-0.002-0.418
			c-0.007-0.114,0.055-0.258-0.053-0.338c-0.141-0.103-0.281-0.23-0.474-0.224c-0.188,0.009-0.345-0.079-0.498-0.165
			c-0.167-0.092-0.179-0.146-0.118-0.34c0.018-0.057,0.037-0.113,0.061-0.168c0.104-0.258,0.111-0.287-0.135-0.384
			c-0.4-0.158-0.674-0.377-0.659-0.857c0.004-0.142-0.037-0.317-0.232-0.378c-0.105-0.029-0.124-0.137-0.092-0.221
			c0.065-0.176,0.024-0.356,0.06-0.528c0.027-0.144-0.05-0.178-0.146-0.194c-0.223-0.045-0.443-0.098-0.674-0.092
			c-0.227,0.008-0.333-0.142-0.208-0.32c0.223-0.316,0.136-0.568-0.065-0.849C7.165,14.12,7.104,14.023,6.914,14.1
			c-0.104,0.039-0.235,0.013-0.354,0.017c-0.176,0.005-0.281-0.076-0.306-0.254c0.399-0.235,0.82-0.429,1.259-0.583
			c0.535,0.124,0.728,0.553,0.891,1.006c0.019,0.057,0.018,0.127,0.056,0.168c0.248,0.256,0.358,0.53,0.187,0.879
			c-0.046,0.094,0.035,0.164,0.125,0.206c0.18,0.084,0.358,0.161,0.552,0.215c0.338,0.093,0.431,0.272,0.318,0.599
			c-0.043,0.129-0.047,0.229,0.067,0.315c0.166,0.127,0.248,0.308,0.304,0.5c0.048,0.162,0.132,0.271,0.321,0.302
			c0.251,0.041,0.378,0.231,0.464,0.457c0.035,0.211-0.029,0.411-0.057,0.618c-0.022,0.177,0.021,0.28,0.21,0.261
			c0.514-0.05,0.658,0.063,0.543,0.674c-0.044,0.232-0.006,0.449,0.16,0.664c0.201,0.258,0.237,0.602,0.297,0.924
			c0.015,0.078-0.029,0.131-0.106,0.154C11.522,21.18,11.2,21.143,10.971,20.868"/>
		<path fill="#109CE5" d="M23.709,17.477c-0.209,0.431-0.462,0.832-0.772,1.197c-0.121-0.035-0.154-0.146-0.21-0.238
			c-0.061-0.104-0.124-0.201-0.234-0.264c-0.372-0.205-0.539-0.529-0.49-0.945c0.021-0.179,0.058-0.354,0.084-0.53
			c0.049-0.336,0.042-0.347-0.287-0.31c-0.079,0.008-0.158,0.018-0.237,0.008c-0.397-0.047-0.645-0.396-0.557-0.779
			c0.011-0.048,0.023-0.098,0.036-0.145c0.104-0.418,0.103-0.416-0.282-0.574c-0.309-0.129-0.515-0.338-0.521-0.692
			c0.183-0.397-0.05-0.664-0.309-0.901c-0.166-0.148-0.262-0.283-0.151-0.506c0.069-0.139-0.029-0.221-0.125-0.295
			c-0.159-0.121-0.297-0.262-0.375-0.449c-0.057-0.14-0.108-0.28,0.013-0.416c0.199-0.076,0.411-0.067,0.616-0.099
			c0.214-0.032,0.35,0.06,0.348,0.293c-0.001,0.29,0.105,0.461,0.405,0.574c0.276,0.104,0.315,0.431,0.382,0.698
			c0.007,0.027-0.001,0.061-0.001,0.09c-0.019,0.584,0.028,0.634,0.604,0.6c0.174-0.01,0.256,0.073,0.304,0.223
			c0.077,0.25,0.042,0.494-0.054,0.729c-0.087,0.211-0.031,0.356,0.147,0.488c0.168,0.12,0.353,0.226,0.494,0.384
			c0.278,0.21,0.61,0.314,0.922,0.456c0.36,0.163,0.384,0.19,0.243,0.547c-0.098,0.243-0.187,0.479,0.018,0.714
			C23.748,17.369,23.731,17.43,23.709,17.477"/>
		<path fill="#139FE8" d="M22.507,15.668c-0.223-0.181-0.474-0.322-0.688-0.518c-0.079-0.074-0.101-0.139-0.068-0.234
			c0.041-0.122,0.076-0.246,0.123-0.365c0.053-0.136,0.047-0.275,0.027-0.412c-0.039-0.276-0.101-0.326-0.367-0.244
			c-0.258,0.082-0.407-0.101-0.592-0.196c-0.057-0.029-0.052-0.104-0.025-0.163c0.04-0.085,0.019-0.18,0.04-0.264
			c0.073-0.289-0.151-0.491-0.209-0.741c-0.015-0.062-0.084-0.072-0.146-0.087c-0.353-0.082-0.408-0.148-0.426-0.491
			c-0.018-0.374-0.047-0.401-0.422-0.312c-0.159,0.037-0.316,0.017-0.475,0.025c-0.129-0.049-0.146-0.178-0.198-0.279
			c-0.056-0.104-0.089-0.242-0.2-0.285c-0.29-0.112-0.348-0.34-0.357-0.612c-0.007-0.211-0.112-0.396-0.191-0.585
			c-0.048-0.19,0.029-0.354,0.13-0.502c0.196-0.292,0.18-0.565-0.022-0.844c-0.041-0.055-0.088-0.109-0.106-0.178
			c0.215-0.184,0.444-0.35,0.688-0.49c0.159,0.287,0.223,0.606,0.277,0.922c0.052,0.294,0.146,0.568,0.243,0.845
			c0.067,0.192,0.353,0.304,0.58,0.267c0.336-0.055,0.386-0.023,0.496,0.293c0.071,0.203,0.144,0.408,0.216,0.613
			c0.02,0.037,0.029,0.082,0.005,0.114c-0.163,0.224-0.06,0.421,0.034,0.639c0.123,0.287,0.248,0.499,0.622,0.521
			c0.311,0.021,0.391,0.382,0.181,0.648c-0.218,0.275-0.209,0.268,0.041,0.505c0.186,0.175,0.389,0.304,0.643,0.354
			c0.197,0.042,0.307,0.158,0.295,0.38c-0.02,0.438,0,0.876-0.01,1.313C22.64,15.438,22.671,15.59,22.507,15.668"/>
		<path fill="#0995DE" d="M12.351,0.61c0.016-0.015,0.03-0.015,0.048-0.005c0.164-0.018,0.114,0.102,0.102,0.178
			c-0.016,0.088-0.081,0.159-0.119,0.24c-0.141,0.298-0.047,0.503,0.273,0.582c0.104,0.026,0.216,0.037,0.307,0.105
			c0.082,0.064,0.123,0.156,0.146,0.253c0.073,0.28,0.188,0.509,0.504,0.603c0.173,0.05,0.229,0.238,0.25,0.41
			c0.052,0.388,0.213,0.714,0.408,1.059c0.217,0.386,0.469,0.725,0.747,1.055c0.028,0.064,0.044,0.137,0.036,0.203
			c-0.037,0.303,0.042,0.566,0.217,0.813c0.197,0.282,0.121,0.545-0.093,0.784c-0.105,0.047-0.196-0.008-0.272-0.066
			c-0.272-0.213-0.592-0.307-0.924-0.369c-0.194-0.113-0.326-0.324-0.564-0.374c-0.151-0.114-0.18-0.294-0.239-0.458
			c-0.014-0.042-0.024-0.086-0.032-0.129c-0.002-0.031,0-0.061,0.008-0.089c0.168-0.263,0.307-0.524,0.203-0.859
			c-0.043-0.141-0.093-0.221-0.234-0.267c-0.348-0.11-0.412-0.211-0.403-0.587c0.004-0.149-0.026-0.296-0.038-0.444
			c-0.015-0.173-0.117-0.268-0.256-0.371c-0.438-0.332-0.867-0.684-1.137-1.179c-0.084-0.153-0.214-0.224-0.353-0.304
			c-0.182-0.107-0.424-0.14-0.514-0.375c0.503-0.181,1.017-0.308,1.551-0.353C12.094,0.608,12.233,0.69,12.351,0.61"/>
		<path fill="#01527D" d="M3.926,6.167c0.092-0.218,0.218-0.413,0.369-0.594c0.17,0.004,0.169,0.134,0.178,0.25
			c0.035,0.473,0.377,0.771,0.852,0.752c0.157-0.007,0.311-0.069,0.471-0.037c0.22,0.103,0.371,0.251,0.345,0.519
			c-0.191,0.332-0.144,0.635,0.09,0.929c0.072,0.09,0.127,0.2,0.177,0.308c0.106,0.229,0.286,0.352,0.532,0.36
			C7.159,8.659,7.293,8.75,7.323,8.975C7.346,9.075,7.354,9.18,7.395,9.277c0.107,0.33,0.271,0.642,0.327,0.988
			c0.019,0.11,0.106,0.187,0.16,0.281c0.09,0.159,0.224,0.314,0.104,0.518c-0.206,0.127-0.42,0.236-0.649,0.315
			c-0.177-0.077-0.188-0.241-0.203-0.396c-0.016-0.177-0.067-0.31-0.272-0.324c-0.116-0.009-0.211-0.073-0.252-0.181
			c-0.119-0.314-0.351-0.463-0.676-0.49C5.877,9.983,5.822,9.952,5.772,9.92C5.647,9.837,5.577,9.709,5.569,9.57
			C5.551,9.119,5.352,8.76,5.031,8.456C4.959,8.292,5.006,8.127,5.042,7.964c0.021-0.095,0.064-0.204-0.04-0.271
			C4.632,7.457,4.438,7.01,3.983,6.869c-0.182-0.057-0.205-0.22-0.135-0.395C3.888,6.375,3.966,6.285,3.926,6.167"/>
		<path fill="#16A2EB" d="M22.507,15.668c0.052-0.089,0.061-0.186,0.063-0.287c0.008-0.494-0.025-0.992,0.018-1.486
			c0.01-0.114-0.063-0.161-0.148-0.188c-0.094-0.028-0.192-0.043-0.289-0.069c-0.065-0.018-0.143-0.028-0.192-0.068
			c-0.213-0.174-0.417-0.357-0.624-0.538c0.075-0.146,0.189-0.228,0.288-0.323c0.114-0.111,0.139-0.234,0.08-0.377
			c-0.058-0.137-0.173-0.184-0.313-0.184c-0.03-0.002-0.06,0-0.089-0.002c-0.271-0.006-0.264-0.008-0.365-0.266
			c-0.068-0.175-0.158-0.343-0.248-0.508c-0.069-0.125-0.1-0.229,0.029-0.338c0.057-0.05,0.081-0.134,0.121-0.203
			c0.125,0.023,0.246,0.08,0.378,0.061c0.158-0.024,0.265,0.062,0.358,0.168c0.324,0.375,0.617,0.772,0.912,1.168
			c0.039,0.056,0.08,0.129,0.075,0.189c-0.02,0.271,0.067,0.53,0.069,0.797c0.002,0.295,0.05,0.353,0.341,0.361
			c0.152,0.006,0.229,0.058,0.277,0.208c0.063,0.205,0.201,0.382,0.242,0.604c0.025,0.142,0.132,0.241,0.271,0.293
			c0.143,0.056,0.197,0.154,0.184,0.304c-0.008,0.079-0.004,0.161,0.043,0.229c0.14,0.208,0.176,0.437,0.135,0.679
			c-0.03,0.186,0.029,0.347,0.122,0.5c-0.134,0.384-0.31,0.748-0.533,1.086c-0.017-0.047-0.019-0.112-0.05-0.136
			c-0.223-0.163-0.199-0.357-0.092-0.571c0.043-0.09,0.074-0.184,0.108-0.276c0.076-0.196,0.072-0.229-0.137-0.304
			c-0.318-0.11-0.599-0.312-0.926-0.396C22.546,15.775,22.513,15.734,22.507,15.668"/>
		<path fill="#0995DE" d="M20.296,14.176c0.023,0.36,0.219,0.579,0.564,0.672c0.065,0.018,0.135,0.03,0.199,0.052
			c0.118,0.038,0.181,0.104,0.14,0.245c-0.06,0.207-0.093,0.424-0.155,0.631c-0.037,0.113,0,0.184,0.068,0.265
			c0.205,0.241,0.442,0.362,0.76,0.248c0.027-0.01,0.058-0.015,0.087-0.019c0.21-0.021,0.281,0.041,0.242,0.25
			c-0.048,0.252-0.076,0.507-0.127,0.757c-0.059,0.286,0.135,0.481,0.202,0.723c0.012,0.038,0.058,0.058,0.098,0.056
			c0.247-0.006,0.336,0.176,0.427,0.354c0.045,0.089,0.089,0.178,0.134,0.268c-0.188,0.301-0.406,0.577-0.666,0.821
			c-0.188-0.067-0.384-0.026-0.576-0.037c-0.027-0.015-0.043-0.037-0.047-0.067c0.064-0.324,0.209-0.619,0.327-0.922
			c0.061-0.16,0.08-0.285-0.157-0.235c-0.271,0.057-0.434-0.069-0.537-0.31c-0.092-0.207-0.248-0.38-0.319-0.601
			c-0.048-0.149-0.194-0.181-0.333-0.217c-0.167-0.04-0.364-0.038-0.445-0.243c-0.047-0.242-0.013-0.492-0.065-0.735
			c-0.032-0.146-0.093-0.248-0.229-0.319c-0.212-0.112-0.38-0.278-0.509-0.482c0.016-0.234,0.007-0.46-0.077-0.691
			c-0.1-0.278,0.078-0.483,0.279-0.658C19.829,14.01,20.081,14.029,20.296,14.176"/>
		<path fill="#0793DC" d="M19.581,13.995c0.001,0.089-0.061,0.144-0.111,0.203c-0.137,0.157-0.176,0.333-0.063,0.521
			c0.116,0.198,0.106,0.395-0.005,0.59c-0.194,0.142-0.348,0.045-0.455-0.111c-0.209-0.307-0.482-0.589-0.412-1.016
			c0.019-0.108-0.031-0.22-0.12-0.293c-0.169-0.14-0.243-0.334-0.317-0.528c-0.078-0.203-0.132-0.413-0.396-0.472
			c-0.113-0.023-0.152-0.157-0.166-0.265c-0.034-0.278-0.176-0.479-0.415-0.616c-0.201-0.293-0.433-0.553-0.753-0.732
			c-0.236-0.135-0.271-0.372-0.217-0.624c0.015-0.067,0.045-0.132,0.069-0.195c0.136-0.343,0.136-0.343-0.176-0.469
			c0.124-0.126,0.269-0.22,0.425-0.297c0.234,0.026,0.456,0.116,0.694,0.134c0.198,0.013,0.296,0.159,0.313,0.344
			c0.045,0.448,0.334,0.654,0.729,0.749c0.213,0.052,0.27,0.179,0.244,0.371c-0.012,0.079-0.016,0.161-0.042,0.233
			c-0.147,0.397,0.041,0.681,0.333,0.902c0.259,0.195,0.404,0.456,0.526,0.74c0.014,0.037,0.023,0.076,0.035,0.113
			c0.009,0.021,0.015,0.043,0.022,0.064c0.012,0.029,0.023,0.061,0.037,0.09c0.01,0.018,0.019,0.037,0.026,0.057
			c0.015,0.029,0.026,0.057,0.042,0.084c0.012,0.018,0.021,0.035,0.028,0.055c0.011,0.02,0.021,0.039,0.03,0.057
			c0.011,0.021,0.02,0.039,0.027,0.059c0.01,0.018,0.021,0.037,0.029,0.057c0.01,0.019,0.018,0.037,0.026,0.059
			c0.015,0.027,0.026,0.057,0.036,0.088C19.608,13.967,19.599,13.984,19.581,13.995"/>
		<path fill="#014F79" d="M10.737,17.879c-0.071-0.081-0.143-0.162-0.213-0.244c-0.068-0.078-0.151-0.142-0.261-0.105
			c-0.146,0.049-0.2-0.045-0.248-0.145c-0.038-0.08-0.071-0.164-0.094-0.25c-0.048-0.19-0.141-0.353-0.315-0.449
			c-0.144-0.077-0.123-0.174-0.065-0.299c0.159-0.35,0.067-0.533-0.324-0.586c-0.227-0.033-0.385-0.197-0.598-0.244
			c-0.078-0.017-0.099-0.094-0.083-0.17c0.007-0.037,0.02-0.074,0.037-0.11c0.121-0.263,0.146-0.494-0.133-0.691
			c-0.151-0.104-0.091-0.329-0.196-0.481c-0.068-0.098-0.126-0.215-0.154-0.348c-0.021-0.102-0.082-0.234-0.231-0.234
			c-0.176,0-0.264-0.114-0.346-0.241c0.324-0.175,0.664-0.312,1.016-0.42c0.011,0.247,0.157,0.405,0.334,0.562
			c0.199,0.176,0.412,0.346,0.482,0.627c0.034,0.135,0.162,0.161,0.284,0.184c0.16,0.027,0.288,0.111,0.327,0.271
			c0.091,0.376,0.275,0.648,0.688,0.706c0.125,0.12,0.229,0.254,0.276,0.426c0.031,0.163-0.058,0.281-0.158,0.397
			c-0.192,0.226-0.231,0.83-0.078,1.071c0.048,0.072,0.121,0.099,0.2,0.117c0.154,0.039,0.311,0.074,0.458,0.131
			c0.313,0.119,0.37,0.287,0.194,0.578c-0.046,0.075-0.096,0.15-0.174,0.2C11.112,18.15,10.895,18.09,10.737,17.879"/>
		<path fill="#0184C9" d="M21.375,20.395c-0.288,0.296-0.607,0.554-0.958,0.771c-0.136-0.069-0.215-0.203-0.334-0.292
			c-0.127-0.096-0.158-0.223-0.106-0.371c0.011-0.027,0.021-0.057,0.026-0.085c0.143-0.604,0.078-0.678-0.506-0.557
			c-0.048,0.01-0.098,0.02-0.146,0.026c-0.32,0.051-0.402-0.029-0.354-0.349c0.011-0.079,0.023-0.158,0.045-0.233
			c0.067-0.231,0.035-0.404-0.231-0.486c-0.182-0.059-0.246-0.219-0.259-0.398c-0.009-0.14-0.022-0.277-0.128-0.387
			c-0.023-0.02-0.044-0.039-0.066-0.059c-0.034-0.028-0.066-0.059-0.098-0.09c-0.232-0.195-0.177-0.437-0.113-0.685
			c0.086-0.322,0.082-0.327-0.224-0.392c-0.129-0.027-0.224-0.1-0.272-0.211c-0.143-0.328-0.399-0.5-0.737-0.582
			c-0.027-0.013-0.052-0.029-0.072-0.053s-0.034-0.051-0.042-0.081c0.084-0.298,0.28-0.521,0.488-0.739
			c0.327-0.09,0.609,0.028,0.886,0.184c0.36,0.186,0.542,0.46,0.483,0.879c-0.022,0.158,0.057,0.309,0.095,0.461
			c0.005,0.602,0.235,0.994,0.905,0.989c0.057-0.002,0.111,0.032,0.16,0.069c0.11,0.123,0.08,0.263,0.031,0.394
			c-0.087,0.235-0.078,0.442,0.125,0.619c0.044,0.038,0.088,0.09,0.098,0.146c0.125,0.649,0.742,0.856,1.133,1.269
			C21.27,20.225,21.405,20.247,21.375,20.395"/>
		<path fill="#017CBD" d="M7.987,2.094C8.222,1.918,8.483,1.786,8.758,1.68C8.975,1.74,8.993,1.94,9.058,2.105
			c0.009,0.152-0.061,0.287-0.114,0.423C8.78,2.959,8.789,2.971,9.237,2.986c0.088,0.002,0.177-0.001,0.264,0.021
			c0.33,0.123,0.395,0.396,0.398,0.702C9.793,3.901,9.782,4.089,9.862,4.303c0.072,0.185,0.158,0.291,0.375,0.305
			c0.301,0.019,0.354,0.135,0.235,0.414c-0.053,0.125-0.144,0.234-0.169,0.396c0.292,0.062,0.622-0.065,0.873,0.171
			c0.12,0.176,0.23,0.359,0.391,0.506c0.09,0.082,0.137,0.188,0.14,0.313c0.014,0.171-0.056,0.311-0.177,0.422
			c-0.141,0.129-0.256,0.277-0.365,0.432c-0.403,0.021-0.438,0.008-0.589-0.341c-0.116-0.265-0.32-0.452-0.532-0.629
			c-0.146-0.123-0.2-0.245-0.15-0.438c0.088-0.336-0.063-0.575-0.399-0.67C9.388,5.15,9.28,5.139,9.198,5.055
			c-0.135-0.152-0.191-0.349-0.26-0.529c-0.08-0.215-0.155-0.424-0.324-0.592c-0.113-0.111-0.102-0.271-0.11-0.42
			c-0.009-0.152-0.048-0.287-0.19-0.381C7.963,2.901,7.84,2.495,7.987,2.094"/>
		<path fill="#014A71" d="M5.063,8.44C5.386,8.673,5.61,8.956,5.608,9.387c-0.002,0.17,0.053,0.347,0.17,0.486
			c0.021,0.021,0.054,0.051,0.049,0.072c-0.106,0.468,0.191,0.877,0.184,1.33c-0.005,0.267,0.207,0.3,0.405,0.34
			c0.092,0.02,0.228-0.061,0.26,0.105l-0.005,0.004c-0.029,0.035-0.084,0.022-0.113,0.061l-0.003,0.001
			c-0.03,0.033-0.087,0.021-0.114,0.062H6.438c-0.033,0.03-0.092,0.021-0.115,0.064c-0.167,0.126-0.346,0.227-0.536,0.307
			c-0.002-0.16-0.013-0.313,0.032-0.474c0.061-0.213,0.012-0.255-0.223-0.259c-0.208-0.003-0.408,0.068-0.619,0.07
			c-0.125,0.002-0.209-0.008-0.268-0.119c-0.057-0.108-0.104-0.219-0.01-0.334c0.024-0.029,0.037-0.073,0.066-0.099
			c0.23-0.187,0.24-0.421,0.182-0.688C4.903,10.111,4.86,9.93,4.614,9.891C4.492,9.869,4.448,9.807,4.499,9.678
			C4.538,9.576,4.563,9.469,4.58,9.361c0.028-0.193-0.074-0.319-0.252-0.253c-0.343,0.131-0.52-0.027-0.669-0.298
			C3.632,8.762,3.586,8.7,3.537,8.684c-0.21-0.067-0.224-0.248-0.268-0.418C3.235,8.135,3.237,7.984,3.097,7.902
			c0.067-0.254,0.168-0.492,0.3-0.721C3.427,7.15,3.413,7.098,3.451,7.07V7.066c0.196,0.07,0.265,0.271,0.405,0.402
			c0.258,0.232,0.58,0.416,0.666,0.801C4.549,8.387,4.666,8.38,4.77,8.371C4.875,8.36,4.991,8.314,5.063,8.44"/>
		<path fill="#0490D9" d="M10.423,1.02c0.217,0.162,0.466,0.268,0.707,0.385c0.113,0.057,0.201,0.117,0.225,0.255
			c0.038,0.223,0.196,0.364,0.367,0.487c0.172,0.121,0.328,0.256,0.426,0.447c0.08,0.159,0.248,0.195,0.39,0.256
			c0.112,0.05,0.174,0.104,0.188,0.229c0.029,0.231,0.106,0.456,0.059,0.698c-0.043,0.211,0.094,0.377,0.313,0.421
			c0.068,0.015,0.134,0.035,0.202,0.05c0.094,0.02,0.131,0.079,0.126,0.173c-0.008,0.14,0.022,0.273,0.054,0.409
			c0.025,0.118,0.01,0.232-0.086,0.332c-0.08,0.086-0.139,0.191-0.207,0.291c-0.194,0.083-0.367-0.025-0.488-0.13
			c-0.217-0.185-0.443-0.365-0.619-0.597c-0.031-0.146,0.037-0.273,0.081-0.402c0.052-0.156,0.023-0.271-0.128-0.352
			c-0.109-0.055-0.198-0.129-0.236-0.252c-0.102-0.32-0.297-0.514-0.66-0.469c-0.058,0.008-0.117-0.013-0.171-0.043
			c-0.138-0.105-0.12-0.263-0.128-0.41c-0.01-0.209-0.084-0.369-0.261-0.505c-0.253-0.192-0.482-0.424-0.517-0.768
			c-0.015-0.138-0.192-0.181-0.162-0.33C10.063,1.109,10.237,1.049,10.423,1.02"/>
		<path fill="#015B8B" d="M16.591,22.951c-0.111,0.059-0.23,0.086-0.357,0.063c-0.012-0.002-0.024-0.004-0.037-0.004
			c-0.084-0.029-0.155-0.084-0.238-0.119c-0.061-0.024-0.122-0.047-0.184-0.069c-0.191-0.134-0.436-0.185-0.59-0.376
			c-0.053-0.116-0.178-0.197-0.199-0.326c-0.069-0.421-0.293-0.743-0.551-1.078c-0.231-0.302-0.473-0.509-0.839-0.576
			c-0.13-0.231-0.252-0.469-0.343-0.723c-0.025-0.221,0.113-0.364,0.244-0.508c0.109-0.122,0.216-0.25,0.343-0.356
			c0.243-0.018,0.45,0.071,0.606,0.249c0.205,0.233,0.426,0.434,0.729,0.525c0.088,0.025,0.153,0.089,0.199,0.169
			c0.069,0.128,0.166,0.244,0.201,0.389c0.126,0.442,0.204,0.901,0.456,1.3c0.035,0.061,0.063,0.123,0.062,0.195
			c-0.028,0.151-0.144,0.253-0.222,0.374c-0.163,0.253-0.167,0.252,0.14,0.308c0.125,0.021,0.251,0.032,0.375,0.069
			c0.104,0.031,0.208,0.062,0.255,0.177C16.676,22.747,16.677,22.857,16.591,22.951"/>
		<path fill="#0C98E1" d="M19.221,13.278c-0.056-0.261-0.188-0.511-0.372-0.66c-0.161-0.129-0.276-0.298-0.439-0.419
			c-0.147-0.111-0.167-0.262-0.132-0.428c0.032-0.162,0.071-0.325,0.1-0.489c0.033-0.19,0.001-0.228-0.189-0.277
			c-0.205-0.052-0.38-0.168-0.563-0.265c-0.071-0.037-0.118-0.102-0.134-0.188c-0.021-0.117-0.049-0.23-0.078-0.346
			c-0.07-0.275-0.124-0.334-0.398-0.329c-0.213,0.005-0.386-0.062-0.546-0.188c0.327-0.258,0.667-0.496,1.022-0.713
			c0.203-0.002,0.197,0.172,0.226,0.291c0.056,0.234,0.16,0.396,0.424,0.412c0.12,0.008,0.19,0.095,0.245,0.192
			c0.174,0.261,0.244,0.551,0.239,0.86c-0.001,0.084,0.015,0.178,0.103,0.195c0.331,0.066,0.394,0.35,0.497,0.602
			c0.021,0.045,0.039,0.09,0.059,0.136c-0.027,0.332,0.139,0.565,0.385,0.757c0.047,0.037,0.103,0.063,0.144,0.105
			c0.077,0.082,0.114,0.158,0.045,0.285c-0.116,0.22-0.103,0.229,0.105,0.399c0.134,0.109,0.222,0.253,0.316,0.392
			c0.128,0.185,0.175,0.375,0.019,0.569c-0.248-0.021-0.495-0.052-0.716-0.18v-0.06c-0.022-0.02-0.037-0.043-0.061-0.061v-0.061
			c-0.021-0.02-0.037-0.043-0.061-0.06v-0.062c-0.021-0.019-0.037-0.042-0.061-0.059v-0.062c-0.021-0.019-0.036-0.042-0.06-0.06
			v-0.061c-0.022-0.018-0.037-0.042-0.06-0.061v-0.06C19.26,13.32,19.244,13.296,19.221,13.278"/>
		<path fill="#0189D0" d="M12.112,4.735c0.203,0.122,0.38,0.271,0.53,0.456c0.138,0.169,0.356,0.188,0.543,0.262
			c0.001,0.02,0.001,0.038,0.001,0.061c0.021,0.018,0.037,0.041,0.061,0.06c0.031,0.169,0.098,0.325,0.18,0.478
			c0.024,0.28-0.136,0.508-0.226,0.754c-0.068,0.19-0.097,0.33,0.141,0.426c0.213,0.085,0.25,0.317,0.325,0.511
			c0.075,0.19,0.143,0.349,0.402,0.362c0.154,0.007,0.328,0.107,0.254,0.341c-0.188,0.104-0.392,0.176-0.601,0.229
			c-0.092-0.317-0.34-0.432-0.634-0.489C12.78,8.12,12.636,7.957,12.61,7.614c-0.028-0.401-0.354-0.644-0.677-0.841
			c-0.147-0.092-0.286-0.17-0.301-0.363c0.022-0.148-0.077-0.234-0.173-0.319c-0.145-0.126-0.254-0.27-0.305-0.456
			c-0.07-0.355,0.148-0.61,0.305-0.889C11.677,4.639,11.893,4.598,12.112,4.735"/>
		<path fill="#015E90" d="M6.079,7.066C6.11,6.824,5.944,6.707,5.78,6.588C5.577,6.4,5.567,6.15,5.584,5.902
			C5.597,5.684,5.53,5.533,5.335,5.414C5.116,5.278,4.969,5.061,4.821,4.852c0.094-0.16,0.207-0.303,0.35-0.422
			c0.03-0.014,0.056-0.03,0.063-0.065L5.227,4.369c0.04-0.01,0.062-0.037,0.063-0.077c0.001-0.021,0.011-0.034,0.032-0.039
			c0.005-0.021,0.018-0.034,0.039-0.04l0.013-0.015c0.009-0.021,0.024-0.039,0.047-0.049l0.01-0.011
			C5.442,4.117,5.46,4.1,5.481,4.086l0.006-0.008C5.503,4.057,5.52,4.039,5.54,4.023l0.006-0.008
			c0.016-0.02,0.034-0.037,0.053-0.054l0.006-0.006c0.017-0.021,0.034-0.037,0.054-0.055l0.004-0.005
			c0.018-0.021,0.036-0.039,0.054-0.058L5.72,3.834c0.019-0.018,0.037-0.035,0.058-0.053l0.005-0.005
			C5.8,3.756,5.817,3.739,5.837,3.723l0.006-0.008c0.016-0.019,0.034-0.037,0.055-0.053l0.006-0.005
			C5.92,3.639,5.94,3.63,5.965,3.627c0.024-0.004,0.047,0.001,0.068,0.014c0.03,0.02,0.054,0.045,0.071,0.074
			C6.12,3.746,6.13,3.78,6.139,3.814c0.012,0.031,0.024,0.063,0.037,0.097c0.01,0.024,0.018,0.047,0.024,0.071
			C6.212,4.021,6.22,4.059,6.221,4.1C6.219,4.127,6.21,4.155,6.198,4.18C6.043,4.364,5.901,4.53,5.999,4.816
			c0.074,0.211,0.152,0.353,0.386,0.385C6.614,5.233,6.7,5.382,6.69,5.602c-0.002,0.09,0.016,0.184,0,0.269
			c-0.055,0.279,0.015,0.44,0.336,0.413c0.104-0.008,0.199,0.059,0.242,0.15c0.114,0.252,0.309,0.408,0.556,0.511
			C7.86,6.959,7.882,6.998,7.897,7.036c0.004,0.039,0.011,0.087-0.021,0.11C7.632,7.333,7.51,7.61,7.343,7.854
			C7.19,7.873,7.112,7.756,7.03,7.668C6.765,7.385,6.395,7.27,6.079,7.066"/>
		<path fill="#0187CE" d="M9.897,1.197c0.147,0.111,0.233,0.23,0.264,0.443c0.037,0.258,0.25,0.478,0.475,0.605
			c0.23,0.132,0.262,0.319,0.281,0.533c0.012,0.136-0.018,0.275,0.063,0.402c-0.05,0.272,0.049,0.455,0.289,0.609
			c0.301,0.192,0.353,0.537,0.196,0.95c-0.29-0.021-0.544-0.156-0.809-0.257c-0.134-0.051-0.179-0.184-0.197-0.312
			c-0.032-0.223-0.14-0.334-0.373-0.321c-0.1,0.002-0.198-0.024-0.243-0.135C9.815,3.447,9.766,3.19,9.483,3.061
			C9.389,2.958,9.379,2.825,9.377,2.705C9.374,2.423,9.26,2.225,9.006,2.104C8.923,1.962,8.84,1.819,8.757,1.678
			c0.303-0.181,0.62-0.319,0.958-0.416c0.037-0.026,0.09-0.016,0.124-0.048C9.858,1.21,9.878,1.204,9.897,1.197"/>
		<path fill="#008CD4" d="M16.043,9.987c0.1,0.011,0.192-0.007,0.29-0.036c0.105-0.032,0.156,0.029,0.119,0.131
			c-0.059,0.156-0.125,0.313-0.194,0.463c-0.12,0.268-0.089,0.587,0.245,0.742c0.303,0.143,0.501,0.374,0.629,0.677
			c-0.166,0.339-0.113,0.73-0.271,1.07c-0.225,0.101-0.411,0.007-0.595-0.116c-0.177-0.117-0.316-0.291-0.532-0.353
			c-0.211-0.097-0.459-0.145-0.516-0.427c-0.013-0.449-0.058-0.887-0.389-1.235c-0.034-0.036-0.039-0.091-0.036-0.142
			c0.326-0.127,0.586-0.357,0.876-0.539C15.795,10.145,15.903,10.042,16.043,9.987"/>
		<path fill="#0177B5" d="M12.463,11.479c0.369-0.148,0.75-0.268,1.139-0.355c0.035-0.021,0.095-0.035,0.105-0.006
			c0.095,0.283,0.409,0.363,0.551,0.604c0.047,0.265,0.021,0.531,0.019,0.799c0,0.11-0.016,0.226,0.105,0.285
			c0.203,0.099,0.313,0.275,0.382,0.473c0.119,0.344,0.261,0.677,0.41,1.01c-0.218,0.311-0.415,0.365-0.793,0.227
			c-0.233-0.295-0.634-0.443-0.725-0.867c-0.039-0.178-0.085-0.349,0.008-0.518c0.085-0.154,0.03-0.256-0.099-0.354
			c-0.138-0.103-0.282-0.178-0.45-0.219c-0.167-0.041-0.307-0.143-0.29-0.324C12.852,11.9,12.723,11.661,12.463,11.479"/>
		<path fill="#016FA8" d="M12.463,11.479c0.376,0.134,0.424,0.197,0.426,0.57c0.001,0.36,0.003,0.355,0.382,0.458
			c0.215,0.061,0.363,0.232,0.535,0.361c0.063,0.047,0.039,0.129-0.011,0.188c-0.155,0.181-0.161,0.377-0.062,0.582
			c0.088,0.179,0.107,0.398,0.349,0.482c0.155,0.052,0.237,0.203,0.301,0.352c0.026,0.277-0.229,0.688-0.489,0.791
			c-0.181-0.141-0.138-0.359-0.176-0.545c-0.049-0.238-0.121-0.383-0.407-0.317c-0.139,0.032-0.295,0.024-0.435-0.039
			c-0.118-0.074-0.215-0.166-0.264-0.302c0.021-0.301-0.154-0.561-0.178-0.852c0-0.101,0.037-0.193,0.059-0.289
			c0.029-0.141-0.012-0.242-0.133-0.326c-0.479-0.332-0.478-0.332-0.297-0.886c0.013-0.037,0.034-0.071,0.037-0.11
			C12.212,11.528,12.333,11.49,12.463,11.479"/>
		<path fill="#0D99E2" d="M15.159,6.887c0.014-0.047,0.016-0.104,0.043-0.141c0.158-0.212,0.154-0.431-0.012-0.623
			c-0.228-0.263-0.228-0.564-0.211-0.88c0.002-0.05,0-0.101,0-0.147c0.222-0.201,0.455-0.222,0.657-0.063
			c0.058,0.109,0.146,0.193,0.24,0.26c0.22,0.15,0.411,0.329,0.596,0.518c0.12,0.179,0.073,0.359,0.017,0.541
			c-0.051,0.16-0.099,0.317-0.102,0.49c-0.005,0.228,0.094,0.326,0.318,0.32c0.107-0.005,0.218-0.007,0.324,0.01
			c0.117,0.021,0.242,0.038,0.233,0.203L17.26,7.373c-0.041,0.02-0.093,0.016-0.128,0.05L17.13,7.426
			c-0.047,0.051-0.131,0.002-0.176,0.062l0,0c-0.051,0.05-0.135-0.002-0.18,0.063l0.002-0.003c-0.052,0.048-0.138-0.005-0.182,0.064
			l0.004-0.003c-0.04,0.023-0.091,0.018-0.126,0.052l-0.017,0.013l-0.021-0.003c-0.046,0.021-0.102,0.013-0.141,0.054
			c-0.227,0.115-0.465,0.196-0.712,0.259c-0.106-0.097-0.066-0.218-0.045-0.329c0.03-0.178-0.023-0.295-0.188-0.385
			C15.212,7.192,15.04,7.105,15.159,6.887"/>
		<path fill="#0173AF" d="M7.987,2.094C7.975,2.331,8.08,2.559,8.052,2.799C8.038,2.926,8.14,2.979,8.233,3
			c0.306,0.076,0.369,0.297,0.353,0.563C8.576,3.734,8.622,3.87,8.757,3.979c0.118,0.098,0.169,0.219,0.207,0.375
			C9.02,4.588,9.149,4.809,9.246,5.034c0.011,0.304-0.239,0.415-0.42,0.576C8.767,5.632,8.708,5.637,8.647,5.625
			c-0.17-0.07-0.305-0.185-0.4-0.341c-0.027-0.09-0.01-0.179,0.031-0.258c0.121-0.226,0.048-0.351-0.188-0.409
			c-0.115-0.031-0.229-0.071-0.332-0.13c-0.107-0.06-0.159-0.122-0.096-0.261C7.854,3.805,7.606,3.33,7.158,3.234
			c-0.125-0.106-0.255-0.209-0.347-0.35C7.172,2.576,7.561,2.309,7.987,2.094"/>
		<path fill="#015784" d="M10.618,15.25c-0.055-0.02-0.113-0.06-0.166-0.055c-0.256,0.025-0.385-0.1-0.445-0.332
			c-0.012-0.049-0.037-0.092-0.049-0.139c-0.064-0.259-0.164-0.471-0.491-0.438c-0.104,0.012-0.165-0.079-0.184-0.164
			c-0.074-0.358-0.355-0.565-0.609-0.769c-0.196-0.154-0.233-0.289-0.146-0.496c0.307-0.148,0.621-0.273,0.951-0.361
			c0.077-0.046,0.146-0.018,0.166,0.057c0.092,0.395,0.413,0.482,0.741,0.567c0.114,0.073,0.205,0.162,0.224,0.304
			c-0.102,0.338-0.084,0.646,0.086,0.977C10.835,14.665,10.804,14.98,10.618,15.25"/>
		<path fill="#0169A0" d="M8.289,5.274c0.119,0.099,0.239,0.198,0.358,0.299c0.062,0.069,0.056,0.147,0.019,0.219
			c-0.123,0.237-0.183,0.499-0.3,0.735c-0.027,0.02-0.059,0.023-0.09,0.017C7.942,6.398,7.76,6.113,7.631,5.799
			c-0.118-0.285-0.292-0.41-0.612-0.392C6.633,5.43,6.6,5.37,6.643,4.973c0.006-0.059,0.008-0.117,0.014-0.178
			c0.031-0.431,0.031-0.429-0.359-0.611C6.251,4.163,6.218,4.126,6.199,4.08C6.164,4.048,6.177,3.991,6.138,3.96
			c0-0.021-0.001-0.04-0.001-0.06C6.117,3.881,6.102,3.857,6.079,3.84C6.078,3.801,6.078,3.76,6.078,3.721
			C6.057,3.701,6.04,3.68,6.018,3.659C5.995,3.646,5.977,3.626,5.966,3.602c0.253-0.272,0.535-0.513,0.844-0.719
			c0.168,0.037,0.25,0.174,0.344,0.299C7.248,3.375,7.133,3.553,7.098,3.73c-0.048,0.258-0.013,0.418,0.271,0.49
			c0.226,0.057,0.358,0.226,0.338,0.465C7.684,4.986,7.785,5.162,8.106,5.178C8.177,5.182,8.237,5.225,8.289,5.274"/>
		<path fill="#01669C" d="M8.289,6.528h0.061c0.396,0.063,0.738,0.229,1.009,0.532c0.051,0.102,0.08,0.207,0.08,0.319
			C9.432,7.617,9.311,7.837,9.356,8.085c0.039,0.216,0.035,0.435,0.277,0.55C9.729,8.68,9.737,8.798,9.737,8.9
			C9.739,9,9.727,9.1,9.698,9.193C9.62,9.46,9.692,9.626,9.97,9.714c0.148,0.048,0.347,0.114,0.235,0.356
			c-0.251,0.135-0.514,0.248-0.784,0.338c-0.084-0.135-0.067-0.288-0.076-0.438C9.444,9.63,9.263,9.357,9.123,9.075
			C9.058,8.948,8.934,8.911,8.808,8.874C8.51,8.785,8.457,8.696,8.508,8.398c0.015-0.077,0.032-0.155,0.056-0.23
			C8.608,8.024,8.571,7.926,8.41,7.923c-0.265-0.005-0.359-0.171-0.4-0.396C7.983,7.381,7.912,7.245,7.903,7.096
			C7.938,6.846,8.091,6.67,8.289,6.528"/>
		<path fill="#0180C3" d="M11.634,6.407c0.07,0.137,0.176,0.228,0.319,0.282c0.179,0.068,0.331,0.176,0.421,0.354
			c0.021,0.043,0.057,0.085,0.098,0.111c0.214,0.134,0.24,0.34,0.239,0.564c-0.002,0.25,0.005,0.25,0.242,0.332
			c0.131,0.047,0.26,0.094,0.392,0.133c0.346,0.101,0.354,0.107,0.379,0.486c-0.312,0.141-0.626,0.271-0.955,0.365
			c-0.06-0.104-0.082-0.22-0.142-0.323c-0.208-0.354-0.226-0.377-0.629-0.295c-0.25,0.052-0.374-0.034-0.413-0.274
			c-0.016-0.2-0.089-0.371-0.223-0.529c-0.09-0.104-0.237-0.191-0.207-0.369c-0.021-0.218,0.166-0.302,0.283-0.428
			C11.551,6.697,11.67,6.594,11.634,6.407"/>
		<path fill="#008CD5" d="M21.375,20.395c-0.381-0.258-0.657-0.649-1.081-0.852c-0.07-0.033-0.1-0.088-0.121-0.156
			c-0.092-0.28-0.169-0.564-0.411-0.772c-0.114-0.101-0.071-0.259-0.024-0.392c0.052-0.149,0.101-0.301,0.082-0.463
			c-0.052-0.08-0.062-0.148,0.043-0.191c0.111,0.242,0.319,0.313,0.566,0.349c0.381,0.056,0.665,0.343,0.727,0.718
			c0.039,0.229,0.119,0.416,0.32,0.543c0.094,0.061,0.164,0.146,0.196,0.256l0,0c0.234,0.184,0.14,0.401,0.068,0.619
			C21.637,20.188,21.516,20.303,21.375,20.395"/>
		<path fill="#016398" d="M16.591,22.951c0.001-0.117,0.002-0.234,0.002-0.354c-0.126-0.181-0.044-0.362,0.01-0.535
			c0.066-0.213,0-0.291-0.215-0.28c-0.115,0.005-0.238,0.013-0.332-0.08c-0.045-0.076-0.088-0.153-0.135-0.228
			c-0.116-0.185-0.388-1.035-0.404-1.267c0.297-0.188,0.631-0.272,0.963-0.36c0.207,0.027,0.328,0.17,0.343,0.352
			c0.021,0.311,0.161,0.58,0.254,0.865c0.014,0.101,0.019,0.207-0.033,0.291c-0.135,0.224-0.053,0.393,0.103,0.56
			c0.154,0.169,0.295,0.343,0.338,0.583c0.023,0.124,0.002,0.186-0.111,0.221C17.123,22.835,16.862,22.908,16.591,22.951"/>
		<path fill="#017FC2" d="M18.385,17.939c0.207,0.033,0.245,0.195,0.234,0.356c-0.021,0.285,0.083,0.46,0.371,0.513
			c0.151,0.024,0.192,0.125,0.17,0.259c-0.03,0.176-0.068,0.349-0.104,0.521c-0.044,0.228,0.006,0.277,0.224,0.231
			c0.269-0.057,0.538-0.116,0.84-0.184c-0.03,0.33,0.067,0.638-0.09,0.93c-0.061,0.111-0.003,0.179,0.092,0.244
			c0.128,0.09,0.271,0.175,0.294,0.354c-0.256,0.216-0.532,0.401-0.834,0.546c-0.069-0.172-0.021-0.351-0.016-0.523
			c0.007-0.238-0.075-0.394-0.299-0.483c-0.127-0.051-0.251-0.112-0.358-0.201c-0.068-0.063-0.127-0.131-0.15-0.223
			c0.008-0.038-0.021,0.004-0.001-0.029c0.352-0.548-0.109-0.827-0.383-1.169c-0.131-0.164-0.352-0.021-0.49-0.15
			c-0.076-0.074-0.125-0.164-0.145-0.269C17.833,18.311,18.108,18.124,18.385,17.939"/>
		<path fill="#015A8A" d="M9.423,9.993c-0.031,0.139,0.064,0.276,0,0.416c-0.472,0.233-0.948,0.455-1.436,0.655
			c-0.02-0.221-0.084-0.42-0.25-0.579c-0.039-0.04-0.094-0.095-0.095-0.144c-0.005-0.387-0.243-0.701-0.31-1.065
			C7.406,9.234,7.487,9.24,7.558,9.264c0.327,0.111,0.675,0.082,1.009,0.145c0.191,0.186,0.381,0.367,0.685,0.347
			C9.405,9.743,9.374,9.908,9.423,9.993"/>
		<path fill="#0171AC" d="M11.694,9.458c-0.289,0.142-0.586,0.271-0.896,0.363c-0.021-0.23-0.114-0.408-0.327-0.521
			c-0.087-0.046-0.174-0.125-0.187-0.224c-0.06-0.485-0.399-0.854-0.524-1.312C9.737,7.678,9.647,7.588,9.76,7.498
			c0.136-0.063,0.284-0.084,0.429-0.113c0.342-0.074,0.493,0.036,0.563,0.381c0.04,0.201-0.075,0.451,0.094,0.595
			c0.15,0.127,0.383,0.03,0.577,0.063c0.09,0.013,0.174,0.037,0.233,0.113c0.098,0.231,0.063,0.488,0.143,0.726
			C11.826,9.346,11.764,9.41,11.694,9.458"/>
		<path fill="#018DD6" d="M14.324,8.442c-0.116-0.269-0.169-0.314-0.403-0.272c-0.12,0.021-0.168-0.023-0.205-0.113
			c-0.061-0.146-0.119-0.293-0.174-0.44c-0.067-0.183-0.145-0.347-0.367-0.384C13.04,7.208,13.01,7.124,13.063,6.99
			c0.12-0.314,0.222-0.635,0.363-0.939c0.281-0.033,0.395,0.186,0.537,0.359c0.061,0.438,0.332,0.768,0.563,1.12
			c0.101,0.155,0.216,0.276,0.367,0.379c0.094,0.063,0.258,0.138,0.086,0.292C14.77,8.307,14.552,8.389,14.324,8.442"/>
		<path fill="#016AA1" d="M9.722,7.544c0.165,0.226,0.216,0.503,0.341,0.748c0.022,0.044,0.021,0.11,0.053,0.136
			c0.178,0.146,0.228,0.332,0.208,0.554c-0.009,0.099,0.065,0.161,0.134,0.22c0.06,0.05,0.127,0.09,0.191,0.136
			c0.246,0.169,0.25,0.181,0.151,0.485c-0.185,0.111-0.385,0.189-0.592,0.25c0.018-0.165-0.101-0.217-0.22-0.274
			C9.842,9.727,9.615,9.732,9.571,9.563C9.535,9.415,9.615,9.239,9.642,9.075C9.653,9.016,9.658,8.959,9.665,8.9
			c0.017-0.137-0.033-0.238-0.171-0.269C9.33,8.598,9.329,8.484,9.301,8.35c-0.069-0.338-0.004-0.66,0.066-0.984
			C9.512,7.367,9.614,7.462,9.722,7.544"/>
		<path fill="#014E76" d="M6.676,11.723c-0.034-0.043-0.08-0.064-0.131-0.043c-0.234,0.1-0.394-0.056-0.567-0.162
			c-0.078-0.047-0.1-0.136-0.063-0.209c0.073-0.153,0.035-0.297-0.027-0.432c-0.12-0.256-0.215-0.508-0.11-0.796
			C5.799,10.02,5.78,9.942,5.781,9.873c0.151,0.035,0.304,0.083,0.458,0.102c0.154,0.02,0.254,0.084,0.31,0.23
			c0.021,0.055,0.078,0.098,0.09,0.148c0.043,0.19,0.159,0.246,0.345,0.24c0.162-0.002,0.22,0.071,0.226,0.31
			C7.213,11.079,7.26,11.23,7.34,11.38C7.129,11.518,6.905,11.629,6.676,11.723"/>
		<path fill="#015683" d="M4.821,4.852c0.11,0.007,0.177,0.08,0.231,0.164c0.115,0.18,0.257,0.33,0.451,0.418
			C5.619,5.487,5.67,5.569,5.66,5.694c-0.001,0.019,0.001,0.04-0.001,0.06C5.631,6.041,5.68,6.318,5.78,6.589
			C5.55,6.653,5.306,6.626,5.077,6.678c-0.098,0.021-0.15-0.017-0.208-0.074C4.763,6.5,4.662,6.389,4.551,6.29
			C4.418,6.172,4.329,6.055,4.397,5.857C4.432,5.76,4.416,5.637,4.294,5.575C4.438,5.311,4.615,5.07,4.821,4.852"/>
		<path fill="#0692DB" d="M14.979,8.2c0.054-0.087,0.024-0.171-0.058-0.196c-0.317-0.102-0.421-0.398-0.593-0.631
			c-0.047-0.063-0.081-0.139-0.133-0.197c-0.189-0.224-0.276-0.475-0.231-0.769c0.301-0.003,0.574,0.077,0.822,0.25
			c0.118,0.084,0.249,0.153,0.373,0.229c-0.017,0.181,0.099,0.264,0.239,0.327c0.239,0.111,0.276,0.175,0.23,0.423
			c-0.021,0.114-0.066,0.226-0.046,0.346C15.392,8.083,15.188,8.149,14.979,8.2"/>
		<path fill="#014E77" d="M5.063,8.44C4.935,8.385,4.807,8.434,4.688,8.459C4.567,8.486,4.501,8.477,4.465,8.352
			C4.387,8.085,4.251,7.874,4.011,7.702C3.788,7.54,3.575,7.336,3.452,7.068c0.068-0.219,0.174-0.414,0.303-0.6
			c0.02-0.024,0.041-0.048,0.045-0.08c-0.007-0.02,0-0.033,0.02-0.041C3.835,6.326,3.848,6.305,3.86,6.282L3.858,6.287
			c0.049-0.023,0.035-0.084,0.066-0.116l0.001-0.002C3.988,6.182,4.052,6.196,4.018,6.28C3.979,6.372,3.929,6.459,3.891,6.551
			c-0.046,0.108-0.02,0.19,0.092,0.245c0.125,0.063,0.248,0.126,0.369,0.193c0.174,0.099,0.34,0.204,0.402,0.413
			C4.787,7.51,4.884,7.548,4.975,7.588c0.209,0.094,0.207,0.094,0.155,0.324C5.091,8.084,5.042,8.26,5.063,8.44"/>
		<path fill="#0181C5" d="M14.203,11.727c-0.042-0.105-0.145-0.133-0.231-0.176c-0.139-0.064-0.27-0.129-0.252-0.318
			c0.007-0.072-0.055-0.098-0.118-0.109c0.391-0.145,0.784-0.275,1.191-0.359c0.115,0.146,0.237,0.285,0.345,0.438
			c0.13,0.186,0.105,0.41,0.137,0.62c0.018,0.104,0.004,0.216,0.004,0.323c-0.288,0.154-0.52-0.086-0.78-0.112
			C14.321,12.012,14.222,11.902,14.203,11.727"/>
		<path fill="#016AA1" d="M17.372,22.719c0.023-0.027,0.076-0.074,0.068-0.087c-0.095-0.163-0.043-0.382-0.221-0.521
			c-0.127-0.101-0.214-0.251-0.326-0.374c-0.066-0.077-0.039-0.143-0.001-0.215c0.069-0.131,0.141-0.26,0.119-0.418
			c0.179-0.002,0.351,0.056,0.529,0.05c0.179-0.009,0.269,0.116,0.326,0.259c0.11,0.268,0.303,0.436,0.581,0.502
			c0.086,0.094,0.197,0.18,0.119,0.332C18.188,22.455,17.789,22.609,17.372,22.719"/>
		<path fill="#119DE6" d="M17.263,7.376c-0.058-0.114-0.157-0.135-0.272-0.134c-0.157,0.005-0.316,0.01-0.474-0.003
			c-0.172-0.017-0.202-0.079-0.214-0.25c-0.017-0.238,0.023-0.466,0.115-0.685c0.068-0.16,0.052-0.328,0.055-0.494
			c0.16,0.17,0.378,0.209,0.59,0.229c0.174,0.019,0.22,0.097,0.266,0.252c0.081,0.285,0.16,0.567,0.182,0.864
			c0.003,0.053-0.003,0.097-0.021,0.145C17.422,7.352,17.346,7.375,17.263,7.376"/>
		<path fill="#016194" d="M10.558,13.398c-0.06-0.079-0.118-0.16-0.179-0.239c-0.135-0.36,0-0.69,0.116-1.022
			c0.169-0.093,0.349-0.15,0.537-0.187c0.255,0.021,0.423,0.198,0.603,0.345c0.172,0.141,0.04,0.305-0.009,0.46
			c-0.12,0.293-0.344,0.5-0.58,0.698C10.878,13.489,10.71,13.516,10.558,13.398"/>
		<path fill="#0169A0" d="M11.575,12.741c0.097-0.347,0.097-0.347-0.192-0.545c-0.117-0.081-0.233-0.165-0.35-0.247
			c0.347-0.146,0.7-0.27,1.066-0.354c0.046,0.03,0.064,0.067,0.043,0.125c-0.032,0.092-0.063,0.185-0.093,0.277
			c-0.092,0.289-0.086,0.305,0.171,0.438c0.435,0.228,0.447,0.258,0.273,0.729c-0.007,0.018-0.017,0.035-0.024,0.055
			C12.045,13.413,11.539,13.145,11.575,12.741"/>
		<path fill="#0173AF" d="M18.567,22.245c0.01-0.122-0.131-0.185-0.121-0.305c0.061-0.222,0.015-0.4-0.138-0.589
			c-0.364-0.455-0.312-0.735,0.177-1.135c0.114-0.033,0.224-0.033,0.317,0.051c0.04,0.061,0.079,0.119,0.12,0.18
			c0.129,0.206,0.02,0.424,0.02,0.634c0,0.265,0.035,0.464,0.344,0.515c0.083,0.015,0.204,0.041,0.182,0.183
			C19.188,21.975,18.886,22.127,18.567,22.245"/>
		<path fill="#109CE5" d="M18.385,9.873c-0.135-0.145-0.331-0.118-0.497-0.168c-0.099-0.031-0.149-0.063-0.169-0.168
			c-0.023-0.136-0.079-0.266-0.109-0.398c-0.018-0.074-0.052-0.129-0.119-0.16c0.267-0.219,0.547-0.42,0.843-0.598
			c0.106,0.002,0.155,0.074,0.188,0.16c0.045,0.107,0.077,0.221,0.17,0.305c0.068,0.063,0.052,0.146,0.006,0.217
			c-0.094,0.149-0.122,0.332-0.231,0.476C18.393,9.637,18.376,9.752,18.385,9.873"/>
		<path fill="#017DBE" d="M11.694,9.458c0.028-0.071,0.086-0.144,0.037-0.219c-0.137-0.213-0.088-0.45-0.098-0.681
			c-0.081-0.14-0.123-0.279,0-0.418c0.043,0.029,0.059,0.075,0.063,0.127c0.014,0.107,0.093,0.129,0.172,0.099
			c0.113-0.042,0.236-0.022,0.342-0.072c0.141-0.063,0.23,0.003,0.303,0.104c0.102,0.142,0.186,0.296,0.279,0.443
			c0.045,0.073,0.006,0.131-0.021,0.194C12.421,9.2,12.063,9.342,11.694,9.458"/>
		<path fill="#0178B7" d="M19.468,21.777c-0.105-0.126-0.263-0.117-0.4-0.154c-0.14-0.039-0.211-0.105-0.209-0.268
			c0.004-0.305,0.01-0.606,0.064-0.908c0.186,0.094,0.371,0.186,0.557,0.279c0.072,0.035,0.154,0.074,0.152,0.164
			c-0.005,0.273,0.059,0.553-0.05,0.819C19.557,21.757,19.514,21.771,19.468,21.777"/>
		<path fill="#0D99E2" d="M12.948,1.749c-0.106-0.01-0.206-0.051-0.313-0.065c-0.399-0.061-0.5-0.371-0.34-0.683
			c0.04-0.078,0.098-0.146,0.146-0.222c0.041-0.067,0.029-0.129-0.043-0.174c0.198-0.074,0.405-0.059,0.61-0.058
			c0.021,0.042,0.04,0.082,0.06,0.124C13.132,1.042,13.135,1.407,12.948,1.749"/>
		<path fill="#025B8B" d="M10.496,12.135c0.032,0.24-0.05,0.469-0.083,0.701c-0.016,0.108-0.029,0.215-0.033,0.322
			c-0.238-0.014-0.467-0.042-0.637-0.245C9.674,12.83,9.593,12.76,9.6,12.635c0.008-0.084-0.039-0.128-0.121-0.138
			C9.806,12.346,10.145,12.223,10.496,12.135"/>
		<path fill="#0692DB" d="M21.74,20.053c-0.034-0.207,0.04-0.423-0.068-0.621c0.121-0.02,0.235-0.07,0.363-0.062
			c0.103,0.007,0.189,0.021,0.235,0.126C22.119,19.705,21.942,19.891,21.74,20.053"/>
		<path fill="#01466B" d="M4.035,17.764c0.088,0.097,0.2,0.166,0.269,0.282c-0.029,0.029-0.06,0.06-0.089,0.087
			c-0.106-0.104-0.187-0.227-0.225-0.373C4.007,17.74,4.022,17.741,4.035,17.764"/>
		<path fill="#0D99E2" d="M12.351,0.61c-0.111,0.112-0.25,0.047-0.377,0.057C12.092,0.6,12.222,0.609,12.351,0.61"/>
		<path fill="#88D5F7" d="M21.55,5.93c0.006-0.01,0.012-0.018,0.02-0.022c0.043-0.031,0.105-0.062,0.127-0.011
			c0.022,0.046-0.036,0.08-0.088,0.091C21.589,5.967,21.569,5.947,21.55,5.93"/>
		<path fill="#01466B" d="M3.925,17.699c-0.033-0.018-0.063-0.047-0.031-0.079c0.014-0.013,0.063,0.012,0.094,0.021
			c0.015,0.013,0.021,0.028,0.019,0.043c-0.003,0.017-0.007,0.024-0.011,0.024C3.969,17.725,3.946,17.719,3.925,17.699"/>
		<path fill="#119DE6" d="M16.774,7.549c0.041-0.076,0.111-0.063,0.18-0.063C16.905,7.541,16.843,7.551,16.774,7.549"/>
		<path fill="#119DE6" d="M16.595,7.611c0.039-0.082,0.112-0.067,0.181-0.064C16.729,7.605,16.664,7.61,16.595,7.611"/>
		<path fill="#119DE6" d="M16.953,7.486c0.041-0.073,0.11-0.063,0.176-0.063C17.082,7.477,17.02,7.489,16.953,7.486"/>
		<path fill="#0490D9" d="M9.84,1.217C9.809,1.264,9.764,1.27,9.715,1.266C9.747,1.223,9.79,1.212,9.84,1.217"/>
		<path fill="#016397" d="M5.967,3.602L6.02,3.66c-0.039,0-0.076,0.002-0.115,0.002C5.913,3.627,5.936,3.609,5.967,3.602"/>
		<path fill="#014E76" d="M6.323,11.912c0.019-0.055,0.063-0.064,0.115-0.064C6.415,11.896,6.371,11.909,6.323,11.912"/>
		<path fill="#119DE6" d="M16.295,7.723c0.033-0.056,0.085-0.058,0.141-0.051C16.399,7.717,16.349,7.727,16.295,7.723"/>
		<path fill="#014E76" d="M6.44,11.848c0.021-0.05,0.064-0.063,0.114-0.062C6.528,11.83,6.489,11.848,6.44,11.848"/>
		<path fill="#014E76" d="M6.557,11.785c0.023-0.049,0.065-0.061,0.113-0.061C6.645,11.766,6.608,11.786,6.557,11.785"/>
		<path fill="#119DE6" d="M16.473,7.66c0.029-0.049,0.075-0.057,0.126-0.052C16.569,7.655,16.524,7.663,16.473,7.66"/>
		<path fill="#01466B" d="M3.925,17.699c0.021-0.001,0.043-0.001,0.065-0.001c0.022-0.021,0.04-0.015,0.051,0.013l-0.007,0.006
			c0.003,0.016,0.003,0.031,0.001,0.047l-0.023,0.002L3.99,17.76C3.949,17.76,3.932,17.734,3.925,17.699"/>
		<path fill="#01527D" d="M3.925,6.169c0.001,0.052-0.01,0.097-0.066,0.116C3.862,6.234,3.878,6.192,3.925,6.169"/>
		<path fill="#119DE6" d="M17.131,7.423c0.029-0.052,0.076-0.058,0.128-0.05C17.229,7.422,17.181,7.428,17.131,7.423"/>
		<path fill="#014E77" d="M3.451,7.07c0,0.045-0.011,0.087-0.054,0.111C3.392,7.135,3.412,7.098,3.451,7.07"/>
		<path fill="#014A72" d="M6.194,13.889l-0.07,0.039C6.136,13.896,6.161,13.883,6.194,13.889"/>
		<path fill="#016397" d="M5.899,3.666C5.881,3.684,5.862,3.701,5.845,3.719C5.848,3.688,5.866,3.669,5.899,3.666"/>
		<path fill="#016397" d="M5.839,3.727C5.821,3.744,5.802,3.762,5.785,3.78C5.789,3.747,5.806,3.729,5.839,3.727"/>
		<path fill="#01466B" d="M4.041,17.711c-0.021,0.001-0.036-0.003-0.051-0.013c0-0.021-0.001-0.039-0.003-0.06
			C4.017,17.654,4.036,17.678,4.041,17.711"/>
		<path fill="#016397" d="M5.778,3.784C5.759,3.803,5.741,3.82,5.721,3.837C5.725,3.805,5.745,3.787,5.778,3.784"/>
		<path fill="#016397" d="M5.719,3.842C5.7,3.86,5.681,3.879,5.664,3.899C5.666,3.864,5.683,3.846,5.719,3.842"/>
		<path fill="#016397" d="M5.66,3.903C5.641,3.921,5.625,3.94,5.606,3.958C5.608,3.926,5.628,3.908,5.66,3.903"/>
		<path fill="#016397" d="M5.599,3.964C5.582,3.983,5.563,4,5.547,4.018C5.549,3.985,5.567,3.969,5.599,3.964"/>
		<path fill="#016397" d="M5.541,4.025C5.522,4.044,5.507,4.061,5.489,4.08C5.491,4.045,5.508,4.027,5.541,4.025"/>
		<path fill="#016397" d="M5.481,4.087C5.465,4.105,5.449,4.121,5.432,4.139C5.433,4.108,5.45,4.09,5.481,4.087"/>
		<path fill="#016397" d="M5.423,4.15C5.407,4.167,5.39,4.182,5.376,4.199C5.377,4.169,5.392,4.153,5.423,4.15"/>
		<path fill="#016397" d="M5.362,4.213C5.354,4.23,5.342,4.245,5.324,4.253C5.323,4.227,5.338,4.214,5.362,4.213"/>
		<path fill="#016397" d="M5.292,4.292c-0.003,0.04-0.024,0.067-0.063,0.077C5.235,4.332,5.257,4.307,5.292,4.292"/>
		<path fill="#016397" d="M5.233,4.364C5.227,4.399,5.207,4.422,5.172,4.43C5.177,4.395,5.196,4.372,5.233,4.364"/>
		<path fill="#01527D" d="M3.862,6.28C3.846,6.303,3.834,6.323,3.819,6.346C3.815,6.313,3.828,6.29,3.862,6.28"/>
		<path fill="#01527D" d="M3.801,6.389C3.799,6.422,3.785,6.45,3.756,6.467C3.753,6.43,3.766,6.404,3.801,6.389"/>
		<path fill="#014C73" d="M13.729,22.238c0.162,0.313,0.213,0.67,0.408,1.008h-1.307c-0.047-0.104-0.119-0.157-0.24-0.186
			c-0.236-0.057-0.473-0.131-0.632-0.346c-0.065-0.084-0.065-0.134-0.015-0.229c0.125-0.245,0.332-0.44,0.408-0.713
			C12.817,21.913,13.278,22.059,13.729,22.238"/>
		<path fill="#109CE5" d="M12.948,1.749c0.066-0.356,0.026-0.725,0.119-1.076c0.198-0.003,0.351,0.13,0.531,0.179
			c0.415,0.107,0.68,0.373,0.816,0.777c0.049,0.146,0.13,0.271,0.299,0.301c0.063,0.012,0.121,0.047,0.13,0.107
			c0.036,0.271,0.14,0.53,0.013,0.814c-0.103,0.228,0.019,0.459,0.103,0.678c0.026,0.07,0.113,0.064,0.184,0.072
			c0.331,0.039,0.477,0.168,0.556,0.481c0.018,0.065,0.033,0.134,0.055,0.199c0.064,0.205,0.092,0.405-0.082,0.579
			c-0.043,0.045-0.033,0.113-0.034,0.171c-0.229-0.101-0.44,0.013-0.657,0.062c-0.199-0.136-0.343-0.328-0.518-0.49
			c-0.014-0.012-0.035-0.028-0.037-0.045c-0.058-0.375-0.354-0.623-0.514-0.941c-0.102-0.201-0.065-0.425-0.12-0.637
			c-0.054-0.206-0.108-0.374-0.356-0.406c-0.162-0.021-0.253-0.139-0.303-0.293C13.076,2.102,13.01,1.926,12.948,1.749"/>
		<path fill="#014E77" d="M13.411,21.708c-0.545-0.146-1.079-0.327-1.602-0.542c0.051-0.01,0.099-0.02,0.079-0.092
			c-0.075-0.266-0.146-0.532-0.224-0.796c-0.018-0.056-0.053-0.13-0.096-0.144c-0.188-0.063-0.178-0.205-0.176-0.356
			c0.004-0.198,0.017-0.394,0.053-0.589c0.049-0.252,0-0.293-0.256-0.295c-0.119-0.002-0.238,0.002-0.357-0.002
			c-0.203-0.006-0.238-0.054-0.198-0.256c0.048-0.25,0.101-0.502,0.104-0.759c0.187,0.112,0.401,0.147,0.598,0.238
			c0.135,0.045,0.166,0.168,0.191,0.282c0.048,0.219,0.187,0.312,0.396,0.339c0.146,0.019,0.298,0.026,0.436,0.097
			c0.026,0.016,0.049,0.032,0.068,0.057c0.01,0.027,0.014,0.057,0.012,0.086c-0.047,0.213-0.119,0.418-0.185,0.627
			c-0.032,0.102-0.077,0.234,0.063,0.281c0.346,0.108,0.448,0.411,0.558,0.69c0.118,0.302,0.274,0.563,0.505,0.787
			c0.07,0.069,0.133,0.151,0.161,0.248C13.581,21.744,13.503,21.74,13.411,21.708"/>
		<path fill="#0490D9" d="M13.248,5.572l-0.06-0.061L13.248,5.572z"/>
		<path fill="#015886" d="M6.079,7.066C6.506,7.135,6.832,7.38,7.132,7.67c0.063,0.063,0.117,0.137,0.201,0.174
			c0.036,0.024,0.053,0.063,0.064,0.103C7.414,8.001,7.429,8.055,7.45,8.107c0.102,0.21-0.012,0.394-0.065,0.587
			C7.349,8.79,7.358,8.902,7.274,8.979c-0.063-0.168-0.15-0.256-0.36-0.252C6.69,8.73,6.479,8.649,6.375,8.391
			C6.29,8.182,6.151,7.995,6.03,7.803C5.901,7.604,5.858,7.406,6.012,7.198C6.041,7.159,6.056,7.11,6.079,7.066"/>
		<path fill="#015E8F" d="M7.272,8.979c0.017-0.101-0.039-0.217,0.062-0.301c0.37-0.108,0.752-0.084,1.087,0.064
			c0.292,0.129,0.21,0.45,0.167,0.713c-0.43,0.023-0.851-0.021-1.254-0.179C7.233,9.192,7.289,9.077,7.272,8.979"/>
		<path fill="#028ED7" d="M16.832,13.039c0.024-0.193,0.069-0.384,0.063-0.582c-0.005-0.195,0.115-0.349,0.235-0.493
			c0.219,0.095,0.429,0.195,0.433,0.487c0,0.075,0.031,0.152,0.055,0.229c0.031,0.1,0.076,0.192,0.201,0.179
			c0.153-0.017,0.207,0.069,0.246,0.196c0.047,0.149,0.103,0.299,0.164,0.442c0.043,0.099,0.067,0.229,0.163,0.276
			c0.266,0.13,0.251,0.356,0.216,0.578c-0.021,0.112-0.002,0.178,0.063,0.267c0.102,0.142,0.18,0.302,0.268,0.454
			c0.11,0.191,0.252,0.265,0.461,0.236c0.125,0.066,0.205,0.187,0.307,0.276c0.044,0.04,0.083,0.105,0.133,0.115
			c0.42,0.084,0.348,0.437,0.393,0.718c0.023,0.145,0.004,0.295,0.004,0.443c-0.03,0.232-0.118,0.421-0.373,0.48
			c-0.301-0.283-0.607-0.561-1.049-0.596c-0.052-0.005-0.094-0.029-0.131-0.064c-0.124-0.226-0.135-0.47-0.117-0.718
			c0.013-0.192-0.019-0.35-0.234-0.416c-0.085-0.026-0.146-0.097-0.187-0.181c0.018-0.371-0.017-0.708-0.428-0.885
			c-0.092-0.041-0.047-0.198-0.019-0.305c0.104-0.4-0.179-0.83-0.594-0.896c-0.028-0.004-0.058-0.012-0.086-0.021
			C16.936,13.205,16.819,13.178,16.832,13.039"/>
		<path fill="#0692DB" d="M19.879,17.342c0.126-0.154,0.274-0.294,0.358-0.479c0.089,0.181,0.278,0.146,0.421,0.17
			c0.239,0.04,0.348,0.148,0.428,0.38c0.084,0.247,0.244,0.474,0.386,0.697c0.068,0.106,0.199,0.073,0.305,0.058
			c0.115-0.018,0.254-0.113,0.334-0.005c0.082,0.111-0.03,0.242-0.075,0.358c-0.118,0.305-0.242,0.606-0.363,0.91
			c-0.131-0.102-0.264-0.205-0.396-0.307c-0.166-0.129-0.172-0.324-0.199-0.505c-0.041-0.274-0.344-0.589-0.612-0.624
			c-0.097-0.013-0.192-0.039-0.289-0.057c-0.287-0.053-0.287-0.053-0.297-0.359C19.811,17.5,19.811,17.421,19.879,17.342"/>
		<path fill="#0995DE" d="M19.52,13.876c0.021,0.021,0.039,0.039,0.06,0.06C19.559,13.915,19.541,13.896,19.52,13.876"/>
		<path fill="#0995DE" d="M19.461,13.757c0.021,0.021,0.04,0.039,0.06,0.061C19.5,13.796,19.481,13.776,19.461,13.757"/>
		<path fill="#0995DE" d="M19.401,13.639c0.02,0.02,0.039,0.037,0.06,0.06C19.44,13.676,19.421,13.657,19.401,13.639"/>
		<path fill="#0995DE" d="M19.341,13.52c0.02,0.019,0.04,0.037,0.061,0.058C19.381,13.557,19.36,13.537,19.341,13.52"/>
		<path fill="#0995DE" d="M19.282,13.398c0.02,0.021,0.039,0.039,0.06,0.06C19.321,13.438,19.302,13.418,19.282,13.398"/>
		<path fill="#0995DE" d="M19.221,13.278c0.021,0.021,0.04,0.04,0.061,0.06C19.26,13.318,19.242,13.299,19.221,13.278"/>
		<path fill="#015B8B" d="M10.558,13.398h0.539c0.339,0.232,0.644,0.5,0.835,0.871c-0.052,0.269,0.026,0.533,0.012,0.799
			c-0.004,0.099,0.048,0.176,0.123,0.227c0.347,0.231,0.368,0.583,0.358,0.948c-0.038,0.204-0.11,0.388-0.285,0.517
			c-0.028,0.012-0.059,0.02-0.09,0.018c-0.536-0.072-0.821-0.473-1.12-0.857c-0.072-0.094-0.003-0.218-0.072-0.31
			c-0.08-0.12-0.158-0.239-0.239-0.358c-0.003-0.208,0.094-0.406,0.062-0.619c-0.01-0.066,0.014-0.146-0.031-0.203
			C10.379,14.104,10.393,13.757,10.558,13.398"/>
		<path fill="#015480" d="M10.858,15.609c0.141,0.355,0.404,0.617,0.67,0.879c0.072,0.07,0.164,0.104,0.258,0.14
			c0.091,0.032,0.195,0.036,0.267,0.116c0.065,0.211-0.081,0.354-0.17,0.516c-0.147,0.266-0.112,0.344,0.183,0.326
			c0.234-0.015,0.354,0.096,0.405,0.303c0.05,0.203,0.099,0.405,0.142,0.608c0.041,0.187,0.006,0.337-0.2,0.397
			c-0.204-0.036-0.406-0.101-0.61-0.104c-0.226-0.004-0.291-0.151-0.331-0.313c-0.032-0.127-0.079-0.242-0.135-0.358
			c0.069-0.119,0.147-0.235,0.206-0.361c0.072-0.155,0.033-0.235-0.128-0.298c-0.203-0.079-0.413-0.146-0.629-0.171
			c-0.138-0.017-0.214-0.089-0.213-0.202c0.002-0.221-0.077-0.429-0.077-0.648c-0.001-0.186,0.041-0.327,0.187-0.443
			C10.803,15.896,10.888,15.777,10.858,15.609"/>
		<path fill="#017DBE" d="M18.385,17.939c-0.123,0.182-0.299,0.313-0.445,0.474c-0.065,0.072-0.154,0.129-0.152,0.243
			c-0.294-0.035-0.489-0.238-0.695-0.421c-0.043-0.082-0.07-0.171-0.077-0.267c-0.001-0.1,0.021-0.195,0.054-0.289
			c0.112-0.308,0.112-0.574-0.219-0.759c-0.107-0.062-0.152-0.181-0.152-0.307c0-0.235-0.032-0.472,0.003-0.706
			c0.043-0.034,0.087-0.037,0.131-0.002c0.019,0.021,0.041,0.039,0.06,0.06c0.348,0.031,0.625,0.16,0.764,0.507
			c0.082,0.205,0.225,0.301,0.464,0.277c0.205-0.02,0.207,0.005,0.159,0.223c-0.023,0.106-0.033,0.218-0.075,0.315
			c-0.095,0.229-0.059,0.423,0.124,0.591C18.346,17.896,18.362,17.92,18.385,17.939"/>
		<path fill="#0180C4" d="M16.832,15.906c-0.04,0-0.08,0-0.12,0c-0.179,0.084-0.339,0.007-0.398-0.141
			c-0.147-0.373-0.462-0.612-0.682-0.928c-0.04-0.057-0.084-0.111-0.089-0.184c0.272-0.305,0.159-0.604,0.001-0.916
			c-0.087-0.173-0.184-0.378,0.086-0.505c0.326,0.028,0.571,0.192,0.72,0.479c0.081,0.153,0.183,0.274,0.331,0.36
			c0.286,0.322,0.501,0.684,0.571,1.117c-0.062,0.21-0.211,0.365-0.332,0.537C16.878,15.785,16.832,15.834,16.832,15.906"/>
		<path fill="#018AD2" d="M17.251,15.191c-0.102-0.201-0.205-0.403-0.301-0.606c-0.081-0.169-0.176-0.327-0.297-0.469
			c-0.051-0.068-0.077-0.147-0.037-0.22c0.127-0.229,0.197-0.49,0.396-0.678c0.06,0,0.118,0.004,0.179,0
			c0.15-0.017,0.268,0.025,0.336,0.176c0.031,0.07,0.078,0.14,0.131,0.194c0.188,0.195,0.246,0.398,0.104,0.65
			c-0.076,0.134-0.025,0.248,0.121,0.31c0.02,0.008,0.036,0.021,0.053,0.027c0.356,0.182,0.359,0.184,0.26,0.564
			c-0.021,0.074-0.051,0.147-0.047,0.229C17.858,15.258,17.569,15.146,17.251,15.191"/>
		<path fill="#0188CF" d="M19.879,17.342v0.238c-0.07,0.042-0.058,0.113-0.06,0.18c-0.244-0.043-0.487-0.08-0.728-0.135
			c-0.157-0.035-0.289-0.09-0.31-0.3c-0.021-0.214-0.079-0.426-0.099-0.642c0.291-0.045,0.541,0.039,0.765,0.229
			c0.083,0.067,0.18,0.124,0.276,0.169C19.841,17.137,19.889,17.219,19.879,17.342"/>
		<path fill="#017FC2" d="M18.385,17.939c-0.021-0.021-0.041-0.041-0.06-0.061C18.344,17.898,18.365,17.919,18.385,17.939"/>
		<path fill="#0180C4" d="M16.891,15.967c-0.02-0.021-0.04-0.039-0.06-0.061C16.851,15.928,16.872,15.946,16.891,15.967"/>
		<path fill="#0176B3" d="M11.635,8.141c0,0.142,0,0.279,0,0.418c-0.215-0.11-0.446-0.047-0.671-0.057
			c-0.28-0.013-0.281-0.007-0.284-0.279c-0.002-0.148,0.011-0.3-0.006-0.445c-0.033-0.301-0.159-0.374-0.457-0.309
			c-0.163,0.037-0.323,0.099-0.494,0.075C9.565,7.559,9.461,7.473,9.365,7.363c0.017-0.106-0.054-0.195-0.062-0.298
			c-0.107-0.232,0.059-0.4,0.154-0.569c0.104-0.188,0.08-0.305-0.088-0.424C9.249,5.986,9.121,5.91,9.01,5.813
			c-0.076-0.066-0.202-0.102-0.184-0.24c0.117-0.197,0.347-0.307,0.418-0.539C9.307,5.063,9.37,5.102,9.442,5.094
			c0.143-0.019,0.235,0.059,0.341,0.144c0.232,0.19,0.3,0.405,0.176,0.681c-0.045,0.1-0.052,0.171,0.056,0.253
			c0.301,0.23,0.585,0.479,0.687,0.871c0.023,0.095,0.09,0.153,0.198,0.144c0.093-0.008,0.177,0.017,0.258,0.061
			c0.078,0.137,0.188,0.257,0.293,0.366C11.604,7.77,11.657,7.936,11.635,8.141"/>
		<path fill="#0181C4" d="M9.843,3.719c0.125,0.082,0.268,0.063,0.405,0.062c0.151-0.004,0.248,0.041,0.253,0.214
			c0.01,0.304,0.16,0.479,0.469,0.535c0.171,0.031,0.344,0.091,0.485,0.207c0.016,0.015,0.021,0.027,0.016,0.04
			s-0.011,0.02-0.016,0.02c-0.045,0.298-0.267,0.533-0.298,0.837c-0.156-0.099-0.326-0.134-0.512-0.121
			c-0.146,0.01-0.296,0.002-0.463,0.002c0.036-0.22,0.158-0.377,0.237-0.555c0.103-0.229,0.077-0.281-0.181-0.279
			C9.916,4.684,9.923,4.701,9.806,4.361c-0.016-0.047-0.021-0.1-0.047-0.143C9.645,4.027,9.69,3.866,9.843,3.719"/>
		<path fill="#0180C3" d="M9.006,2.107c0.103-0.012,0.188,0.041,0.282,0.063C9.375,2.193,9.427,2.255,9.42,2.342
			C9.399,2.586,9.511,2.818,9.483,3.063c-0.244-0.014-0.496,0.05-0.729-0.086C8.744,2.658,8.956,2.405,9.006,2.107"/>
		<path fill="#008CD5" d="M11.455,4.795c0-0.02,0-0.039,0-0.06c0-0.156-0.011-0.314,0.003-0.47c0.017-0.193-0.071-0.317-0.221-0.416
			c-0.041-0.025-0.082-0.053-0.123-0.08c-0.313-0.213-0.318-0.235-0.138-0.588h0.206c0.407,0,0.561,0.088,0.669,0.468
			c0.042,0.146,0.119,0.208,0.235,0.269c0.229,0.12,0.23,0.139,0.15,0.395c-0.041,0.142-0.084,0.283-0.127,0.424
			C11.891,4.738,11.669,4.714,11.455,4.795"/>
		<path fill="#016295" d="M15.338,19.852c-0.112-0.138-0.279-0.174-0.433-0.232c-0.133-0.05-0.235-0.111-0.318-0.237
			c-0.176-0.261-0.439-0.407-0.742-0.485c-0.174-0.123-0.309-0.295-0.501-0.396c-0.114-0.063-0.132-0.185-0.123-0.31
			c0.02-0.228,0.011-0.45-0.028-0.675c0.029-0.196,0.076-0.388,0.25-0.515c0.257-0.051,0.517-0.073,0.778-0.071
			c0.148,0.061,0.242,0.162,0.263,0.324c0.064,0.485,0.248,0.869,0.804,0.937c0.058,0.006,0.105,0.046,0.145,0.093
			c0.048,0.068,0.079,0.143,0.093,0.223c-0.056,0.34-0.119,0.676-0.065,1.024C15.474,19.639,15.434,19.764,15.338,19.852"/>
		<path fill="#015786" d="M13.248,17.521c0.108,0.215,0.069,0.445,0.048,0.666c-0.016,0.158,0.02,0.25,0.157,0.298
			c0.202,0.071,0.319,0.217,0.392,0.409c-0.013,0.168-0.161,0.235-0.255,0.343c-0.128,0.146-0.274,0.278-0.282,0.493
			c-0.391-0.116-0.626-0.42-0.861-0.724c-0.011-0.038,0-0.081-0.034-0.112l0,0c0.174-0.228,0.176-0.229,0.103-0.502
			c-0.041-0.15-0.083-0.303-0.106-0.459c-0.042-0.258-0.122-0.307-0.382-0.254c-0.107,0.021-0.227,0.055-0.295-0.06
			c-0.069-0.108-0.045-0.224,0.039-0.329c0.129-0.164,0.217-0.351,0.284-0.548h0.061c0.191,0.022,0.231,0.2,0.298,0.329
			c0.104,0.206,0.234,0.329,0.479,0.322C13.015,17.395,13.147,17.428,13.248,17.521"/>
		<path fill="#01527D" d="M12.47,18.954c0.211,0.245,0.414,0.498,0.708,0.658c0.051,0.026,0.086,0.079,0.128,0.116
			c0.099,0.24,0.276,0.447,0.3,0.719c0.103,0.372,0.215,0.745,0.319,1.117c0.032,0.115,0.107,0.302-0.155,0.263
			c-0.13-0.01-0.25-0.051-0.359-0.119c0.057-0.013,0.132-0.015,0.064-0.104c-0.125-0.166-0.251-0.327-0.404-0.469
			c-0.094-0.084-0.137-0.184-0.172-0.315c-0.068-0.253-0.216-0.485-0.346-0.72c-0.048-0.086-0.154-0.117-0.255-0.131
			c-0.151-0.02-0.209-0.09-0.156-0.242c0.087-0.258,0.134-0.53,0.27-0.772C12.43,18.934,12.451,18.934,12.47,18.954"/>
		<path fill="#015581" d="M13.77,21.827c0.146-0.019,0.133-0.103,0.096-0.211c-0.094-0.287-0.172-0.579-0.27-0.864
			c-0.036-0.109-0.058-0.205,0.01-0.305c0.143-0.018,0.274,0.029,0.41,0.055c0.109,0.021,0.178,0.079,0.236,0.163
			c0.178,0.261,0.314,0.558,0.607,0.724c0.056,0.029,0.05,0.102,0.062,0.158c0.034,0.166,0.088,0.326,0.111,0.492
			c0.016,0.122,0.092,0.193,0.166,0.271c0.036,0.039,0.065,0.078,0.001,0.117c-0.072-0.027-0.149-0.052-0.215-0.09
			C14.604,22.109,14.177,21.993,13.77,21.827"/>
		<path fill="#01669B" d="M15.338,19.852c0.022-0.24,0.078-0.479,0.007-0.722c-0.036-0.118-0.011-0.255,0.061-0.368
			c0.056-0.09,0.056-0.187,0.053-0.287c0.568,0.19,1.029,0.84,1.016,1.437c-0.251,0.086-0.503,0.171-0.753,0.262
			c-0.067,0.022-0.132,0.038-0.203,0.037C15.481,20.078,15.35,19.994,15.338,19.852"/>
		<path fill="#015F91" d="M16.055,21.702c0.188,0,0.377,0,0.567,0.001c0.119,0,0.16,0.054,0.123,0.171
			c-0.077,0.235-0.167,0.47-0.152,0.726c-0.313-0.127-0.653-0.14-1.009-0.207C15.727,22.137,15.892,21.919,16.055,21.702"/>
		<path fill="#016397" d="M8.289,6.528c-0.085,0.2-0.257,0.347-0.359,0.537c-0.02,0.024-0.04,0.024-0.06,0
			C7.856,7.051,7.846,7.028,7.83,7.023C7.53,6.932,7.302,6.768,7.2,6.454C7.162,6.342,7.046,6.352,6.946,6.348
			C6.829,6.341,6.692,6.395,6.6,6.311C6.503,6.223,6.627,6.111,6.619,6.004C6.606,5.846,6.608,5.688,6.618,5.528
			C6.626,5.382,6.553,5.307,6.42,5.281c-0.048-0.01-0.099-0.006-0.147-0.016C6.036,5.213,6.04,5.161,5.951,4.943
			c-0.147-0.359-0.056-0.618,0.233-0.84C6.192,4.1,6.194,4.086,6.199,4.079c0.12,0.085,0.27,0.047,0.399,0.103
			C6.781,4.26,6.841,4.311,6.781,4.489C6.705,4.71,6.778,4.944,6.69,5.163c-0.041,0.104,0.022,0.17,0.14,0.17
			c0.159,0,0.317,0.009,0.477-0.002c0.127-0.007,0.202,0.045,0.257,0.156c0.082,0.17,0.179,0.334,0.26,0.502
			c0.091,0.19,0.203,0.335,0.395,0.419C8.268,6.43,8.283,6.477,8.289,6.528"/>
		<path fill="#016295" d="M7.871,7.066h0.06C8.035,7.229,8.061,7.418,8.11,7.6c0.06,0.228,0.063,0.229,0.298,0.244
			c0.03,0,0.06-0.002,0.09,0c0.182,0.019,0.224,0.074,0.172,0.25C8.631,8.229,8.587,8.359,8.576,8.499
			C8.563,8.67,8.608,8.779,8.768,8.791c0.297,0.02,0.411,0.198,0.526,0.441C9.413,9.484,9.5,9.719,9.422,9.993
			C9.356,9.882,9.285,9.784,9.127,9.813c-0.29,0.052-0.438-0.119-0.541-0.357C8.511,9.339,8.528,9.208,8.524,9.081
			C8.52,8.844,8.444,8.74,8.214,8.745C7.916,8.754,7.626,8.688,7.332,8.678c0.002-0.039-0.008-0.086,0.011-0.115
			c0.102-0.153,0.083-0.316,0.049-0.48c-0.037-0.031-0.021-0.089-0.06-0.119c0-0.04,0-0.081,0-0.119
			C7.354,7.78,7.383,7.715,7.401,7.649c0.052-0.177,0.132-0.327,0.307-0.413C7.782,7.199,7.837,7.141,7.871,7.066"/>
		<path fill="#016397" d="M6.138,3.959c0.048,0.026,0.058,0.069,0.061,0.12C6.149,4.053,6.139,4.008,6.138,3.959"/>
		<path fill="#016397" d="M6.02,3.659C6.039,3.68,6.058,3.7,6.079,3.721C6.057,3.7,6.039,3.682,6.02,3.659"/>
		<path fill="#016397" d="M6.079,3.84C6.098,3.86,6.118,3.879,6.138,3.9C6.118,3.879,6.098,3.859,6.079,3.84"/>
		<path fill="#017EC0" d="M15.636,13.278c-0.135,0.069-0.14,0.176-0.088,0.298c0.068,0.163,0.138,0.324,0.209,0.482
			c0.115,0.256,0.116,0.256-0.073,0.455c-0.039,0.045-0.072,0.092-0.108,0.14c-0.099,0.039-0.146-0.045-0.207-0.091
			c-0.017-0.017-0.032-0.031-0.048-0.051c-0.015-0.014-0.028-0.031-0.041-0.048c-0.008-0.008-0.016-0.017-0.021-0.023
			c-0.015-0.013-0.027-0.029-0.042-0.044c-0.006-0.008-0.013-0.017-0.02-0.022c-0.015-0.016-0.024-0.032-0.034-0.05
			c-0.002-0.01-0.003-0.021-0.005-0.03c-0.183-0.237-0.304-0.491-0.388-0.789c-0.074-0.266-0.155-0.593-0.523-0.661
			c-0.061-0.011-0.098-0.069-0.081-0.14c0.075-0.324,0.019-0.653,0.036-0.979c0.074,0.037,0.047,0.156,0.142,0.175
			c0.317,0.062,0.605,0.232,0.935,0.243c0.06,0.252,0.31,0.252,0.479,0.358C15.86,12.783,15.803,13.039,15.636,13.278"/>
		<path fill="#0186CB" d="M15.636,13.278c0.04-0.259,0.08-0.519,0.12-0.776c0.134,0.016,0.237,0.084,0.328,0.18
			c0.204,0.211,0.457,0.324,0.747,0.357c0.045,0.074,0.153,0.086,0.179,0.18c-0.05,0.217-0.166,0.404-0.277,0.59
			c-0.06,0.101-0.086,0.195-0.082,0.308c-0.138-0.054-0.263-0.113-0.316-0.272C16.222,13.51,15.946,13.371,15.636,13.278"/>
		<path fill="#0172AD" d="M13.905,15.25c0.222-0.221,0.367-0.488,0.478-0.777c0.301,0.123,0.544-0.002,0.776-0.179l0,0
			c0.018,0.022,0.04,0.04,0.06,0.06l0,0c0.021,0.021,0.04,0.041,0.06,0.061l0,0c0.021,0.021,0.041,0.04,0.061,0.061
			c0.005,0.01,0.018,0.021,0.016,0.025c-0.166,0.338-0.203,0.748-0.547,0.989c-0.229,0.037-0.461,0.091-0.695,0.078
			C13.921,15.555,13.774,15.484,13.905,15.25"/>
		<path fill="#016BA4" d="M13.905,15.25c0.026,0.235,0.026,0.238,0.228,0.237c0.244,0,0.479-0.097,0.728-0.06
			c0.285,0.161,0.385,0.438,0.447,0.735c-0.082,0.329-0.15,0.64,0.051,0.974c0.147,0.239,0.17,0.547,0.197,0.834
			c0.014,0.14-0.029,0.254-0.158,0.324c-0.063-0.027-0.123-0.057-0.194-0.06c-0.329-0.017-0.546-0.183-0.653-0.493
			c-0.058-0.17-0.207-0.309-0.132-0.521c0.031-0.092-0.122-0.145-0.155-0.24c-0.068-0.066-0.081-0.155-0.074-0.244
			c0.026-0.374-0.214-0.639-0.382-0.932c-0.057-0.101-0.176-0.117-0.276-0.153c-0.445-0.208-0.674-0.569-0.717-1.05
			c-0.011-0.106-0.011-0.222,0.076-0.309c0.156,0.066,0.321,0.047,0.479,0.025c0.33-0.045,0.342-0.047,0.408,0.273
			C13.821,14.813,13.827,15.037,13.905,15.25"/>
		<path fill="#016295" d="M12.888,14.294c0,0.04,0.003,0.079,0,0.119c-0.034,0.498,0.169,0.874,0.593,1.136
			c0.024,0.014,0.045,0.04,0.064,0.061c0.095,0.119,0.021,0.222-0.043,0.314c-0.104,0.151-0.178,0.326-0.331,0.44
			c-0.169,0.06-0.351,0.063-0.522,0.108c-0.188,0.052-0.271-0.032-0.298-0.207c0-0.061,0.003-0.119,0-0.178
			c-0.017-0.273-0.036-0.539-0.311-0.71c-0.127-0.08-0.255-0.2-0.17-0.394c0.018-0.042,0.016-0.104-0.001-0.146
			c-0.083-0.203-0.036-0.402,0.004-0.604c0.23-0.182,0.482-0.268,0.775-0.18C12.751,14.113,12.776,14.247,12.888,14.294"/>
		<path fill="#01659A" d="M12.649,14.057c-0.265,0.029-0.516,0.123-0.775,0.179c-0.154-0.218-0.367-0.38-0.544-0.574
			c-0.079-0.087-0.179-0.155-0.232-0.263c-0.001-0.114,0.084-0.176,0.155-0.242c0.127-0.124,0.25-0.25,0.323-0.414
			c-0.003,0.092,0.007,0.177,0.1,0.229c0.011,0.004,0.021,0.008,0.027,0.014c0.218,0.207,0.472,0.291,0.77,0.236
			c0.075,0.211,0.15,0.424,0.226,0.638C12.722,13.934,12.676,13.992,12.649,14.057"/>
		<path fill="#016FA9" d="M8.289,5.274C8.118,5.292,7.963,5.205,7.793,5.205c-0.106,0-0.14-0.104-0.151-0.191
			c-0.015-0.107-0.008-0.218-0.01-0.326C7.627,4.42,7.606,4.389,7.36,4.301C7.304,4.28,7.248,4.264,7.192,4.244
			C6.975,4.167,6.94,4.117,6.987,3.899C7.039,3.66,7.071,3.415,7.153,3.184c0.01,0.002,0.02,0.01,0.028,0.01
			c0.371,0.013,0.371,0.013,0.513,0.39C7.709,3.62,7.72,3.657,7.739,3.692c0.125,0.231,0.197,0.46-0.084,0.639
			C7.79,4.46,7.951,4.486,8.094,4.546C8.176,4.58,8.259,4.612,8.341,4.645c0.11,0.041,0.11,0.104,0.079,0.209
			C8.38,4.995,8.268,5.114,8.289,5.274"/>
		<path fill="#016FA9" d="M8.827,5.572C9.045,5.788,9.325,5.92,9.55,6.13c0.102,0.095,0.119,0.145,0.047,0.267
			c-0.123,0.209-0.275,0.412-0.292,0.67c-0.12-0.15-0.3-0.207-0.461-0.29C8.68,6.69,8.514,6.611,8.35,6.529
			C8.34,6.255,8.479,6.027,8.588,5.791C8.62,5.719,8.651,5.653,8.649,5.573C8.708,5.572,8.766,5.572,8.827,5.572"/>
		<path fill="#016FA9" d="M15.397,18.298c0.127-0.198,0.095-0.416,0.039-0.618c-0.07-0.259-0.067-0.556-0.295-0.758
			c-0.021-0.018-0.041-0.06-0.033-0.078c0.086-0.227-0.027-0.5,0.17-0.697c0.443-0.194,0.73-0.008,0.717,0.466
			c-0.019,0.582,0.221,0.956,0.756,1.182c0.12,0.05,0.236,0.099,0.32,0.205c0.041,0.074,0.067,0.151,0.061,0.238
			c0.021,0.052,0.011,0.106-0.025,0.137c-0.312,0.249-0.173,0.556-0.104,0.847c0.039,0.164,0.162,0.239,0.337,0.217
			c0.167-0.02,0.335-0.038,0.501,0.017c0.256,0.229,0.405,0.542,0.604,0.815c-0.075,0.173-0.17,0.336-0.284,0.485
			c-0.081,0.106-0.078,0.188,0.004,0.288c0.1,0.121,0.181,0.258,0.276,0.385c0.197,0.262,0.198,0.262,0.004,0.515
			c-0.275,0.012-0.482-0.084-0.572-0.364c-0.012-0.037-0.04-0.068-0.055-0.105c-0.084-0.19-0.211-0.287-0.435-0.25
			c-0.134,0.021-0.28,0.023-0.373-0.114c-0.005-0.104-0.063-0.188-0.108-0.272c-0.086-0.16-0.141-0.318-0.137-0.507
			c0.006-0.198-0.065-0.369-0.293-0.416c-0.088-0.218-0.188-0.433-0.264-0.653c-0.084-0.242-0.225-0.424-0.453-0.546
			c-0.109-0.061-0.199-0.155-0.298-0.235C15.432,18.417,15.395,18.364,15.397,18.298"/>
		<path fill="#0174B1" d="M17.846,19.491c-0.167,0.008-0.336-0.017-0.504,0.019c-0.217,0.043-0.409-0.092-0.426-0.308
			c-0.009-0.099-0.01-0.201-0.053-0.288c-0.094-0.188-0.045-0.337,0.094-0.475c0.063-0.064,0.135-0.117,0.173-0.203
			c0.235,0.113,0.435,0.283,0.656,0.419c0.04,0.079,0.081,0.157,0.12,0.239C18.028,19.108,17.992,19.307,17.846,19.491"/>
		<path fill="#017BBB" d="M17.846,19.491c-0.009-0.202,0.098-0.392,0.062-0.597c0.046,0.013,0.104,0.053,0.137,0.037
			c0.231-0.11,0.36,0.041,0.468,0.19c0.094,0.131,0.199,0.245,0.311,0.358c0.203,0.207,0.22,0.345,0.063,0.603
			c-0.036,0.06-0.084,0.11-0.084,0.185c-0.119,0-0.237,0-0.358,0c-0.199-0.119-0.313-0.313-0.431-0.504
			C17.96,19.673,17.903,19.583,17.846,19.491"/>
		<path fill="#015480" d="M12.47,18.954h-0.06c0-0.021,0-0.04,0-0.06C12.43,18.914,12.451,18.934,12.47,18.954"/>
		<path fill="#015E90" d="M7.334,7.962c0.048,0.025,0.058,0.07,0.06,0.119C7.344,8.057,7.335,8.01,7.334,7.962"/>
		<path fill="#015E8F" d="M12.351,16.266c0.063,0.121,0.138,0.166,0.291,0.129c0.177-0.045,0.358-0.098,0.546-0.068
			c0.206,0.197,0.288,0.436,0.239,0.717l-0.18,0.479c-0.207,0.004-0.401-0.086-0.612-0.065c-0.104,0.013-0.148-0.079-0.188-0.161
			c-0.094-0.195-0.204-0.379-0.334-0.55C12.211,16.594,12.321,16.45,12.351,16.266"/>
		<path fill="#0177B5" d="M17.071,17.998c-0.271-0.068-0.51-0.213-0.77-0.305c-0.087-0.031-0.129-0.092-0.125-0.182
			c0.007-0.123-0.052-0.211-0.141-0.278c-0.178-0.136-0.182-0.314-0.146-0.509c0.009-0.039,0.031-0.073,0.036-0.112
			c0.035-0.293-0.115-0.464-0.411-0.466c-0.079-0.002-0.159,0-0.237,0c-0.121-0.25-0.246-0.498-0.418-0.719
			c0.074-0.166,0.205-0.31,0.207-0.514c0-0.083,0.072-0.158,0.14-0.22c0.063-0.063,0.134-0.121,0.132-0.224
			c0.08,0.061,0.16,0.119,0.239,0.182c0.173,0.211,0.329,0.438,0.532,0.621c0.076,0.065,0.145,0.144,0.162,0.24
			c0.047,0.248,0.2,0.365,0.44,0.392c0.104,0.186,0.062,0.389,0.056,0.584c-0.004,0.19,0.025,0.349,0.217,0.438
			c0.041,0.021,0.071,0.071,0.113,0.092c0.161,0.076,0.172,0.201,0.135,0.349C17.177,17.578,17.125,17.788,17.071,17.998"/>
		<path fill="#01659B" d="M13.427,17.042c-0.081-0.239-0.16-0.478-0.238-0.717c0.03-0.183,0.176-0.3,0.26-0.451
			c0.048-0.085,0.113-0.159,0.098-0.266c0.181-0.024,0.299,0.051,0.377,0.216c0.061,0.122,0.129,0.243,0.208,0.355
			c0.173,0.248,0.125,0.528,0.131,0.802C13.985,17.027,13.708,17.061,13.427,17.042"/>
		<path fill="#0177B5" d="M15.219,14.354c-0.02-0.02-0.04-0.038-0.06-0.06C15.178,14.315,15.199,14.334,15.219,14.354"/>
		<path fill="#0177B5" d="M15.338,14.473c-0.019-0.02-0.039-0.037-0.06-0.06C15.299,14.436,15.319,14.453,15.338,14.473"/>
		<path fill="#0177B5" d="M15.278,14.413c-0.02-0.021-0.041-0.04-0.061-0.06C15.239,14.373,15.259,14.395,15.278,14.413"/>
	</g>
</g>
</svg>
