<svg xmlns="http://www.w3.org/2000/svg" width="137.275" height="23.76" xmlns:v="https://vecta.io/nano"><path d="M33.005 16.372c-.626 0-1.204-.116-1.734-.353a4.33 4.33 0 0 1-1.384-.963 4.37 4.37 0 0 1-.914-1.449c-.218-.562-.327-1.165-.327-1.815 0-.659.109-1.259.327-1.803s.522-1.007.914-1.39.854-.681 1.384-.89 1.108-.313 1.734-.313h4.864v1.566h-4.864c-.404 0-.775.073-1.118.217a2.67 2.67 0 0 0-.883.6 2.75 2.75 0 0 0-.58.914c-.14.354-.21.746-.21 1.173a3.22 3.22 0 0 0 .21 1.173 2.79 2.79 0 0 0 .58.932 2.65 2.65 0 0 0 .883.611c.343.148.714.223 1.118.223h3.839v-2.334h-4.049v-1.319h5.63v5.222l-5.42-.002h0zm6.865 0V7.396h8.013v1.566h-6.458v5.842h6.471v1.565l-8.026.003h0zm2.703-3.901v-1.319h4.976v1.319h-4.976 0zm8.123-2.666v6.567h-1.493V8.225c0-.289.071-.518.216-.687a.73.73 0 0 1 .586-.253.76.76 0 0 1 .333.074 1.26 1.26 0 0 1 .333.246l6.334 6.285V7.322h1.494v8.224c0 .296-.072.526-.217.691a.71.71 0 0 1-.563.247c-.255 0-.494-.112-.716-.334l-6.307-6.345zm9.321 6.567V7.396h8.015v1.566h-6.457v5.842h6.47v1.565l-8.028.003h0zm2.705-3.901v-1.319h4.979v1.319h-4.979 0zm15.694 3.901l-3.767-3.667-3.729 3.667h-2.038l4.816-4.667-4.471-4.309h2.159l3.421 3.32 3.37-3.32h2.037l-4.469 4.309 4.864 4.667h-2.193zm6.952 0v-1.567h6.729c.42 0 .742-.105.969-.319s.342-.497.342-.854c0-.387-.113-.677-.342-.87s-.55-.291-.969-.291h-4.125a3.29 3.29 0 0 1-1.143-.189c-.342-.127-.629-.305-.864-.531s-.415-.495-.543-.808-.19-.655-.19-1.025c0-.36.061-.696.181-1.006a2.17 2.17 0 0 1 .528-.796c.232-.222.525-.396.871-.525s.74-.189 1.188-.189h6.443V8.97H88c-.363 0-.643.096-.842.289s-.297.465-.297.811.104.613.305.803.476.284.82.284h4.111c.913 0 1.605.214 2.079.642s.711 1.079.711 1.95c0 .38-.058.729-.173 1.051a2.23 2.23 0 0 1-.52.833c-.23.234-.521.418-.871.551s-.758.195-1.229.195h-6.729v-.005h.003zm13.57-2.493V12.36h3.604c.551 0 .98-.155 1.29-.472.309-.312.462-.724.462-1.233 0-.519-.153-.931-.462-1.234s-.739-.457-1.29-.457h-4.755v7.408h-1.556V7.396h6.311c.52 0 .98.076 1.389.229a2.89 2.89 0 0 1 1.031.643 2.76 2.76 0 0 1 .645 1.007c.151.397.222.839.222 1.331 0 .486-.074.93-.222 1.328s-.363.744-.645 1.03a2.92 2.92 0 0 1-1.031.675c-.406.159-.869.239-1.389.239l-3.604.001h0zM115 16.372l-1.347-2.259h-4.245l.739-1.272h2.754l-2-3.356-4.074 6.889h-1.791l5.161-8.593c.091-.156.198-.28.321-.371a.73.73 0 0 1 .444-.135.71.71 0 0 1 .438.135c.119.091.226.215.313.371l5.175 8.593-1.888-.002h0zm5.755 0a4.2 4.2 0 0 1-1.734-.353 4.29 4.29 0 0 1-1.383-.963c-.392-.406-.695-.892-.915-1.449s-.325-1.165-.325-1.815c0-.659.107-1.259.325-1.803a3.99 3.99 0 0 1 .915-1.39 4.1 4.1 0 0 1 1.383-.89c.531-.21 1.108-.313 1.734-.313h4.864v1.566h-4.864c-.404 0-.775.073-1.118.217a2.67 2.67 0 0 0-.883.6c-.246.255-.438.56-.58.914s-.209.746-.209 1.173a3.22 3.22 0 0 0 .209 1.173 2.84 2.84 0 0 0 .58.932 2.64 2.64 0 0 0 .883.611c.343.148.714.223 1.118.223h4.864v1.567h-4.864 0zm6.135 0V7.396h8.015v1.566h-6.457v5.842h6.47v1.565l-8.028.003h0zm2.704-3.901v-1.319h4.977v1.319h-4.977 0z" fill="#fff"/><path fill="#18a4ed" d="M21.55 5.93l-2.693.91-.229.063a1.77 1.77 0 0 0-.713-.906c-.172-.107-.219-.243-.159-.429l.137-.458c.038-.168-.03-.225-.188-.186l-.116.027c-.526.089-.718-.072-.716-.604 0-.092-.007-.182.01-.27a.46.46 0 0 0-.255-.546c-.294-.168-.479-.472-.774-.646-.141-.084-.108-.266-.115-.412-.016-.402-.066-.479-.438-.6-.09-.027-.187-.063-.188-.163-.021-.37-.095-.741-.004-1.11.75.043 1.472.229 2.184.459 3.967 1.281 6.896 4.606 7.684 8.73a11.23 11.23 0 0 1-.658 6.469c-.018.045-.045.086-.068.127-.208-.092-.225-.281-.194-.455.063-.381-.174-.688-.213-1.041-.003-.027-.021-.063-.046-.073-.357-.188-.41-.569-.561-.888-.072-.153-.155-.268-.344-.285-.224-.024-.328-.17-.334-.391-.006-.236-.074-.471-.065-.711.004-.136-.054-.25-.132-.357-.257-.34-.507-.688-.791-1.01-.109-.129-.233-.209-.406-.213-.121-.003-.237-.025-.34-.102-.162-.163-.189-.389-.258-.592-.068-.209-.184-.301-.416-.285-.429.025-.625-.11-.75-.516-.157-.519-.291-1.045-.371-1.584.482-.396 1.007-.733 1.507-1.109.355-.27.719-.527 1.077-.792.022-.025.019-.052-.008-.067-.022-.007-.041-.002-.056.016"/><path d="M6.194 13.889c.02-.011.039-.019.059-.025.176.156.38.188.609.163.41-.046.796.47.648.854-.023.064-.058.126-.084.192-.07.177-.006.266.182.273l.147.008c.68.062.712.098.646.779-.011.104-.024.205.066.274.188.139.239.34.252.551a.61.61 0 0 0 .436.579 1.27 1.27 0 0 1 .236.126c.172.104.161.25.106.416-.118.354-.063.456.294.558.172.047.351.061.512.15.186.104.285.238.272.454-.007.099.01.2-.001.297-.027.255.067.381.33.431.332.064.371.146.299.482-.035.161-.029.345-.197.45-.124.048-.232-.005-.345-.044-1.646-.596-3.265-1.25-4.82-2.055a13.88 13.88 0 0 1-1.499-.914c-.07-.052-.152-.097-.171-.195l-.269-.231c-.394-.297-.561-.844-.364-1.364.108-.293.287-.541.501-.767.422-.44.925-.774 1.45-1.078.204-.12.399-.255.63-.325a.31.31 0 0 0 .075-.039m-.408-1.67l-.796.52c-.447.298-.876.615-1.265.992-.381.371-.71.776-.897 1.326-.038-.084-.071-.136-.085-.191-.598-2.314-.504-4.604.3-6.855.012-.038.037-.07.055-.106.176.003.209.146.228.266.056.386.396.556.597.827.071.098.199.061.311.049.352-.033.472.084.396.426-.044.198-.034.317.172.432.263.142.331.739.155.996-.098.142-.287.271-.163.468.119.188.326.1.495.077.607-.075.675-.013.568.584a.47.47 0 0 1-.071.189m7.037 11.045c-.801-.021-1.576-.191-2.336-.425-2.582-.79-4.638-2.303-6.168-4.526-.038-.057-.07-.117-.104-.18-.019-.056.015-.085.06-.104.108-.016.192.04.271.102 1.102.879 2.373 1.45 3.655 1.995l3.881 1.456c.103.035.212.061.284.154.078.23-.105.365-.203.527-.223.373-.18.496.227.662.168.068.424.023.457.303l-.024.036z" fill="#01466b"/><path fill="#14a0e9" d="M15.101.604c.076.322.054.646.06.974.004.211.007.211.212.231.237.021.417.194.442.433.009.089.01.181 0 .269-.023.228.073.325.271.454.287.188.508.478.809.668.091.06.132.203.085.354-.066.221-.021.452-.024.68-.001.12.063.187.183.188.203.012.408.094.604-.028.032-.021.075-.021.114-.022.137-.008.19.047.156.178l-.195.651c-.05.14-.021.229.114.285.198.084.366.196.427.422.012.042.062.087.104.104.223.097.246.258.167.461-.37.158-.751.289-1.139.398-.118-.281-.101-.595-.2-.886-.067-.19-.163-.301-.364-.321-.181-.021-.343-.084-.477-.209-.199-.205-.419-.389-.646-.563-.102-.077-.193-.168-.223-.305.09-.313.184-.617.035-.946-.079-.173-.174-.31-.359-.368-.422-.139-.594-.451-.474-.884.05-.179.063-.349.026-.527-.026-.143-.078-.264-.22-.332-.092-.045-.172-.116-.2-.213-.165-.556-.607-.772-1.104-.938-.075-.022-.149-.055-.219-.097-.05-.044-.093-.089-.062-.163.462-.084.928-.053 1.392-.022.237.009.48-.012.705.074"/><path fill="#014a72" d="M10.971 20.868c.18-.188.137-.442.204-.664.021-.071-.052-.094-.108-.116-.109-.046-.229-.049-.347-.074-.198-.045-.218-.072-.222-.282l-.002-.419c-.007-.113.055-.258-.053-.338-.142-.103-.281-.229-.475-.224-.188.009-.345-.079-.498-.165-.167-.092-.179-.146-.117-.34l.061-.168c.104-.258.111-.287-.135-.384-.4-.158-.674-.377-.659-.857.004-.142-.037-.317-.232-.378-.104-.029-.124-.137-.092-.221.065-.176.024-.356.06-.528.027-.144-.05-.178-.146-.194-.224-.045-.443-.098-.674-.092s-.333-.142-.208-.32c.223-.315.136-.567-.065-.849-.098-.135-.157-.23-.349-.155-.104.039-.235.014-.354.018-.176.005-.28-.076-.306-.254a7.02 7.02 0 0 1 1.259-.583c.535.124.729.553.892 1.006.019.058.018.127.056.168.248.256.358.53.187.879-.046.095.035.164.125.206.181.084.358.161.553.215.338.094.431.272.317.6-.043.129-.047.229.067.314.166.127.248.309.304.5.048.162.132.271.321.303.251.041.378.23.464.457.035.211-.029.41-.057.617-.022.178.021.28.21.262.514-.051.658.063.543.674-.044.231-.006.449.16.664.201.258.236.602.297.924.015.078-.029.131-.106.154-.324-.044-.646-.081-.875-.356"/><path fill="#109ce5" d="M23.709 17.477c-.209.431-.462.832-.772 1.196-.121-.034-.153-.146-.21-.237-.061-.104-.124-.201-.233-.265-.372-.204-.539-.528-.49-.944l.084-.53c.049-.336.042-.347-.287-.31-.079.008-.158.018-.236.008-.397-.047-.646-.396-.558-.779l.036-.145c.104-.418.104-.416-.282-.574-.309-.129-.515-.338-.521-.692.183-.397-.051-.664-.31-.901-.166-.147-.262-.283-.151-.506.069-.139-.028-.221-.125-.295-.158-.121-.297-.262-.375-.449-.057-.14-.107-.279.014-.416.199-.076.411-.066.616-.099.214-.032.35.06.348.293-.001.29.104.461.405.574.275.104.314.431.382.698.007.026-.001.061-.001.09-.02.584.027.634.604.6.174-.01.256.073.305.223.076.25.042.494-.055.729-.087.211-.03.356.147.488.168.12.353.226.494.384.278.21.61.314.922.456.36.163.384.19.243.547-.098.243-.188.479.018.714.027.034.01.095-.012.142"/><path fill="#139fe8" d="M22.507 15.668l-.688-.518c-.079-.074-.102-.139-.068-.234l.123-.365c.053-.136.047-.274.027-.412-.039-.275-.102-.326-.367-.244-.258.082-.407-.101-.592-.195-.058-.029-.053-.104-.025-.163.04-.085.02-.181.04-.265.073-.288-.151-.49-.209-.74-.015-.063-.084-.072-.146-.087-.353-.082-.407-.148-.426-.491-.018-.374-.047-.4-.422-.313-.159.037-.315.018-.476.025-.129-.049-.146-.178-.197-.279-.057-.104-.089-.242-.2-.285-.29-.111-.348-.34-.356-.611-.008-.211-.112-.396-.191-.585-.048-.19.029-.354.13-.502a.67.67 0 0 0-.022-.845c-.041-.055-.088-.108-.105-.178.215-.184.443-.35.688-.49.159.287.224.606.277.922.052.295.146.568.243.846.067.191.353.304.58.268.336-.056.386-.023.496.293l.216.612c.02.037.029.082.005.114-.163.224-.06.421.034.639.123.287.248.499.622.521.311.021.391.382.181.647-.218.275-.209.269.041.505.186.176.389.305.643.354.197.042.308.157.296.38l-.011 1.313c-.009.133.023.285-.141.363"/><path fill="#0995de" d="M12.35.61c.017-.015.03-.015.049-.005.164-.019.113.102.102.178-.016.088-.081.159-.119.24-.141.298-.047.503.273.582.104.025.216.037.307.104.082.064.123.156.146.253.072.28.188.51.504.604.173.05.229.238.25.41.052.388.213.714.408 1.059.217.386.469.725.746 1.055.028.064.045.137.036.203-.037.303.042.566.218.813.196.282.12.545-.094.784-.104.047-.195-.009-.271-.066-.272-.213-.592-.307-.924-.369-.194-.113-.326-.324-.564-.374-.151-.114-.18-.294-.239-.458a.97.97 0 0 1-.032-.129c-.002-.031 0-.061.008-.089.168-.263.308-.524.203-.859-.043-.141-.093-.221-.233-.267-.349-.11-.412-.211-.403-.587.004-.149-.025-.296-.038-.444-.015-.173-.116-.268-.256-.371-.438-.332-.867-.684-1.137-1.179-.084-.153-.214-.224-.354-.304-.182-.107-.424-.141-.514-.375.503-.182 1.017-.309 1.551-.354.121-.057.26.025.377-.055"/><path fill="#01527d" d="M3.926 6.167c.092-.218.218-.413.369-.594.17.004.169.134.178.25.035.473.377.771.853.752.156-.007.311-.069.471-.037.22.103.371.251.345.519-.19.332-.144.636.091.93.071.09.127.199.177.308a.57.57 0 0 0 .532.36c.221.006.354.097.385.32.02.101.029.205.07.303.106.33.271.642.326.987.02.11.106.188.16.281.09.159.225.314.104.518-.205.128-.42.236-.648.315-.177-.077-.188-.241-.203-.396-.016-.178-.066-.311-.271-.324-.116-.009-.211-.073-.252-.182-.119-.313-.352-.463-.676-.489-.059-.004-.113-.035-.163-.067-.125-.083-.195-.211-.203-.35-.019-.451-.217-.811-.538-1.114-.072-.164-.025-.329.011-.492.021-.095.064-.203-.04-.271-.37-.235-.564-.682-1.019-.823-.183-.057-.205-.22-.136-.394.039-.102.117-.192.077-.31"/><path fill="#16a2eb" d="M22.507 15.668a.57.57 0 0 0 .063-.287l.019-1.486c.01-.113-.063-.16-.147-.188l-.289-.068c-.065-.019-.144-.028-.192-.068l-.624-.538c.075-.146.189-.228.288-.323.114-.111.139-.234.08-.377-.059-.137-.173-.184-.313-.184-.029-.002-.06 0-.089-.002-.271-.006-.264-.008-.364-.267-.068-.175-.158-.343-.248-.508-.069-.125-.101-.229.028-.338.058-.05.081-.134.121-.203.125.022.246.08.378.062.158-.024.266.062.358.168l.911 1.168c.039.056.08.129.076.188-.021.271.066.53.068.797.002.296.05.354.341.361.152.006.229.058.277.208.063.205.201.382.242.604.024.143.132.241.271.293.143.057.197.154.184.305-.008.078-.004.16.043.229a.9.9 0 0 1 .136.68c-.03.186.028.347.122.5-.135.384-.311.748-.533 1.086-.018-.047-.02-.112-.05-.137-.224-.162-.199-.356-.093-.57.044-.09.074-.185.108-.276.076-.196.072-.229-.137-.304-.318-.11-.599-.313-.926-.396-.07-.022-.103-.063-.109-.129"/><path fill="#0995de" d="M20.296 14.176c.023.36.219.579.564.672l.198.053c.118.037.182.104.141.244l-.155.632c-.037.112 0 .184.068.265.205.241.441.362.76.248.027-.01.058-.015.087-.02.21-.021.281.041.242.25l-.127.758c-.06.285.135.48.202.723.012.038.058.059.098.057.247-.006.336.176.427.354l.134.268c-.188.301-.406.577-.666.821-.188-.067-.384-.026-.576-.037-.026-.015-.043-.036-.047-.067.064-.323.209-.618.327-.922.062-.16.08-.285-.157-.234-.271.057-.434-.069-.537-.311-.092-.207-.247-.38-.318-.601-.048-.149-.194-.181-.333-.217-.167-.04-.364-.038-.445-.243-.047-.242-.013-.492-.064-.735-.032-.146-.093-.247-.229-.319-.212-.111-.38-.277-.509-.481.017-.233.007-.46-.077-.69-.1-.278.078-.483.279-.658.246.024.498.043.713.19"/><path fill="#0793dc" d="M19.581 13.995c.001.089-.061.144-.111.203-.137.157-.176.333-.063.521.115.198.105.396-.006.59-.193.143-.348.045-.454-.11-.21-.308-.482-.589-.412-1.017.019-.107-.031-.22-.12-.293-.169-.14-.243-.334-.317-.527-.077-.203-.132-.413-.396-.473-.113-.022-.152-.156-.166-.265-.034-.278-.176-.479-.415-.616-.201-.293-.433-.553-.753-.731-.236-.136-.271-.372-.217-.624.015-.067.045-.133.068-.195.137-.343.137-.343-.176-.469.124-.126.27-.221.425-.297.234.025.456.115.694.134.197.013.296.159.313.344.045.448.334.654.729.749.213.053.27.18.244.371-.013.079-.017.161-.042.232-.147.397.041.682.333.902.259.195.403.456.525.74.015.037.023.076.035.113.009.021.015.043.022.064l.037.09a.29.29 0 0 1 .025.057l.042.084c.013.018.021.035.028.055l.029.057c.012.021.021.039.027.06s.021.037.029.058.018.036.025.059c.016.027.026.057.037.088.008.018-.002.035-.019.046"/><path fill="#014f79" d="M10.737 17.879l-.213-.244c-.068-.078-.151-.142-.262-.104-.146.049-.199-.045-.248-.146a1.67 1.67 0 0 1-.094-.25c-.048-.189-.141-.353-.314-.449-.145-.076-.123-.174-.065-.299.159-.35.067-.533-.324-.586-.227-.033-.385-.197-.598-.244-.078-.017-.099-.094-.083-.17a.44.44 0 0 1 .037-.109c.121-.264.146-.494-.133-.691-.151-.104-.092-.329-.196-.48-.068-.099-.126-.215-.154-.349-.021-.102-.082-.233-.231-.233-.176 0-.264-.114-.346-.241a5.56 5.56 0 0 1 1.016-.42c.012.247.158.405.334.562.199.176.412.346.482.627.034.135.162.161.284.185.16.026.288.11.327.271.091.376.275.648.688.706.125.12.229.254.276.427.031.162-.058.28-.158.396-.192.227-.23.83-.078 1.07.048.072.121.1.2.117l.458.131c.313.119.37.287.194.578-.046.075-.096.15-.174.2-.25.016-.467-.044-.625-.255"/><path fill="#0184c9" d="M21.375 20.395c-.288.296-.607.554-.958.771-.136-.069-.215-.203-.334-.292a.3.3 0 0 1-.106-.371c.011-.027.021-.057.026-.085.143-.604.078-.678-.506-.557l-.146.026c-.32.051-.401-.029-.354-.35.011-.079.023-.158.045-.232.066-.231.035-.404-.23-.486-.183-.059-.246-.219-.26-.398-.009-.14-.021-.277-.128-.387l-.065-.059-.099-.09c-.231-.195-.177-.438-.112-.686.086-.322.082-.327-.225-.393-.129-.026-.224-.1-.271-.211-.144-.328-.399-.5-.737-.582-.027-.013-.052-.028-.072-.053s-.034-.051-.042-.081c.084-.298.28-.521.488-.739.327-.09.609.028.886.185.36.187.542.46.483.879-.022.158.057.31.095.461.005.603.235.994.905.989.057-.002.11.031.16.068.109.123.08.264.03.395-.087.234-.077.441.125.619.044.038.089.09.099.146.125.649.742.856 1.133 1.27.065.073.2.095.17.243"/><path fill="#017cbd" d="M7.987 2.094c.234-.176.496-.308.771-.414.218.062.235.262.301.426.009.152-.061.287-.114.424-.165.43-.155.441.292.457.089.002.178-.001.265.021.33.123.396.396.397.702a.67.67 0 0 0-.037.593c.072.186.158.291.375.306.302.019.354.135.235.413-.053.125-.144.234-.169.396.292.063.622-.064.873.171.12.177.23.359.391.507a.42.42 0 0 1 .141.313.5.5 0 0 1-.178.422 2.54 2.54 0 0 0-.364.432c-.403.021-.438.008-.589-.341-.116-.265-.32-.452-.532-.629-.146-.123-.2-.245-.149-.438.088-.336-.063-.574-.399-.67-.107-.032-.215-.044-.297-.128-.135-.152-.191-.349-.26-.529-.08-.215-.155-.424-.324-.592-.113-.11-.103-.271-.11-.42s-.048-.287-.19-.381c-.353-.234-.476-.64-.329-1.041"/><path fill="#014a71" d="M5.063 8.44c.322.232.547.516.545.947a.74.74 0 0 0 .17.485c.021.021.054.051.049.072-.106.468.191.877.184 1.33-.005.267.207.3.405.34.092.021.228-.062.26.104l-.005.004c-.029.035-.084.022-.113.062l-.003.001c-.03.033-.087.021-.114.063h-.003c-.032.029-.092.021-.114.063-.167.126-.347.228-.536.308-.002-.16-.014-.313.031-.475.062-.213.013-.255-.223-.259-.208-.003-.408.067-.619.069-.125.002-.209-.008-.268-.119s-.104-.219-.01-.334c.023-.028.037-.072.065-.099.23-.187.24-.421.183-.688-.044-.205-.087-.386-.333-.425-.122-.022-.166-.084-.115-.213.039-.103.064-.21.081-.316.028-.194-.074-.32-.252-.255-.343.132-.521-.026-.669-.296-.027-.049-.073-.111-.122-.127-.21-.067-.224-.248-.269-.418-.033-.132-.031-.282-.172-.364.068-.254.168-.492.301-.72.029-.031.016-.084.054-.111v-.005c.196.07.265.271.405.401.258.232.579.416.666.802.025.117.144.109.247.102s.222-.055.294.071"/><path fill="#0490d9" d="M10.423 1.02c.217.162.466.268.707.385.113.057.201.117.225.255.038.223.196.364.367.487s.328.256.426.447c.08.158.248.194.391.256.111.05.174.104.188.229.029.23.106.456.06.698-.043.211.094.377.313.421l.202.05c.094.021.131.079.126.173-.008.141.022.273.054.409.025.118.011.231-.086.332-.08.086-.139.19-.207.291-.193.083-.367-.024-.487-.13-.218-.186-.443-.365-.619-.598-.031-.146.037-.272.081-.401.052-.156.022-.271-.128-.353-.109-.055-.198-.129-.236-.252-.103-.319-.297-.514-.66-.469-.058.008-.116-.013-.171-.043-.138-.105-.12-.263-.128-.41-.01-.209-.084-.369-.261-.505-.253-.192-.482-.424-.518-.768-.015-.138-.191-.181-.162-.33a1.69 1.69 0 0 1 .523-.174"/><path fill="#015b8b" d="M16.591 22.951a.54.54 0 0 1-.357.063c-.012-.002-.023-.004-.036-.004-.085-.028-.155-.084-.238-.119l-.185-.068c-.19-.135-.436-.186-.59-.376-.053-.116-.178-.197-.199-.326-.068-.421-.293-.743-.551-1.078-.23-.302-.473-.509-.839-.575-.13-.231-.252-.47-.343-.724-.025-.222.113-.364.244-.508.109-.122.216-.25.343-.356.243-.018.45.071.606.249.205.233.426.435.729.525.088.024.153.089.199.169.068.128.166.244.201.389.126.442.203.901.456 1.301.034.061.063.123.062.194-.027.151-.144.253-.222.374-.163.253-.167.252.14.309.125.021.251.031.375.068.104.031.208.063.255.178.035.111.036.221-.05.315"/><path fill="#0c98e1" d="M19.221 13.278c-.056-.261-.188-.511-.372-.66-.161-.129-.275-.298-.438-.419-.147-.111-.167-.262-.133-.428l.101-.489c.033-.19.001-.228-.188-.277-.205-.052-.381-.168-.563-.265-.071-.037-.118-.102-.134-.188l-.078-.347c-.07-.274-.124-.334-.398-.329-.213.005-.386-.062-.546-.188.327-.258.667-.496 1.022-.713.203-.002.197.172.226.291.056.233.16.396.425.412.119.008.189.095.244.191.174.261.244.551.239.859-.001.085.015.179.103.195.332.066.395.351.498.603l.059.136c-.027.332.139.564.385.757.047.037.104.063.145.105.076.082.113.157.045.284-.116.221-.104.229.104.399.134.109.222.253.316.392.128.186.175.375.019.569-.248-.021-.495-.052-.716-.18v-.06c-.022-.021-.037-.043-.062-.062v-.062c-.021-.02-.036-.043-.061-.06v-.058c-.021-.02-.037-.042-.061-.06v-.061c-.021-.019-.036-.042-.061-.06v-.061c-.021-.018-.037-.042-.06-.061v-.053c-.021-.01-.037-.034-.06-.052"/><path fill="#0189d0" d="M12.112 4.735c.203.122.38.271.529.456.139.169.356.188.543.262.002.02.002.038.002.061.021.019.036.041.061.061.031.169.098.325.18.479.024.279-.136.508-.226.754-.068.189-.097.33.141.426.213.085.25.316.325.511s.143.349.402.362c.153.007.328.106.254.341a2.52 2.52 0 0 1-.602.229c-.092-.317-.34-.433-.634-.49-.31-.063-.452-.227-.479-.568-.027-.401-.354-.645-.677-.841-.146-.093-.286-.171-.301-.363.022-.147-.077-.233-.173-.319-.145-.125-.254-.27-.305-.455-.07-.355.147-.61.305-.89.22-.112.435-.153.655-.016"/><path fill="#015e90" d="M6.079 7.066c.031-.242-.135-.359-.299-.479-.203-.188-.213-.438-.196-.686.014-.22-.054-.369-.249-.488-.219-.136-.366-.354-.514-.563.094-.159.207-.303.35-.422.03-.014.056-.029.063-.064l-.007.004c.04-.01.063-.037.063-.077.002-.021.012-.034.033-.039.005-.021.018-.033.039-.04l.013-.015a.09.09 0 0 1 .047-.049l.01-.012a.14.14 0 0 1 .05-.053l.006-.008a.3.3 0 0 1 .053-.054l.006-.008c.017-.021.034-.037.053-.055l.007-.006c.016-.02.032-.036.053-.054l.004-.006c.017-.02.036-.038.054-.057l.004-.005.058-.053.006-.006c.016-.02.033-.036.054-.052l.005-.009c.017-.019.035-.037.056-.053l.006-.005c.017-.02.037-.027.062-.03s.047.001.068.015c.03.02.054.045.071.073s.024.065.034.101l.037.097c.011.024.019.046.025.071.011.039.02.076.021.117-.003.026-.012.056-.022.08-.156.184-.298.35-.2.637.074.211.152.353.386.385s.315.181.306.4c-.002.09.017.184 0 .269-.056.278.015.44.335.412.104-.008.199.059.242.15.114.252.31.407.557.511.035.015.058.054.072.092.004.039.012.087-.021.11-.245.187-.366.463-.534.708-.152.02-.229-.099-.313-.187-.269-.278-.638-.393-.954-.597"/><path fill="#0187ce" d="M9.897 1.197c.146.111.232.23.264.443.037.258.25.478.475.604.23.132.262.319.281.533.012.136-.018.274.063.401-.05.272.049.455.289.609.301.192.354.537.196.95-.29-.021-.544-.156-.809-.257-.134-.051-.179-.185-.197-.313-.032-.223-.14-.334-.373-.32-.101.005-.199-.022-.243-.133-.027-.27-.076-.526-.359-.655-.095-.104-.104-.236-.106-.356-.003-.282-.116-.48-.371-.602l-.249-.425a3.95 3.95 0 0 1 .958-.416c.037-.026.09-.017.124-.049.018-.001.038-.007.057-.014"/><path fill="#008cd4" d="M16.043 9.987a.72.72 0 0 0 .29-.036c.105-.032.156.029.119.131l-.194.463c-.12.268-.089.587.245.742.303.143.501.374.629.677-.166.339-.113.73-.271 1.07-.225.101-.41.007-.595-.116-.177-.117-.315-.291-.532-.353-.211-.097-.459-.146-.516-.427-.013-.449-.058-.888-.389-1.235-.034-.036-.039-.091-.036-.142.326-.127.586-.357.876-.539.126-.077.234-.18.374-.235"/><path fill="#0177b5" d="M12.463 11.479c.369-.148.75-.269 1.139-.355.035-.021.095-.035.105-.006.095.283.409.363.551.604.047.266.021.531.019.799 0 .11-.016.227.105.285.203.1.313.275.382.474a12.41 12.41 0 0 0 .41 1.01c-.218.312-.415.365-.793.228-.233-.295-.634-.443-.725-.867-.039-.178-.085-.35.008-.519.085-.153.03-.256-.099-.354a1.22 1.22 0 0 0-.45-.22c-.167-.041-.308-.143-.29-.323.026-.335-.103-.574-.362-.756"/><path fill="#016fa8" d="M12.463 11.479c.376.134.424.197.426.569.001.36.003.355.382.458.215.062.363.232.535.361.063.047.039.129-.011.188-.155.182-.161.377-.062.582.088.18.106.398.349.482.155.052.237.203.301.352.026.277-.229.688-.489.791-.181-.141-.138-.358-.176-.545-.049-.238-.121-.383-.407-.316-.139.031-.295.023-.435-.039-.118-.074-.215-.166-.264-.303.021-.301-.154-.561-.179-.852 0-.101.037-.193.06-.289.028-.141-.012-.242-.133-.326-.479-.332-.479-.332-.298-.886.014-.037.034-.071.037-.11a.83.83 0 0 1 .364-.117"/><path fill="#0d99e2" d="M15.159 6.887c.014-.047.016-.104.043-.141.158-.212.154-.431-.012-.623-.229-.263-.229-.564-.211-.88v-.147c.222-.201.454-.222.656-.063a.78.78 0 0 0 .24.26c.22.15.411.329.596.518.12.18.073.359.018.541-.051.16-.1.317-.103.49-.005.229.095.326.318.32.106-.005.218-.007.323.01.117.021.242.038.233.203l-.004-.002c-.041.02-.093.016-.128.05l-.002.003c-.047.051-.131.002-.176.063h0c-.051.05-.135-.002-.18.063l.002-.003c-.053.048-.139-.005-.183.064l.004-.003c-.04.022-.091.018-.126.052l-.017.013-.021-.003c-.046.021-.102.013-.141.054a3.53 3.53 0 0 1-.712.26c-.106-.098-.066-.219-.045-.329.029-.179-.023-.295-.188-.386-.131-.079-.303-.166-.184-.384"/><path fill="#0173af" d="M7.987 2.094c-.013.237.093.465.065.705-.015.127.087.18.181.201.306.076.368.297.353.563-.01.173.036.309.171.416.118.099.169.22.207.375.056.234.185.455.282.681.011.304-.239.415-.42.576-.06.021-.118.025-.179.015-.171-.069-.306-.185-.4-.341a.34.34 0 0 1 .031-.258c.121-.226.048-.351-.188-.409-.116-.031-.23-.071-.332-.13s-.16-.122-.096-.261a.71.71 0 0 0-.505-.991c-.125-.107-.256-.21-.348-.351.363-.309.752-.576 1.178-.791"/><path fill="#015784" d="M10.618 15.25c-.055-.02-.113-.06-.166-.055-.256.025-.385-.1-.445-.332-.012-.049-.037-.092-.049-.139-.064-.26-.164-.472-.491-.438-.104.012-.165-.079-.184-.164-.074-.358-.355-.565-.609-.769-.196-.154-.233-.289-.146-.496a5.38 5.38 0 0 1 .951-.361c.076-.046.146-.018.165.057.093.396.413.482.741.567.114.073.205.162.225.304a1.23 1.23 0 0 0 .086.978c.139.263.108.578-.078.848"/><path fill="#0169a0" d="M8.289 5.274l.358.299c.062.069.056.147.019.219-.123.237-.183.499-.3.735-.027.02-.06.023-.09.017-.334-.146-.516-.431-.646-.745-.118-.285-.292-.41-.611-.392-.387.023-.42-.037-.376-.434l.014-.179c.031-.431.031-.429-.359-.61-.047-.021-.08-.059-.099-.104-.035-.033-.022-.09-.062-.121l-.001-.06c-.02-.02-.034-.043-.058-.061l-.001-.119-.061-.062c-.022-.012-.041-.033-.052-.057.253-.272.535-.514.844-.72.168.037.25.175.344.3.096.192-.021.371-.055.549-.048.258-.013.418.271.49.226.057.357.226.338.465-.023.3.078.476.398.492.073.006.133.049.185.098"/><path fill="#01669c" d="M8.289 6.528h.061c.396.063.738.229 1.009.532a.69.69 0 0 1 .08.318c-.007.238-.128.458-.083.706.039.217.035.436.278.551.095.045.103.162.103.265s-.01.2-.038.293c-.078.267-.007.433.271.521.148.048.347.114.235.356-.251.135-.514.248-.784.338-.084-.135-.067-.288-.076-.438.099-.342-.082-.613-.223-.896-.064-.127-.188-.164-.314-.201-.298-.089-.351-.178-.3-.477a2.06 2.06 0 0 1 .055-.229c.045-.144.009-.241-.152-.245-.266-.005-.359-.171-.4-.396-.026-.146-.098-.282-.106-.432.033-.248.186-.424.384-.566"/><path fill="#0180c3" d="M11.634 6.407c.07.137.176.228.319.282.179.067.331.176.421.354.021.043.057.085.098.111.214.134.24.34.239.564-.002.25.005.25.242.332l.392.133c.346.101.354.106.379.485-.312.142-.626.271-.955.365-.06-.104-.082-.22-.142-.323-.208-.354-.226-.377-.629-.295-.25.053-.374-.034-.413-.273a.9.9 0 0 0-.223-.529c-.09-.104-.237-.191-.207-.369-.021-.218.166-.302.283-.428.113-.119.232-.222.196-.409"/><path fill="#008cd5" d="M21.375 20.395c-.381-.258-.657-.649-1.081-.853-.07-.032-.1-.088-.121-.155-.092-.28-.169-.564-.411-.772-.114-.101-.071-.259-.024-.392.053-.149.102-.302.082-.463-.052-.08-.062-.148.043-.191.111.242.319.313.566.349.381.056.665.343.728.718.038.229.118.416.319.543.094.062.164.146.196.256h0c.234.185.14.401.068.619-.103.134-.225.249-.365.341"/><path fill="#016398" d="M16.591 22.951l.002-.354c-.126-.182-.044-.362.01-.535.066-.213 0-.291-.215-.28-.115.005-.238.013-.332-.08l-.135-.228c-.116-.186-.388-1.035-.404-1.268.297-.188.631-.271.963-.359.207.026.328.17.344.352.021.311.16.58.254.865.014.101.019.207-.033.291-.135.224-.053.393.104.56s.295.343.338.583c.022.124.002.186-.111.221-.253.116-.514.189-.785.232"/><path fill="#017fc2" d="M18.385 17.939c.207.033.245.195.234.355-.021.285.083.46.371.514.15.023.191.125.17.259l-.104.521c-.044.229.007.277.225.231l.84-.185c-.03.33.067.639-.09.931-.062.11-.003.179.092.243.128.091.271.176.294.354a3.93 3.93 0 0 1-.834.546c-.069-.172-.021-.351-.016-.523.007-.237-.075-.394-.3-.482-.127-.051-.251-.111-.357-.201a.46.46 0 0 1-.15-.223c.008-.038-.021.004-.001-.029.352-.548-.109-.827-.383-1.169-.131-.164-.352-.021-.49-.149a.5.5 0 0 1-.145-.27c.092-.351.367-.538.644-.723"/><path fill="#015a8a" d="M9.423 9.993c-.031.139.064.276 0 .416l-1.436.655c-.021-.221-.084-.42-.25-.579-.039-.04-.095-.095-.096-.144-.005-.388-.242-.701-.31-1.065.074-.042.154-.036.226-.012.327.11.676.082 1.01.145.19.186.381.367.685.347.153-.013.122.152.171.237"/><path fill="#0171ac" d="M11.694 9.458c-.289.142-.586.271-.896.363-.021-.23-.114-.408-.327-.521-.087-.047-.174-.125-.187-.225-.061-.484-.399-.852-.524-1.311-.023-.088-.113-.178-.001-.268.137-.063.284-.084.43-.113.342-.074.492.036.563.381.04.201-.075.451.094.596.15.127.383.029.577.063.09.014.174.037.233.113.098.23.063.488.143.727.027.083-.035.147-.105.195"/><path fill="#018dd6" d="M14.324 8.442c-.116-.27-.169-.314-.403-.272-.12.021-.168-.023-.205-.113l-.174-.439c-.067-.184-.145-.348-.367-.384-.135-.024-.164-.108-.111-.242l.363-.938c.281-.033.395.186.537.358.061.438.332.769.563 1.12.102.154.217.275.367.379.094.063.258.138.086.292-.21.104-.428.186-.656.239"/><path fill="#016aa1" d="M9.722 7.544c.165.226.216.503.341.748.022.044.021.11.054.136.178.146.228.332.208.555-.01.099.064.16.134.22.06.05.127.09.19.136.246.169.25.182.151.485-.185.11-.385.188-.592.25.019-.165-.101-.217-.22-.274-.147-.07-.374-.064-.418-.234-.036-.147.044-.323.07-.487a1.52 1.52 0 0 0 .022-.175c.017-.137-.033-.238-.171-.27-.162-.034-.163-.148-.191-.282-.068-.338-.004-.66.066-.984.146-.001.248.094.356.176"/><path fill="#014e76" d="M6.676 11.723c-.034-.043-.08-.063-.131-.043-.234.101-.394-.056-.567-.162-.078-.047-.1-.136-.063-.209.072-.152.035-.297-.027-.432-.12-.256-.215-.508-.109-.796.021-.061.003-.139.004-.208l.458.102c.154.021.254.084.31.23.021.055.078.098.09.148.043.189.159.246.345.24.162-.002.221.07.227.31.004.176.051.327.131.477-.215.138-.439.249-.668.343"/><path fill="#015683" d="M4.821 4.852c.109.007.177.08.23.164.115.18.257.33.451.418a.24.24 0 0 1 .156.261l-.001.06c-.027.286.021.563.121.834-.229.064-.474.037-.702.089-.099.021-.15-.017-.208-.074l-.318-.313c-.133-.118-.222-.234-.153-.433.034-.098.019-.221-.104-.282a3.49 3.49 0 0 1 .528-.724"/><path fill="#0692db" d="M14.979 8.2c.054-.087.023-.171-.059-.196-.316-.102-.421-.398-.593-.631-.047-.063-.081-.139-.134-.197-.188-.224-.275-.475-.23-.769.301-.003.574.077.822.25.117.084.249.153.373.229-.018.181.099.264.238.326.239.111.276.176.23.424-.021.113-.066.226-.046.346a2.54 2.54 0 0 1-.601.218"/><path fill="#014e77" d="M5.063 8.44c-.129-.055-.257-.006-.375.019s-.188.018-.224-.107c-.078-.267-.214-.478-.454-.649-.224-.162-.437-.366-.56-.634.067-.22.174-.414.303-.601.021-.023.041-.048.045-.08-.007-.02 0-.033.021-.041.016-.02.028-.042.041-.064l-.002.005c.049-.022.034-.084.065-.116l.002-.002c.063.014.126.027.093.111l-.128.272c-.046.107-.019.189.093.244l.368.193c.175.099.341.204.402.413.033.107.13.146.221.186.209.095.207.095.156.324-.039.171-.088.347-.067.527"/><path fill="#0181c5" d="M14.203 11.727c-.042-.105-.146-.133-.231-.176-.139-.064-.27-.13-.252-.318.007-.072-.055-.098-.118-.109.392-.145.784-.275 1.191-.359l.345.438c.13.187.105.41.137.62.019.104.004.216.004.322-.287.154-.52-.086-.779-.111-.179-.022-.278-.132-.297-.307"/><path fill="#016aa1" d="M17.372 22.719c.023-.026.076-.074.068-.087-.096-.163-.043-.382-.222-.521-.127-.102-.214-.251-.326-.374-.065-.077-.038-.144-.001-.216.069-.131.142-.26.119-.418.18-.002.352.057.529.051s.269.115.326.259a.79.79 0 0 0 .58.502c.086.095.197.181.119.332a5.18 5.18 0 0 1-1.192.472"/><path fill="#119de6" d="M17.263 7.376c-.058-.114-.157-.135-.271-.134-.157.005-.316.01-.475-.003-.172-.017-.202-.079-.214-.25-.017-.238.023-.466.115-.685.068-.16.052-.328.055-.494.16.17.378.209.59.229.174.02.221.098.267.252.081.285.159.567.182.864.003.053-.003.097-.021.146a.38.38 0 0 1-.228.075"/><path fill="#016194" d="M10.557 13.398l-.179-.239c-.135-.36 0-.69.116-1.022.169-.093.349-.149.537-.187.255.021.423.198.603.345.172.141.04.305-.009.46-.12.293-.344.5-.58.698-.167.036-.335.063-.488-.055"/><path fill="#0169a0" d="M11.575 12.741c.097-.347.097-.347-.192-.545l-.35-.247a6.52 6.52 0 0 1 1.065-.354c.047.029.064.066.043.125l-.093.276c-.092.289-.086.306.171.438.436.228.447.258.273.729-.008.018-.018.035-.024.055-.423.195-.929-.073-.893-.477"/><path fill="#0173af" d="M18.567 22.245c.01-.122-.132-.185-.121-.305.061-.222.015-.4-.139-.589-.363-.455-.312-.735.178-1.135.113-.033.224-.033.316.051l.12.18c.129.206.021.424.021.634 0 .265.034.464.344.515.083.016.203.041.182.184-.28.195-.582.347-.901.465"/><path fill="#109ce5" d="M18.385 9.873c-.135-.145-.331-.118-.497-.168-.099-.031-.148-.063-.169-.168-.023-.136-.079-.266-.109-.398-.018-.073-.052-.129-.118-.16a7.1 7.1 0 0 1 .843-.598c.105.002.154.074.188.16.045.107.077.221.17.305.068.063.053.146.007.217-.095.149-.122.332-.231.477-.077.097-.093.212-.084.333"/><path fill="#017dbe" d="M11.694 9.458c.027-.071.086-.144.037-.219-.138-.213-.089-.45-.099-.681-.081-.141-.123-.279 0-.418.043.028.06.074.063.127.014.106.093.129.172.099.113-.042.236-.022.342-.072.141-.063.23.003.303.104.103.142.187.296.279.442.045.073.006.132-.021.194a8.29 8.29 0 0 1-1.076.424"/><path fill="#0178b7" d="M19.468 21.777c-.105-.126-.263-.117-.4-.154s-.211-.105-.209-.268c.004-.305.011-.606.064-.908l.557.279c.072.035.154.074.152.164-.005.272.059.553-.05.818-.026.049-.068.063-.114.069"/><path fill="#0d99e2" d="M12.948 1.749c-.106-.01-.206-.051-.313-.065-.399-.061-.5-.371-.34-.683.04-.078.098-.146.146-.222.041-.067.029-.129-.043-.174.198-.074.405-.06.61-.059l.06.124c.064.372.067.737-.12 1.079"/><path fill="#025b8b" d="M10.496 12.135c.032.24-.05.469-.083.701l-.033.322c-.238-.014-.467-.042-.637-.245-.069-.083-.15-.153-.144-.278.009-.084-.038-.128-.12-.138.326-.151.666-.274 1.017-.362"/><path fill="#0692db" d="M21.74 20.053c-.034-.207.04-.423-.068-.621.121-.02.235-.069.363-.062.103.007.188.021.235.126-.151.209-.328.395-.53.557"/><path fill="#01466b" d="M4.035 17.764c.088.098.2.166.269.282l-.089.087c-.106-.104-.187-.227-.225-.373.017-.02.032-.019.045.004"/><path fill="#0d99e2" d="M12.35.61c-.11.112-.25.047-.377.057.119-.067.249-.058.377-.057"/><path fill="#88d5f7" d="M21.55 5.93c.006-.01.012-.018.02-.021.043-.031.105-.063.127-.012s-.035.08-.088.092l-.059-.059"/><path fill="#01466b" d="M3.925 17.699c-.033-.018-.063-.047-.031-.079.015-.013.063.012.094.021.016.014.021.028.02.043s-.008.024-.012.024c-.027.017-.05.011-.071-.009"/><g fill="#119de6"><path d="M16.774 7.549c.041-.076.11-.063.18-.063-.049.055-.111.065-.18.063"/><path d="M16.595 7.611c.039-.082.112-.067.181-.064-.047.058-.112.063-.181.064m.358-.125c.041-.073.11-.063.176-.063-.047.054-.109.066-.176.063"/></g><path fill="#0490d9" d="M9.84 1.217c-.031.047-.076.053-.125.049.032-.043.075-.054.125-.049"/><path fill="#016397" d="M5.967 3.602l.053.058-.115.002c.008-.035.031-.053.062-.06"/><path fill="#014e76" d="M6.323 11.912c.019-.055.063-.064.115-.064-.023.048-.067.061-.115.064"/><path fill="#119de6" d="M16.295 7.723c.033-.056.085-.058.141-.051-.037.045-.088.055-.141.051"/><path d="M6.44 11.848c.021-.05.063-.063.113-.062-.025.044-.064.062-.113.062m.116-.063c.023-.049.065-.061.113-.061-.024.042-.061.062-.113.061" fill="#014e76"/><path fill="#119de6" d="M16.472 7.66c.029-.049.075-.057.126-.052-.029.047-.074.055-.126.052"/><path fill="#01466b" d="M3.925 17.699l.065-.001c.021-.021.04-.015.051.013l-.007.006c.003.017.003.031.001.047l-.023.002-.021-.006c-.042 0-.06-.026-.066-.061"/><path fill="#01527d" d="M3.925 6.169c.001.052-.01.097-.066.116.003-.051.019-.093.066-.116"/><path fill="#119de6" d="M17.131 7.423c.029-.052.076-.058.128-.05-.03.049-.079.055-.128.05"/><path fill="#014e77" d="M3.451 7.07c0 .045-.011.087-.054.111-.006-.046.015-.083.054-.111"/><path fill="#014a72" d="M6.194 13.889l-.07.039c.012-.032.037-.045.07-.039"/><g fill="#016397"><path d="M5.899 3.666l-.055.053c.003-.031.022-.05.055-.053"/><path d="M5.839 3.727l-.054.053c.004-.033.02-.051.054-.053"/></g><path fill="#01466b" d="M4.041 17.711c-.021.001-.036-.003-.051-.013 0-.021-.001-.039-.003-.06.029.016.049.04.054.073"/><g fill="#016397"><path d="M5.778 3.784l-.058.053c.004-.032.025-.05.058-.053"/><path d="M5.719 3.842l-.055.058c.002-.036.018-.054.055-.058"/><path d="M5.66 3.903c-.02.018-.035.037-.054.055.002-.032.022-.05.054-.055m-.062.061c-.017.02-.035.036-.052.054.003-.033.021-.049.052-.054m-.057.061l-.052.055c.002-.035.019-.053.052-.055"/><path d="M5.481 4.087l-.05.052c.001-.031.019-.049.05-.052m-.058.063l-.047.049c.001-.03.015-.046.047-.049m-.061.063c-.008.017-.021.032-.038.04-.001-.026.014-.039.038-.04"/><path d="M5.292 4.292c-.003.04-.024.067-.063.077.006-.037.028-.062.063-.077"/><path d="M5.233 4.364c-.007.035-.026.058-.062.066.006-.035.025-.058.062-.066"/></g><path d="M3.862 6.28c-.017.023-.028.043-.043.066-.004-.033.009-.056.043-.066m-.061.109c-.002.033-.016.062-.045.078-.003-.037.009-.063.045-.078" fill="#01527d"/><path fill="#014c73" d="M13.729 22.238c.161.313.213.67.407 1.008H12.83c-.047-.104-.119-.157-.24-.186-.235-.058-.473-.131-.632-.347-.065-.084-.065-.134-.016-.229.125-.245.332-.44.408-.714l1.379.468"/><path fill="#109ce5" d="M12.948 1.749c.065-.356.025-.725.119-1.076.197-.003.351.13.53.179.415.107.681.373.816.777.049.146.13.271.299.301.063.013.121.047.13.107.036.271.141.53.014.814-.104.228.019.459.103.678.026.07.113.064.184.072a.55.55 0 0 1 .557.48l.055.199c.063.205.092.404-.082.579-.043.045-.033.112-.034.171-.229-.102-.439.013-.656.063-.199-.137-.344-.328-.519-.49-.014-.012-.035-.028-.037-.045-.058-.375-.354-.623-.514-.941-.103-.201-.065-.425-.12-.637-.055-.206-.108-.374-.355-.406-.162-.021-.254-.139-.304-.293l-.186-.532"/><path fill="#014e77" d="M13.411 21.708c-.545-.146-1.079-.327-1.603-.542.052-.01.1-.02.079-.092l-.224-.796c-.019-.056-.054-.13-.097-.144-.188-.063-.178-.205-.176-.356a3.75 3.75 0 0 1 .053-.589c.05-.252 0-.293-.256-.295-.119-.002-.237.002-.356-.002-.203-.006-.238-.055-.198-.256.048-.25.102-.502.104-.76.188.112.401.147.599.238.135.045.166.168.19.281.049.22.188.313.396.34.146.019.298.025.436.097.026.017.05.032.068.058.01.026.014.057.012.086-.047.213-.119.418-.185.627-.032.102-.077.233.063.281.346.107.447.41.558.689a2.15 2.15 0 0 0 .505.787c.07.068.133.15.161.248.041.136-.037.132-.129.1"/><path fill="#0490d9" d="M13.248 5.572l-.06-.061.06.061z"/><path fill="#015886" d="M6.079 7.066c.427.069.753.313 1.053.604.063.063.117.137.201.174.036.024.053.063.064.104l.053.16c.102.21-.012.394-.065.587-.035.096-.026.208-.11.283-.063-.167-.15-.255-.36-.251-.225.003-.436-.077-.539-.336-.085-.209-.225-.396-.345-.588-.13-.199-.173-.396-.019-.604.029-.04.043-.089.067-.133"/><path fill="#015e8f" d="M7.272 8.979c.017-.102-.039-.217.062-.301.37-.108.752-.084 1.087.063.292.129.21.45.167.713-.43.022-.851-.021-1.254-.179-.101-.083-.045-.198-.062-.296"/><path fill="#028ed7" d="M16.832 13.039c.024-.193.069-.384.063-.582s.114-.349.234-.493c.219.095.429.195.434.487 0 .075.03.152.055.229.031.101.076.192.201.18.152-.018.207.068.246.195l.164.442c.043.099.066.229.162.276.267.13.251.355.217.578-.021.111-.002.178.063.267.102.142.18.302.268.454.11.191.252.265.461.236.125.065.205.187.308.275.044.04.083.105.133.115.42.084.349.438.394.718.022.146.004.295.004.443-.03.231-.118.421-.373.479-.301-.283-.607-.561-1.049-.596-.053-.005-.095-.029-.132-.064-.124-.226-.135-.47-.116-.718.013-.192-.02-.35-.234-.416-.085-.026-.146-.097-.188-.181.019-.371-.017-.708-.428-.885-.092-.041-.047-.198-.02-.305a.74.74 0 0 0-.594-.896c-.027-.004-.058-.012-.086-.021-.083-.051-.2-.078-.187-.217"/><path fill="#0692db" d="M19.879 17.342c.126-.154.274-.294.358-.479.089.181.277.146.421.17.239.04.348.148.428.38.084.247.244.474.386.697.068.106.199.073.305.058.115-.018.254-.113.334-.005s-.029.242-.074.358l-.363.91-.396-.308c-.166-.129-.172-.323-.198-.505-.041-.273-.345-.589-.612-.624-.097-.013-.191-.039-.289-.058-.287-.053-.287-.053-.297-.358-.071-.078-.071-.157-.003-.236"/><path d="M19.52 13.876l.06.06-.06-.06m-.059-.119l.06.062-.06-.062m-.06-.118l.06.061a.7.7 0 0 0-.06-.061m-.06-.119l.061.058-.061-.058m-.059-.122l.06.06-.06-.06m-.061-.12l.062.06c-.023-.02-.041-.039-.062-.06" fill="#0995de"/><path fill="#015b8b" d="M10.557 13.398h.539c.339.231.645.5.835.871-.052.269.026.533.013.799-.004.099.048.176.123.227.347.231.367.583.357.948-.038.204-.109.388-.285.517-.027.012-.059.021-.09.019-.536-.072-.821-.474-1.12-.857-.071-.094-.003-.218-.071-.31l-.239-.358c-.003-.208.094-.405.062-.618-.01-.066.014-.146-.031-.203-.271-.329-.258-.676-.093-1.035"/><path fill="#015480" d="M10.858 15.609c.141.354.403.617.67.879.071.07.164.104.258.14s.195.036.267.116c.065.211-.081.354-.17.516-.147.267-.112.344.183.326.234-.015.354.096.405.303l.142.608c.041.187.007.337-.199.397-.204-.036-.406-.102-.61-.104-.226-.004-.291-.151-.331-.313-.031-.127-.079-.241-.135-.357l.206-.361c.072-.154.033-.234-.128-.298-.203-.079-.413-.146-.629-.171-.139-.018-.214-.089-.213-.202.002-.221-.077-.429-.077-.647-.001-.187.041-.327.187-.443.119-.102.204-.221.174-.389"/><path fill="#017dbe" d="M18.385 17.939c-.123.182-.299.313-.445.474-.064.072-.153.129-.151.243-.294-.035-.489-.238-.695-.421-.043-.082-.069-.171-.077-.267-.001-.101.021-.195.055-.289.111-.309.111-.574-.22-.76-.106-.062-.151-.181-.151-.307 0-.235-.032-.473.003-.706.043-.034.087-.037.131-.002l.06.06c.349.031.625.16.765.508.081.205.225.301.464.276.205-.021.207.005.158.224-.022.105-.032.218-.074.314-.096.229-.059.423.124.591.014.019.03.043.053.062"/><path fill="#0180c4" d="M16.832 15.906h-.12c-.179.084-.339.007-.398-.141-.146-.373-.462-.612-.682-.929-.04-.057-.084-.11-.089-.184.272-.306.159-.604.001-.916-.087-.173-.184-.378.086-.505a.85.85 0 0 1 .72.479c.081.153.184.274.331.36.286.321.501.684.571 1.116-.062.211-.211.365-.332.537-.042.062-.088.111-.088.183"/><path fill="#018ad2" d="M17.251 15.191l-.301-.606a2.14 2.14 0 0 0-.297-.469c-.052-.068-.077-.147-.037-.22.127-.229.197-.49.396-.678h.179c.15-.018.269.024.336.176.031.069.078.14.132.193.188.195.245.398.104.65-.075.134-.024.248.121.31.021.009.036.021.054.027.355.182.358.185.26.563-.021.074-.051.147-.047.229-.293-.108-.582-.22-.9-.175"/><path fill="#0188cf" d="M19.879 17.342v.238c-.07.042-.058.113-.06.18l-.729-.135c-.157-.035-.289-.09-.31-.3s-.079-.426-.1-.642c.291-.045.541.039.766.229a1.44 1.44 0 0 0 .275.169c.12.056.168.138.158.261"/><path fill="#017fc2" d="M18.385 17.939l-.06-.062.06.062"/><path fill="#0180c4" d="M16.89 15.967l-.06-.061.06.061"/><path fill="#0176b3" d="M11.635 8.141v.418c-.215-.11-.446-.047-.671-.058-.28-.013-.281-.007-.284-.278-.002-.148.011-.301-.006-.445-.033-.301-.159-.374-.457-.309-.163.036-.323.099-.494.074-.157.016-.262-.07-.356-.181.017-.106-.055-.195-.063-.298-.107-.232.059-.4.154-.569.103-.188.08-.305-.088-.424l-.36-.26c-.076-.066-.202-.102-.183-.24.117-.197.347-.308.418-.539.062.029.125.068.197.062.143-.02.234.059.341.144.231.19.3.405.176.681-.045.1-.052.171.056.253.301.23.585.479.688.871.022.095.09.153.197.144a.45.45 0 0 1 .259.062 1.84 1.84 0 0 0 .293.366c.152.155.205.321.183.526"/><path fill="#0181c4" d="M9.843 3.719c.125.082.268.063.405.063.151-.004.248.041.253.214.01.304.16.479.469.535.171.03.344.091.485.207.016.015.021.026.016.04s-.011.02-.016.02c-.045.299-.267.533-.298.838-.156-.1-.326-.135-.513-.121-.146.01-.296.002-.463.002.036-.221.158-.377.237-.556.104-.229.077-.28-.182-.278-.321.003-.314.019-.432-.32-.016-.047-.021-.1-.047-.143-.112-.193-.067-.354.086-.501"/><path fill="#0180c3" d="M9.006 2.107c.102-.011.188.041.282.063.087.022.139.084.132.172-.021.243.091.476.063.721-.244-.015-.496.05-.729-.086-.01-.319.202-.572.252-.87"/><path fill="#008cd5" d="M11.455 4.795v-.06l.003-.47c.017-.193-.071-.317-.221-.416l-.123-.08c-.313-.213-.318-.235-.139-.588h.206c.407 0 .562.088.669.468a.4.4 0 0 0 .235.269c.229.12.229.139.149.395l-.127.425c-.217 0-.438-.024-.652.057"/><path fill="#016295" d="M15.338 19.852c-.112-.139-.279-.174-.433-.232-.133-.05-.235-.111-.318-.237-.176-.261-.439-.407-.742-.485-.174-.122-.309-.295-.501-.396-.114-.063-.132-.185-.123-.31a2.55 2.55 0 0 0-.028-.676c.029-.195.076-.388.25-.515a3.85 3.85 0 0 1 .778-.071c.148.062.242.162.263.324.064.485.248.869.805.938.058.006.104.046.145.093a.55.55 0 0 1 .094.223c-.057.341-.119.677-.065 1.024.01.107-.03.232-.125.32"/><path fill="#015786" d="M13.248 17.521c.108.215.069.445.048.666-.016.158.02.25.157.298.202.071.319.217.392.409-.013.168-.161.234-.255.343-.128.146-.274.278-.282.493-.391-.116-.626-.42-.861-.725-.01-.037 0-.08-.033-.111h0c.174-.229.176-.229.103-.502l-.105-.459c-.042-.258-.122-.308-.382-.254-.107.021-.228.055-.295-.061-.069-.107-.045-.225.039-.329.129-.164.217-.351.283-.548h.062c.19.021.23.2.298.329.104.206.234.329.479.321.118.004.251.037.352.13"/><path fill="#01527d" d="M12.47 18.954c.211.245.414.498.708.658.051.026.086.079.128.116.099.24.276.447.3.719l.319 1.117c.032.115.107.302-.155.263-.13-.01-.25-.051-.358-.119.057-.013.132-.015.063-.104-.125-.166-.251-.326-.404-.469-.094-.084-.137-.184-.172-.314-.067-.253-.216-.485-.346-.721-.048-.086-.154-.116-.255-.131-.151-.02-.209-.09-.156-.242.087-.258.134-.529.271-.771.017-.022.038-.022.057-.002"/><path fill="#015581" d="M13.77 21.827c.146-.019.133-.103.096-.211l-.271-.864c-.036-.109-.058-.205.011-.305.143-.018.273.029.409.055.109.021.179.079.236.163.178.261.313.558.606.724.057.029.051.103.063.158l.111.492c.016.122.092.193.166.271.035.039.064.078.001.117-.072-.027-.149-.053-.216-.091-.378-.227-.805-.343-1.212-.509"/><path fill="#01669b" d="M15.338 19.852c.022-.24.078-.479.007-.723a.45.45 0 0 1 .061-.367c.057-.091.057-.188.054-.287.567.189 1.028.84 1.016 1.437l-.753.262c-.066.022-.132.038-.203.037-.039-.133-.171-.217-.182-.359"/><path fill="#015f91" d="M16.055 21.702l.567.001c.119 0 .16.054.123.171-.077.235-.167.47-.152.726-.313-.127-.653-.14-1.009-.207.142-.256.307-.474.471-.691"/><path fill="#016397" d="M8.289 6.528c-.085.2-.257.347-.359.537-.02.023-.04.023-.06 0-.014-.014-.024-.037-.04-.042-.3-.091-.528-.255-.63-.569-.038-.112-.154-.102-.254-.106-.117-.007-.254.047-.347-.037s.026-.198.02-.307c-.013-.158-.011-.316-.001-.476.008-.146-.065-.221-.198-.247-.048-.01-.099-.006-.147-.016-.235-.054-.231-.104-.32-.322-.147-.359-.057-.618.232-.84.007-.003.009-.018.015-.024.119.085.27.047.398.103.184.078.243.129.184.308-.076.221-.004.455-.092.674-.041.104.022.17.141.17l.477-.002c.126-.007.202.045.257.156l.26.502c.091.19.203.335.394.419.048.021.064.068.07.119"/><path fill="#016295" d="M7.871 7.066h.06c.104.163.13.352.179.534.061.228.063.229.299.244h.09c.182.019.224.073.172.25-.039.135-.083.265-.094.404-.014.171.031.28.191.292.297.021.411.198.526.44.119.253.206.487.128.762-.066-.111-.137-.209-.295-.181-.29.053-.438-.118-.541-.356-.075-.117-.058-.248-.062-.375-.004-.236-.08-.341-.311-.336-.298.009-.588-.058-.882-.066.002-.039-.008-.086.011-.115.103-.153.083-.316.049-.48-.037-.032-.021-.09-.06-.12v-.119l.068-.194c.053-.178.133-.327.308-.413a.35.35 0 0 0 .164-.171"/><g fill="#016397"><path d="M6.138 3.959c.048.026.058.069.062.12-.051-.026-.061-.071-.062-.12m-.118-.3l.059.062a.57.57 0 0 1-.059-.062"/><path d="M6.079 3.84l.06.062-.06-.062"/></g><path fill="#017ec0" d="M15.636 13.278c-.135.069-.14.176-.088.298l.209.482c.115.256.116.256-.073.455-.039.045-.072.092-.107.14-.1.039-.146-.045-.207-.091l-.049-.051c-.015-.015-.027-.031-.04-.049-.009-.008-.017-.017-.021-.022-.015-.013-.026-.029-.042-.044-.006-.008-.013-.018-.02-.022-.016-.016-.024-.032-.034-.05l-.005-.03c-.184-.237-.305-.491-.389-.789-.073-.266-.154-.593-.522-.661-.062-.011-.099-.068-.081-.14.075-.324.02-.653.036-.979.073.037.047.156.142.176.317.062.605.231.936.242.06.252.31.252.479.358.1.282.043.538-.124.777"/><path fill="#0186cb" d="M15.636 13.278l.12-.776a.53.53 0 0 1 .328.18c.204.211.457.324.747.357.045.074.153.086.179.18-.05.217-.166.404-.277.59-.06.102-.086.195-.082.309-.138-.055-.263-.113-.315-.271-.114-.337-.39-.476-.7-.569"/><path fill="#0172ad" d="M13.905 15.25c.222-.221.367-.488.478-.777.301.123.544-.002.776-.179h0c.018.022.04.04.06.06h0l.06.062h0l.062.062c.005.01.019.021.017.024-.166.338-.203.748-.548.989-.229.037-.461.091-.694.078-.195-.014-.342-.085-.211-.319"/><path fill="#016ba4" d="M13.905 15.25c.025.235.025.238.228.237.244 0 .479-.097.728-.06.285.16.386.438.447.734-.082.329-.149.641.051.975.147.238.17.547.197.834.014.14-.029.254-.158.323-.063-.026-.123-.057-.193-.06-.329-.018-.546-.184-.653-.493-.058-.17-.207-.31-.132-.521.031-.093-.122-.146-.155-.24-.067-.066-.081-.155-.073-.244.025-.374-.215-.639-.383-.932-.057-.102-.176-.117-.275-.153-.445-.208-.674-.569-.717-1.05-.012-.106-.012-.223.075-.31.156.066.321.047.479.025.33-.046.342-.048.408.272.042.226.048.45.126.663"/><path fill="#016295" d="M12.888 14.294v.119c-.034.498.169.874.593 1.136.024.014.045.04.064.062.095.118.021.222-.043.313-.104.151-.178.326-.331.44-.169.06-.351.063-.522.108-.188.052-.271-.032-.298-.207v-.179c-.017-.272-.036-.539-.311-.71-.127-.08-.255-.199-.17-.394a.21.21 0 0 0-.001-.146c-.083-.202-.036-.401.004-.604.229-.183.482-.269.775-.181.103.062.128.196.24.243"/><path fill="#01659a" d="M12.649 14.057c-.266.029-.517.123-.775.18-.154-.219-.367-.38-.544-.574-.079-.087-.179-.155-.232-.263-.001-.114.084-.177.155-.242.127-.124.25-.25.323-.414-.003.092.007.177.1.229.011.004.021.008.027.014a.84.84 0 0 0 .77.236l.227.638c.022.073-.024.131-.051.196"/><path d="M8.289 5.274c-.171.018-.326-.069-.496-.069-.106 0-.14-.104-.151-.191-.015-.106-.008-.218-.01-.326-.005-.268-.026-.299-.272-.387l-.168-.057c-.217-.077-.252-.127-.205-.345.053-.239.085-.484.166-.715.011.002.021.01.028.01.371.013.371.013.513.39.016.036.026.073.046.108.125.23.196.46-.084.639.135.129.296.155.438.215l.247.099c.11.041.11.104.079.209-.04.141-.153.26-.131.42m.538.298c.218.216.498.348.723.558.102.095.119.146.047.267-.124.208-.276.412-.293.67-.12-.15-.3-.207-.461-.29L8.35 6.53c-.01-.274.129-.502.238-.738.032-.071.063-.138.061-.218l.178-.002m6.57 12.726c.127-.198.095-.416.039-.618-.07-.259-.067-.556-.296-.758-.021-.018-.041-.06-.032-.078.086-.227-.027-.5.17-.697.442-.193.729-.008.717.467-.02.582.221.956.756 1.182.12.051.236.1.32.205a.43.43 0 0 1 .061.238c.021.052.012.105-.025.137-.312.249-.172.557-.104.848.039.164.162.238.337.217.167-.021.335-.038.501.017.256.229.405.542.604.815a2.32 2.32 0 0 1-.284.484c-.081.106-.078.188.004.288.1.121.181.259.275.386.197.262.198.262.005.515-.275.012-.482-.084-.572-.364-.012-.037-.04-.068-.056-.105-.084-.189-.211-.287-.435-.25-.134.021-.28.023-.373-.113-.005-.104-.063-.188-.107-.272-.087-.159-.142-.317-.138-.507.006-.197-.064-.369-.293-.416l-.264-.652c-.084-.242-.225-.425-.453-.547-.109-.061-.199-.154-.298-.234-.025-.069-.061-.122-.059-.188" fill="#016fa9"/><path fill="#0174b1" d="M17.846 19.491c-.167.008-.336-.017-.504.019-.217.043-.409-.092-.426-.308-.009-.099-.01-.201-.053-.288-.094-.188-.045-.337.094-.475.063-.064.135-.117.173-.203.235.113.435.283.656.419l.12.239c.122.214.086.413-.06.597"/><path fill="#017bbb" d="M17.846 19.491c-.009-.202.098-.392.063-.597.046.013.104.053.137.037.23-.11.359.041.468.189a2.88 2.88 0 0 0 .312.357c.203.207.22.346.063.604-.036.061-.084.11-.084.186h-.357c-.199-.119-.313-.313-.432-.504l-.17-.272"/><path fill="#015480" d="M12.47 18.954h-.06v-.06l.06.06"/><path fill="#015e90" d="M7.334 7.962c.048.025.058.07.06.119-.05-.024-.059-.071-.06-.119"/><path fill="#015e8f" d="M12.35 16.266c.063.121.139.166.291.129.178-.045.358-.099.547-.068a.76.76 0 0 1 .238.717l-.18.479c-.207.005-.401-.086-.612-.064-.104.014-.147-.079-.188-.161-.094-.194-.203-.379-.334-.55.099-.154.209-.298.238-.482"/><path fill="#0177b5" d="M17.071 17.998c-.271-.068-.511-.213-.771-.305-.087-.031-.129-.092-.125-.182.007-.123-.052-.211-.141-.278-.179-.136-.183-.314-.146-.509.009-.039.031-.073.036-.112a.37.37 0 0 0-.411-.466c-.079-.002-.159 0-.237 0-.12-.25-.245-.498-.418-.719.074-.166.205-.311.207-.515 0-.083.072-.158.141-.22.063-.063.134-.121.132-.225l.239.183c.173.211.329.438.531.62.076.065.146.145.162.24.047.248.2.365.44.393.104.186.062.389.056.584-.004.189.025.349.217.438.041.021.071.071.113.092.161.076.172.201.135.35l-.16.631"/><path fill="#01659b" d="M13.427 17.042l-.238-.717c.03-.183.177-.3.261-.451.048-.085.112-.159.098-.266.181-.024.299.051.377.216.062.122.129.243.208.355.173.248.125.527.131.802-.279.046-.556.08-.837.061"/><g fill="#0177b5"><path d="M15.219 14.354l-.06-.061c.019.022.04.041.06.061m.119.119l-.06-.06.06.06"/><path d="M15.278 14.413l-.062-.06c.023.02.043.042.062.06"/></g></svg>