<?xml version="1.0" encoding="utf-8"?>
<!-- Generator: Adobe Illustrator 16.0.0, SVG Export Plug-In . SVG Version: 6.00 Build 0)  -->
<!DOCTYPE svg PUBLIC "-//W3C//DTD SVG 1.1//EN" "http://www.w3.org/Graphics/SVG/1.1/DTD/svg11.dtd">
<svg version="1.1" id="Layer_1" xmlns="http://www.w3.org/2000/svg" xmlns:xlink="http://www.w3.org/1999/xlink" x="0px" y="0px"
	 width="137.275px" height="23.76px" viewBox="0 0 137.275 23.76" enable-background="new 0 0 137.275 23.76" xml:space="preserve">
<g id="Layer_1_1_">
</g>
<g>
	<g>
		<path fill="#FFFFFF" d="M33.005,16.372c-0.626,0-1.204-0.116-1.734-0.353c-0.529-0.232-0.992-0.557-1.384-0.963
			s-0.694-0.892-0.914-1.449c-0.218-0.562-0.327-1.165-0.327-1.815c0-0.659,0.109-1.259,0.327-1.803
			c0.22-0.543,0.522-1.007,0.914-1.39s0.854-0.681,1.384-0.89c0.53-0.21,1.108-0.313,1.734-0.313h4.864v1.566h-4.864
			c-0.404,0-0.775,0.073-1.118,0.217c-0.341,0.145-0.636,0.345-0.883,0.6s-0.44,0.56-0.58,0.914c-0.14,0.354-0.21,0.746-0.21,1.173
			c0,0.42,0.07,0.812,0.21,1.173c0.14,0.362,0.333,0.673,0.58,0.932c0.248,0.26,0.542,0.465,0.883,0.611
			c0.343,0.148,0.714,0.223,1.118,0.223h3.839v-2.334h-4.049v-1.319h5.63v5.222L33.005,16.372L33.005,16.372z"/>
		<path fill="#FFFFFF" d="M39.87,16.372V7.396h8.013v1.566h-6.458v5.842h6.471v1.565L39.87,16.372L39.87,16.372z M42.573,12.471
			v-1.319h4.976v1.319H42.573L42.573,12.471z"/>
		<path fill="#FFFFFF" d="M50.696,9.805v6.567h-1.493V8.225c0-0.289,0.071-0.518,0.216-0.687s0.339-0.253,0.586-0.253
			c0.115,0,0.227,0.023,0.333,0.074c0.106,0.05,0.218,0.133,0.333,0.246l6.334,6.285V7.322h1.494v8.224
			c0,0.296-0.072,0.526-0.217,0.691c-0.146,0.164-0.331,0.247-0.563,0.247c-0.255,0-0.494-0.112-0.716-0.334L50.696,9.805z"/>
		<path fill="#FFFFFF" d="M60.017,16.372V7.396h8.015v1.566h-6.457v5.842h6.47v1.565L60.017,16.372L60.017,16.372z M62.722,12.471
			v-1.319h4.979v1.319H62.722L62.722,12.471z"/>
		<path fill="#FFFFFF" d="M78.416,16.372l-3.767-3.667l-3.729,3.667h-2.038l4.816-4.667l-4.471-4.309h2.159l3.421,3.32l3.37-3.32
			h2.037l-4.469,4.309l4.864,4.667H78.416z"/>
		<path fill="#FFFFFF" d="M85.368,16.372v-1.567h6.729c0.42,0,0.742-0.105,0.969-0.319c0.229-0.216,0.342-0.497,0.342-0.854
			c0-0.387-0.113-0.677-0.342-0.87c-0.227-0.192-0.55-0.291-0.969-0.291h-4.125c-0.42,0-0.8-0.063-1.143-0.189
			c-0.342-0.127-0.629-0.305-0.864-0.531c-0.233-0.226-0.415-0.495-0.543-0.808c-0.127-0.313-0.19-0.655-0.19-1.025
			c0-0.36,0.061-0.696,0.181-1.006c0.118-0.31,0.296-0.574,0.528-0.796c0.235-0.223,0.525-0.396,0.871-0.525
			c0.348-0.127,0.74-0.189,1.188-0.189h6.443v1.568h-6.443c-0.363,0-0.643,0.096-0.842,0.289c-0.195,0.193-0.297,0.465-0.297,0.811
			s0.104,0.613,0.305,0.803c0.202,0.189,0.476,0.284,0.82,0.284h4.111c0.913,0,1.605,0.214,2.079,0.642s0.711,1.079,0.711,1.95
			c0,0.38-0.058,0.729-0.173,1.051c-0.115,0.322-0.288,0.599-0.52,0.833c-0.23,0.234-0.521,0.418-0.871,0.551
			c-0.351,0.131-0.758,0.195-1.229,0.195h-6.729v-0.005H85.368z"/>
		<path fill="#FFFFFF" d="M98.938,13.879V12.36h3.604c0.551,0,0.98-0.155,1.29-0.472c0.309-0.312,0.462-0.724,0.462-1.233
			c0-0.519-0.153-0.931-0.462-1.234c-0.31-0.303-0.739-0.457-1.29-0.457h-4.755v7.408h-1.556V7.396h6.311
			c0.52,0,0.98,0.076,1.389,0.229c0.408,0.153,0.75,0.367,1.031,0.643c0.279,0.275,0.494,0.61,0.645,1.007
			c0.146,0.395,0.222,0.839,0.222,1.331c0,0.486-0.074,0.93-0.222,1.328c-0.148,0.398-0.363,0.744-0.645,1.03
			c-0.281,0.289-0.624,0.513-1.031,0.675c-0.406,0.159-0.869,0.239-1.389,0.239L98.938,13.879L98.938,13.879z"/>
		<path fill="#FFFFFF" d="M115,16.372l-1.347-2.259h-4.245l0.739-1.272h2.754l-2-3.356l-4.074,6.889h-1.791l5.161-8.593
			c0.091-0.156,0.198-0.28,0.321-0.371c0.122-0.09,0.271-0.135,0.444-0.135c0.171,0,0.318,0.045,0.438,0.135
			c0.119,0.091,0.226,0.215,0.313,0.371l5.175,8.593L115,16.372L115,16.372z"/>
		<path fill="#FFFFFF" d="M120.755,16.372c-0.626,0-1.203-0.116-1.734-0.353c-0.531-0.232-0.992-0.557-1.383-0.963
			c-0.392-0.406-0.695-0.892-0.915-1.449c-0.218-0.562-0.325-1.165-0.325-1.815c0-0.659,0.107-1.259,0.325-1.803
			c0.22-0.543,0.523-1.007,0.915-1.39c0.391-0.383,0.852-0.681,1.383-0.89c0.531-0.21,1.108-0.313,1.734-0.313h4.864v1.566h-4.864
			c-0.404,0-0.775,0.073-1.118,0.217c-0.342,0.145-0.635,0.345-0.883,0.6c-0.246,0.255-0.438,0.56-0.58,0.914
			c-0.14,0.354-0.209,0.746-0.209,1.173c0,0.42,0.069,0.812,0.209,1.173c0.142,0.362,0.334,0.673,0.58,0.932
			c0.248,0.26,0.541,0.465,0.883,0.611c0.343,0.148,0.714,0.223,1.118,0.223h4.864v1.567H120.755L120.755,16.372z"/>
		<path fill="#FFFFFF" d="M126.89,16.372V7.396h8.015v1.566h-6.457v5.842h6.47v1.565L126.89,16.372L126.89,16.372z M129.594,12.471
			v-1.319h4.977v1.319H129.594L129.594,12.471z"/>
	</g>
	<g>
		<path fill="#18A4ED" d="M21.55,5.93c-0.898,0.304-1.796,0.606-2.693,0.91c-0.073,0.023-0.151,0.04-0.229,0.063
			c-0.139-0.381-0.375-0.688-0.713-0.906c-0.172-0.107-0.219-0.243-0.159-0.429c0.048-0.151,0.101-0.304,0.137-0.458
			c0.038-0.168-0.03-0.225-0.188-0.186c-0.039,0.01-0.078,0.021-0.116,0.027c-0.526,0.089-0.718-0.072-0.716-0.604
			c0-0.092-0.007-0.182,0.01-0.27c0.052-0.248-0.036-0.421-0.255-0.546c-0.294-0.168-0.479-0.472-0.774-0.646
			c-0.141-0.084-0.108-0.266-0.115-0.412c-0.016-0.402-0.066-0.479-0.438-0.6c-0.09-0.027-0.187-0.063-0.188-0.163
			c-0.021-0.37-0.095-0.741-0.004-1.11c0.75,0.043,1.472,0.229,2.184,0.459c3.967,1.281,6.896,4.606,7.684,8.73
			c0.424,2.219,0.194,4.376-0.658,6.469c-0.018,0.045-0.045,0.086-0.068,0.127c-0.208-0.092-0.225-0.281-0.194-0.455
			c0.063-0.381-0.174-0.688-0.213-1.041c-0.003-0.027-0.021-0.063-0.046-0.073c-0.357-0.188-0.41-0.569-0.561-0.888
			c-0.072-0.153-0.155-0.268-0.344-0.285c-0.224-0.024-0.328-0.17-0.334-0.391c-0.006-0.236-0.074-0.471-0.065-0.711
			c0.004-0.136-0.054-0.25-0.132-0.357c-0.257-0.34-0.507-0.688-0.791-1.01c-0.109-0.129-0.233-0.209-0.406-0.213
			c-0.121-0.003-0.237-0.025-0.34-0.102c-0.162-0.163-0.189-0.389-0.258-0.592c-0.068-0.209-0.184-0.301-0.416-0.285
			c-0.429,0.025-0.625-0.11-0.75-0.516c-0.157-0.519-0.291-1.045-0.371-1.584c0.482-0.396,1.007-0.733,1.507-1.109
			c0.355-0.27,0.719-0.527,1.077-0.792c0.022-0.025,0.019-0.052-0.008-0.067C21.584,5.907,21.565,5.912,21.55,5.93"/>
		<path fill="#01466B" d="M6.194,13.889c0.02-0.011,0.039-0.019,0.059-0.025c0.176,0.156,0.38,0.188,0.609,0.163
			c0.41-0.046,0.796,0.47,0.648,0.854c-0.023,0.064-0.058,0.126-0.084,0.192c-0.07,0.177-0.006,0.266,0.182,0.273
			c0.05,0.002,0.1,0.004,0.147,0.008c0.68,0.062,0.712,0.098,0.646,0.779c-0.011,0.104-0.024,0.205,0.066,0.274
			c0.188,0.139,0.239,0.34,0.252,0.551c0.02,0.294,0.164,0.479,0.436,0.579c0.084,0.031,0.162,0.079,0.236,0.126
			c0.172,0.104,0.161,0.25,0.106,0.416c-0.118,0.354-0.063,0.456,0.294,0.558c0.172,0.047,0.351,0.061,0.512,0.15
			c0.186,0.104,0.285,0.238,0.272,0.454c-0.007,0.099,0.01,0.2-0.001,0.297c-0.027,0.255,0.067,0.381,0.33,0.431
			c0.332,0.064,0.371,0.146,0.299,0.482c-0.035,0.161-0.029,0.345-0.197,0.45c-0.124,0.048-0.232-0.005-0.345-0.044
			c-1.646-0.596-3.265-1.25-4.82-2.055c-0.521-0.271-1.017-0.58-1.499-0.914c-0.07-0.052-0.152-0.097-0.171-0.195
			c-0.089-0.077-0.173-0.161-0.269-0.231c-0.394-0.297-0.561-0.844-0.364-1.364c0.108-0.293,0.287-0.541,0.501-0.767
			c0.422-0.44,0.925-0.774,1.45-1.078c0.204-0.12,0.399-0.255,0.63-0.325C6.149,13.918,6.173,13.903,6.194,13.889"/>
		<path fill="#01466B" d="M5.786,12.219c-0.266,0.172-0.532,0.342-0.796,0.52c-0.447,0.298-0.876,0.615-1.265,0.992
			c-0.381,0.371-0.71,0.776-0.897,1.326c-0.038-0.084-0.071-0.136-0.085-0.191c-0.598-2.314-0.504-4.604,0.3-6.855
			C3.055,7.973,3.08,7.941,3.098,7.905c0.176,0.003,0.209,0.146,0.228,0.266c0.056,0.386,0.396,0.556,0.597,0.827
			c0.071,0.098,0.199,0.061,0.311,0.049c0.352-0.033,0.472,0.084,0.396,0.426C4.586,9.671,4.596,9.79,4.802,9.905
			c0.263,0.142,0.331,0.739,0.155,0.996c-0.098,0.142-0.287,0.271-0.163,0.468c0.119,0.188,0.326,0.1,0.495,0.077
			c0.607-0.075,0.675-0.013,0.568,0.584C5.846,12.096,5.826,12.159,5.786,12.219"/>
		<path fill="#01466B" d="M12.823,23.264c-0.801-0.021-1.576-0.191-2.336-0.425c-2.582-0.79-4.638-2.303-6.168-4.526
			c-0.038-0.057-0.07-0.117-0.104-0.18c-0.019-0.056,0.015-0.085,0.06-0.104c0.108-0.016,0.192,0.04,0.271,0.102
			c1.102,0.879,2.373,1.45,3.655,1.995c1.271,0.54,2.565,1.025,3.881,1.456c0.103,0.035,0.212,0.061,0.284,0.154
			c0.078,0.23-0.105,0.365-0.203,0.527c-0.223,0.373-0.18,0.496,0.227,0.662c0.168,0.068,0.424,0.023,0.457,0.303L12.823,23.264z"/>
		<path fill="#14A0E9" d="M15.101,0.604c0.076,0.322,0.054,0.646,0.06,0.974c0.004,0.211,0.007,0.211,0.212,0.231
			c0.237,0.021,0.417,0.194,0.442,0.433c0.009,0.089,0.01,0.181,0,0.269c-0.023,0.228,0.073,0.325,0.271,0.454
			c0.287,0.188,0.508,0.478,0.809,0.668c0.091,0.06,0.132,0.203,0.085,0.354c-0.066,0.221-0.021,0.452-0.024,0.68
			c-0.001,0.12,0.063,0.187,0.183,0.188c0.203,0.012,0.408,0.094,0.604-0.028c0.032-0.021,0.075-0.021,0.114-0.022
			c0.137-0.008,0.19,0.047,0.156,0.178c-0.056,0.219-0.122,0.438-0.195,0.651c-0.05,0.14-0.021,0.229,0.114,0.285
			c0.198,0.084,0.366,0.196,0.427,0.422c0.012,0.042,0.062,0.087,0.104,0.104c0.223,0.097,0.246,0.258,0.167,0.461
			c-0.37,0.158-0.751,0.289-1.139,0.398c-0.118-0.281-0.101-0.595-0.2-0.886c-0.067-0.19-0.163-0.301-0.364-0.321
			c-0.181-0.021-0.343-0.084-0.477-0.209c-0.199-0.205-0.419-0.389-0.646-0.563c-0.102-0.077-0.193-0.168-0.223-0.305
			c0.09-0.313,0.184-0.617,0.035-0.946c-0.079-0.173-0.174-0.31-0.359-0.368c-0.422-0.139-0.594-0.451-0.474-0.884
			c0.05-0.179,0.063-0.349,0.026-0.527c-0.026-0.143-0.078-0.264-0.22-0.332c-0.092-0.045-0.172-0.116-0.2-0.213
			c-0.165-0.556-0.607-0.772-1.104-0.938c-0.075-0.022-0.149-0.055-0.219-0.097c-0.05-0.044-0.093-0.089-0.062-0.163
			c0.462-0.084,0.928-0.053,1.392-0.022C14.633,0.539,14.876,0.518,15.101,0.604"/>
		<path fill="#014A72" d="M10.971,20.868c0.18-0.188,0.137-0.442,0.204-0.664c0.021-0.071-0.052-0.094-0.108-0.116
			c-0.109-0.046-0.229-0.049-0.347-0.074c-0.198-0.045-0.218-0.072-0.222-0.282c-0.002-0.14,0.005-0.279-0.002-0.419
			c-0.007-0.113,0.055-0.258-0.053-0.338c-0.142-0.103-0.281-0.229-0.475-0.224c-0.188,0.009-0.345-0.079-0.498-0.165
			c-0.167-0.092-0.179-0.146-0.117-0.34c0.018-0.057,0.036-0.113,0.061-0.168c0.104-0.258,0.111-0.287-0.135-0.384
			c-0.4-0.158-0.674-0.377-0.659-0.857c0.004-0.142-0.037-0.317-0.232-0.378c-0.104-0.029-0.124-0.137-0.092-0.221
			c0.065-0.176,0.024-0.356,0.06-0.528c0.027-0.144-0.05-0.178-0.146-0.194c-0.224-0.045-0.443-0.098-0.674-0.092
			c-0.228,0.008-0.333-0.142-0.208-0.32c0.223-0.315,0.136-0.567-0.065-0.849c-0.098-0.135-0.157-0.23-0.349-0.155
			c-0.104,0.039-0.235,0.014-0.354,0.018c-0.176,0.005-0.28-0.076-0.306-0.254c0.398-0.235,0.82-0.43,1.259-0.583
			c0.535,0.124,0.729,0.553,0.892,1.006c0.019,0.058,0.018,0.127,0.056,0.168c0.248,0.256,0.358,0.53,0.187,0.879
			c-0.046,0.095,0.035,0.164,0.125,0.206c0.181,0.084,0.358,0.161,0.553,0.215c0.338,0.094,0.431,0.272,0.317,0.6
			c-0.043,0.129-0.047,0.229,0.067,0.314c0.166,0.127,0.248,0.309,0.304,0.5c0.048,0.162,0.132,0.271,0.321,0.303
			c0.251,0.041,0.378,0.23,0.464,0.457c0.035,0.211-0.029,0.41-0.057,0.617c-0.022,0.178,0.021,0.28,0.21,0.262
			c0.514-0.051,0.658,0.063,0.543,0.674c-0.044,0.231-0.006,0.449,0.16,0.664c0.201,0.258,0.236,0.602,0.297,0.924
			c0.015,0.078-0.029,0.131-0.106,0.154C11.522,21.18,11.2,21.143,10.971,20.868"/>
		<path fill="#109CE5" d="M23.709,17.477c-0.209,0.431-0.462,0.832-0.772,1.196c-0.121-0.034-0.153-0.146-0.21-0.237
			c-0.061-0.104-0.124-0.201-0.233-0.265c-0.372-0.204-0.539-0.528-0.49-0.944c0.021-0.18,0.059-0.354,0.084-0.53
			c0.049-0.336,0.042-0.347-0.287-0.31c-0.079,0.008-0.158,0.018-0.236,0.008c-0.397-0.047-0.646-0.396-0.558-0.779
			c0.011-0.048,0.022-0.098,0.036-0.145c0.104-0.418,0.104-0.416-0.282-0.574c-0.309-0.129-0.515-0.338-0.521-0.692
			c0.183-0.397-0.051-0.664-0.31-0.901c-0.166-0.147-0.262-0.283-0.151-0.506c0.069-0.139-0.028-0.221-0.125-0.295
			c-0.158-0.121-0.297-0.262-0.375-0.449c-0.057-0.14-0.107-0.279,0.014-0.416c0.199-0.076,0.411-0.066,0.616-0.099
			c0.214-0.032,0.35,0.06,0.348,0.293c-0.001,0.29,0.104,0.461,0.405,0.574c0.275,0.104,0.314,0.431,0.382,0.698
			c0.007,0.026-0.001,0.061-0.001,0.09c-0.02,0.584,0.027,0.634,0.604,0.6c0.174-0.01,0.256,0.073,0.305,0.223
			c0.076,0.25,0.042,0.494-0.055,0.729c-0.087,0.211-0.03,0.356,0.147,0.488c0.168,0.12,0.353,0.226,0.494,0.384
			c0.278,0.21,0.61,0.314,0.922,0.456c0.36,0.163,0.384,0.19,0.243,0.547c-0.098,0.243-0.188,0.479,0.018,0.714
			C23.748,17.369,23.731,17.43,23.709,17.477"/>
		<path fill="#139FE8" d="M22.507,15.668c-0.223-0.181-0.474-0.322-0.688-0.518c-0.079-0.074-0.102-0.139-0.068-0.234
			c0.041-0.122,0.076-0.246,0.123-0.365c0.053-0.136,0.047-0.274,0.027-0.412c-0.039-0.275-0.102-0.326-0.367-0.244
			c-0.258,0.082-0.407-0.101-0.592-0.195c-0.058-0.029-0.053-0.104-0.025-0.163c0.04-0.085,0.02-0.181,0.04-0.265
			c0.073-0.288-0.151-0.49-0.209-0.74c-0.015-0.063-0.084-0.072-0.146-0.087c-0.353-0.082-0.407-0.148-0.426-0.491
			c-0.018-0.374-0.047-0.4-0.422-0.313c-0.159,0.037-0.315,0.018-0.476,0.025c-0.129-0.049-0.146-0.178-0.197-0.279
			c-0.057-0.104-0.089-0.242-0.2-0.285c-0.29-0.111-0.348-0.34-0.356-0.611c-0.008-0.211-0.112-0.396-0.191-0.585
			c-0.048-0.19,0.029-0.354,0.13-0.502c0.196-0.292,0.18-0.565-0.022-0.845c-0.041-0.055-0.088-0.108-0.105-0.178
			c0.215-0.184,0.443-0.35,0.688-0.49c0.159,0.287,0.224,0.606,0.277,0.922c0.052,0.295,0.146,0.568,0.243,0.846
			c0.067,0.191,0.353,0.304,0.58,0.268c0.336-0.056,0.386-0.023,0.496,0.293c0.071,0.202,0.144,0.407,0.216,0.612
			c0.02,0.037,0.029,0.082,0.005,0.114c-0.163,0.224-0.06,0.421,0.034,0.639c0.123,0.287,0.248,0.499,0.622,0.521
			c0.311,0.021,0.391,0.382,0.181,0.647c-0.218,0.275-0.209,0.269,0.041,0.505c0.186,0.176,0.389,0.305,0.643,0.354
			c0.197,0.042,0.308,0.157,0.296,0.38c-0.021,0.438,0,0.876-0.011,1.313C22.639,15.438,22.671,15.59,22.507,15.668"/>
		<path fill="#0995DE" d="M12.35,0.61c0.017-0.015,0.03-0.015,0.049-0.005c0.164-0.019,0.113,0.102,0.102,0.178
			c-0.016,0.088-0.081,0.159-0.119,0.24c-0.141,0.298-0.047,0.503,0.273,0.582c0.104,0.025,0.216,0.037,0.307,0.104
			c0.082,0.064,0.123,0.156,0.146,0.253c0.072,0.28,0.188,0.51,0.504,0.604c0.173,0.05,0.229,0.238,0.25,0.41
			c0.052,0.388,0.213,0.714,0.408,1.059c0.217,0.386,0.469,0.725,0.746,1.055c0.028,0.064,0.045,0.137,0.036,0.203
			c-0.037,0.303,0.042,0.566,0.218,0.813c0.196,0.282,0.12,0.545-0.094,0.784c-0.104,0.047-0.195-0.009-0.271-0.066
			c-0.272-0.213-0.592-0.307-0.924-0.369c-0.194-0.113-0.326-0.324-0.564-0.374c-0.151-0.114-0.18-0.294-0.239-0.458
			c-0.014-0.042-0.024-0.086-0.032-0.129c-0.002-0.031,0-0.061,0.008-0.089c0.168-0.263,0.308-0.524,0.203-0.859
			c-0.043-0.141-0.093-0.221-0.233-0.267c-0.349-0.11-0.412-0.211-0.403-0.587c0.004-0.149-0.025-0.296-0.038-0.444
			c-0.015-0.173-0.116-0.268-0.256-0.371c-0.438-0.332-0.867-0.684-1.137-1.179c-0.084-0.153-0.214-0.224-0.354-0.304
			c-0.182-0.107-0.424-0.141-0.514-0.375c0.503-0.182,1.017-0.309,1.551-0.354C12.094,0.608,12.233,0.69,12.35,0.61"/>
		<path fill="#01527D" d="M3.926,6.167c0.092-0.218,0.218-0.413,0.369-0.594c0.17,0.004,0.169,0.134,0.178,0.25
			c0.035,0.473,0.377,0.771,0.853,0.752c0.156-0.007,0.311-0.069,0.471-0.037c0.22,0.103,0.371,0.251,0.345,0.519
			c-0.19,0.332-0.144,0.636,0.091,0.93c0.071,0.09,0.127,0.199,0.177,0.308c0.105,0.229,0.286,0.353,0.532,0.36
			c0.221,0.006,0.354,0.097,0.385,0.32C7.347,9.076,7.356,9.18,7.397,9.278c0.106,0.33,0.271,0.642,0.326,0.987
			c0.02,0.11,0.106,0.188,0.16,0.281c0.09,0.159,0.225,0.314,0.104,0.518c-0.205,0.128-0.42,0.236-0.648,0.315
			c-0.177-0.077-0.188-0.241-0.203-0.396c-0.016-0.178-0.066-0.311-0.271-0.324c-0.116-0.009-0.211-0.073-0.252-0.182
			c-0.119-0.313-0.352-0.463-0.676-0.489C5.878,9.984,5.824,9.953,5.774,9.921C5.649,9.838,5.579,9.71,5.571,9.571
			C5.552,9.12,5.354,8.76,5.033,8.457C4.961,8.293,5.008,8.128,5.044,7.965c0.021-0.095,0.064-0.203-0.04-0.271
			C4.634,7.459,4.44,7.012,3.985,6.871C3.802,6.814,3.78,6.651,3.849,6.477C3.888,6.375,3.966,6.285,3.926,6.167"/>
		<path fill="#16A2EB" d="M22.507,15.668c0.052-0.089,0.061-0.186,0.063-0.287c0.009-0.494-0.024-0.992,0.019-1.486
			c0.01-0.113-0.063-0.16-0.147-0.188c-0.095-0.027-0.192-0.043-0.289-0.068c-0.065-0.019-0.144-0.028-0.192-0.068
			c-0.213-0.174-0.417-0.357-0.624-0.538c0.075-0.146,0.189-0.228,0.288-0.323c0.114-0.111,0.139-0.234,0.08-0.377
			c-0.059-0.137-0.173-0.184-0.313-0.184c-0.029-0.002-0.06,0-0.089-0.002c-0.271-0.006-0.264-0.008-0.364-0.267
			c-0.068-0.175-0.158-0.343-0.248-0.508c-0.069-0.125-0.101-0.229,0.028-0.338c0.058-0.05,0.081-0.134,0.121-0.203
			c0.125,0.022,0.246,0.08,0.378,0.062c0.158-0.024,0.266,0.062,0.358,0.168c0.323,0.375,0.616,0.771,0.911,1.168
			c0.039,0.056,0.08,0.129,0.076,0.188c-0.021,0.271,0.066,0.53,0.068,0.797c0.002,0.296,0.05,0.354,0.341,0.361
			c0.152,0.006,0.229,0.058,0.277,0.208c0.063,0.205,0.201,0.382,0.242,0.604c0.024,0.143,0.132,0.241,0.271,0.293
			c0.143,0.057,0.197,0.154,0.184,0.305c-0.008,0.078-0.004,0.16,0.043,0.229c0.141,0.208,0.177,0.438,0.136,0.68
			c-0.03,0.186,0.028,0.347,0.122,0.5c-0.135,0.384-0.311,0.748-0.533,1.086c-0.018-0.047-0.02-0.112-0.05-0.137
			c-0.224-0.162-0.199-0.356-0.093-0.57c0.044-0.09,0.074-0.185,0.108-0.276c0.076-0.196,0.072-0.229-0.137-0.304
			c-0.318-0.11-0.599-0.313-0.926-0.396C22.546,15.775,22.513,15.734,22.507,15.668"/>
		<path fill="#0995DE" d="M20.296,14.176c0.023,0.36,0.219,0.579,0.564,0.672c0.064,0.019,0.135,0.03,0.198,0.053
			c0.118,0.037,0.182,0.104,0.141,0.244c-0.061,0.207-0.093,0.425-0.155,0.632c-0.037,0.112,0,0.184,0.068,0.265
			c0.205,0.241,0.441,0.362,0.76,0.248c0.027-0.01,0.058-0.015,0.087-0.02c0.21-0.021,0.281,0.041,0.242,0.25
			c-0.048,0.252-0.076,0.508-0.127,0.758c-0.06,0.285,0.135,0.48,0.202,0.723c0.012,0.038,0.058,0.059,0.098,0.057
			c0.247-0.006,0.336,0.176,0.427,0.354c0.045,0.089,0.089,0.178,0.134,0.268c-0.188,0.301-0.406,0.577-0.666,0.821
			c-0.188-0.067-0.384-0.026-0.576-0.037c-0.026-0.015-0.043-0.036-0.047-0.067c0.064-0.323,0.209-0.618,0.327-0.922
			c0.062-0.16,0.08-0.285-0.157-0.234c-0.271,0.057-0.434-0.069-0.537-0.311c-0.092-0.207-0.247-0.38-0.318-0.601
			c-0.048-0.149-0.194-0.181-0.333-0.217c-0.167-0.04-0.364-0.038-0.445-0.243c-0.047-0.242-0.013-0.492-0.064-0.735
			c-0.032-0.146-0.093-0.247-0.229-0.319c-0.212-0.111-0.38-0.277-0.509-0.481c0.017-0.233,0.007-0.46-0.077-0.69
			c-0.1-0.278,0.078-0.483,0.279-0.658C19.829,14.01,20.081,14.029,20.296,14.176"/>
		<path fill="#0793DC" d="M19.581,13.995c0.001,0.089-0.061,0.144-0.111,0.203c-0.137,0.157-0.176,0.333-0.063,0.521
			c0.115,0.198,0.105,0.396-0.006,0.59c-0.193,0.143-0.348,0.045-0.454-0.11c-0.21-0.308-0.482-0.589-0.412-1.017
			c0.019-0.107-0.031-0.22-0.12-0.293c-0.169-0.14-0.243-0.334-0.317-0.527c-0.077-0.203-0.132-0.413-0.396-0.473
			c-0.113-0.022-0.152-0.156-0.166-0.265c-0.034-0.278-0.176-0.479-0.415-0.616c-0.201-0.293-0.433-0.553-0.753-0.731
			c-0.236-0.136-0.271-0.372-0.217-0.624c0.015-0.067,0.045-0.133,0.068-0.195c0.137-0.343,0.137-0.343-0.176-0.469
			c0.124-0.126,0.27-0.221,0.425-0.297c0.234,0.025,0.456,0.115,0.694,0.134c0.197,0.013,0.296,0.159,0.313,0.344
			c0.045,0.448,0.334,0.654,0.729,0.749c0.213,0.053,0.27,0.18,0.244,0.371c-0.013,0.079-0.017,0.161-0.042,0.232
			c-0.147,0.397,0.041,0.682,0.333,0.902c0.259,0.195,0.403,0.456,0.525,0.74c0.015,0.037,0.023,0.076,0.035,0.113
			c0.009,0.021,0.015,0.043,0.022,0.064c0.012,0.028,0.022,0.061,0.037,0.09c0.01,0.018,0.019,0.037,0.025,0.057
			c0.016,0.029,0.026,0.057,0.042,0.084c0.013,0.018,0.021,0.035,0.028,0.055c0.011,0.02,0.021,0.039,0.029,0.057
			c0.012,0.021,0.021,0.039,0.027,0.06c0.01,0.019,0.021,0.037,0.029,0.058c0.01,0.019,0.018,0.036,0.025,0.059
			c0.016,0.027,0.026,0.057,0.037,0.088C19.608,13.967,19.598,13.984,19.581,13.995"/>
		<path fill="#014F79" d="M10.737,17.879c-0.071-0.081-0.144-0.162-0.213-0.244c-0.068-0.078-0.151-0.142-0.262-0.104
			c-0.146,0.049-0.199-0.045-0.248-0.146c-0.037-0.08-0.07-0.164-0.094-0.25c-0.048-0.189-0.141-0.353-0.314-0.449
			c-0.145-0.076-0.123-0.174-0.065-0.299c0.159-0.35,0.067-0.533-0.324-0.586c-0.227-0.033-0.385-0.197-0.598-0.244
			c-0.078-0.017-0.099-0.094-0.083-0.17c0.007-0.037,0.02-0.074,0.037-0.109c0.121-0.264,0.146-0.494-0.133-0.691
			c-0.151-0.104-0.092-0.329-0.196-0.48c-0.068-0.099-0.126-0.215-0.154-0.349c-0.021-0.102-0.082-0.233-0.231-0.233
			c-0.176,0-0.264-0.114-0.346-0.241c0.324-0.175,0.664-0.312,1.016-0.42c0.012,0.247,0.158,0.405,0.334,0.562
			c0.199,0.176,0.412,0.346,0.482,0.627c0.034,0.135,0.162,0.161,0.284,0.185c0.16,0.026,0.288,0.11,0.327,0.271
			c0.091,0.376,0.275,0.648,0.688,0.706c0.125,0.12,0.229,0.254,0.276,0.427c0.031,0.162-0.058,0.28-0.158,0.396
			c-0.192,0.227-0.23,0.83-0.078,1.07c0.048,0.072,0.121,0.1,0.2,0.117c0.154,0.039,0.311,0.074,0.458,0.131
			c0.313,0.119,0.37,0.287,0.194,0.578c-0.046,0.075-0.096,0.15-0.174,0.2C11.112,18.15,10.895,18.09,10.737,17.879"/>
		<path fill="#0184C9" d="M21.375,20.395c-0.288,0.296-0.607,0.554-0.958,0.771c-0.136-0.069-0.215-0.203-0.334-0.292
			c-0.127-0.096-0.158-0.223-0.106-0.371c0.011-0.027,0.021-0.057,0.026-0.085c0.143-0.604,0.078-0.678-0.506-0.557
			c-0.048,0.01-0.098,0.02-0.146,0.026c-0.32,0.051-0.401-0.029-0.354-0.35c0.011-0.079,0.023-0.158,0.045-0.232
			c0.066-0.231,0.035-0.404-0.23-0.486c-0.183-0.059-0.246-0.219-0.26-0.398c-0.009-0.14-0.021-0.277-0.128-0.387
			c-0.022-0.02-0.044-0.039-0.065-0.059c-0.034-0.028-0.066-0.06-0.099-0.09c-0.231-0.195-0.177-0.438-0.112-0.686
			c0.086-0.322,0.082-0.327-0.225-0.393c-0.129-0.026-0.224-0.1-0.271-0.211c-0.144-0.328-0.399-0.5-0.737-0.582
			c-0.027-0.013-0.052-0.028-0.072-0.053c-0.02-0.023-0.034-0.051-0.042-0.081c0.084-0.298,0.28-0.521,0.488-0.739
			c0.327-0.09,0.609,0.028,0.886,0.185c0.36,0.187,0.542,0.46,0.483,0.879c-0.022,0.158,0.057,0.31,0.095,0.461
			c0.005,0.603,0.235,0.994,0.905,0.989c0.057-0.002,0.11,0.031,0.16,0.068c0.109,0.123,0.08,0.264,0.03,0.395
			c-0.087,0.234-0.077,0.441,0.125,0.619c0.044,0.038,0.089,0.09,0.099,0.146c0.125,0.649,0.742,0.856,1.133,1.27
			C21.27,20.225,21.405,20.247,21.375,20.395"/>
		<path fill="#017CBD" d="M7.987,2.094C8.221,1.918,8.483,1.786,8.758,1.68c0.218,0.062,0.235,0.262,0.301,0.426
			c0.009,0.152-0.061,0.287-0.114,0.424C8.78,2.96,8.79,2.971,9.237,2.987c0.089,0.002,0.178-0.001,0.265,0.021
			c0.33,0.123,0.396,0.396,0.397,0.702C9.794,3.901,9.783,4.089,9.862,4.303c0.072,0.186,0.158,0.291,0.375,0.306
			c0.302,0.019,0.354,0.135,0.235,0.413c-0.053,0.125-0.144,0.234-0.169,0.396c0.292,0.063,0.622-0.064,0.873,0.171
			c0.12,0.177,0.23,0.359,0.391,0.507c0.091,0.082,0.138,0.188,0.141,0.313c0.014,0.171-0.057,0.311-0.178,0.422
			c-0.141,0.129-0.256,0.277-0.364,0.432c-0.403,0.021-0.438,0.008-0.589-0.341c-0.116-0.265-0.32-0.452-0.532-0.629
			c-0.146-0.123-0.2-0.245-0.149-0.438c0.088-0.336-0.063-0.574-0.399-0.67C9.39,5.153,9.282,5.141,9.2,5.057
			C9.065,4.905,9.009,4.708,8.94,4.528C8.86,4.313,8.785,4.104,8.616,3.936c-0.113-0.11-0.103-0.271-0.11-0.42
			c-0.009-0.151-0.048-0.287-0.19-0.381C7.963,2.901,7.84,2.495,7.987,2.094"/>
		<path fill="#014A71" d="M5.063,8.44C5.385,8.672,5.61,8.956,5.608,9.387c-0.002,0.17,0.053,0.347,0.17,0.485
			c0.021,0.021,0.054,0.051,0.049,0.072c-0.106,0.468,0.191,0.877,0.184,1.33c-0.005,0.267,0.207,0.3,0.405,0.34
			c0.092,0.021,0.228-0.062,0.26,0.104l-0.005,0.004c-0.029,0.035-0.084,0.022-0.113,0.062l-0.003,0.001
			c-0.03,0.033-0.087,0.021-0.114,0.063H6.438c-0.032,0.029-0.092,0.021-0.114,0.063c-0.167,0.126-0.347,0.228-0.536,0.308
			c-0.002-0.16-0.014-0.313,0.031-0.475c0.062-0.213,0.013-0.255-0.223-0.259c-0.208-0.003-0.408,0.067-0.619,0.069
			c-0.125,0.002-0.209-0.008-0.268-0.119c-0.057-0.107-0.104-0.219-0.01-0.334c0.023-0.028,0.037-0.072,0.065-0.099
			c0.23-0.187,0.24-0.421,0.183-0.688C4.903,10.109,4.86,9.928,4.614,9.889C4.492,9.867,4.448,9.805,4.499,9.676
			c0.039-0.103,0.064-0.21,0.081-0.316C4.608,9.166,4.506,9.04,4.328,9.105C3.985,9.237,3.807,9.079,3.659,8.809
			C3.632,8.76,3.586,8.698,3.537,8.682c-0.21-0.067-0.224-0.248-0.269-0.418C3.235,8.132,3.237,7.982,3.096,7.9
			C3.164,7.646,3.264,7.408,3.397,7.18c0.029-0.031,0.016-0.084,0.054-0.111V7.064c0.196,0.07,0.265,0.271,0.405,0.401
			c0.258,0.232,0.579,0.416,0.666,0.802c0.025,0.117,0.144,0.109,0.247,0.102C4.875,8.36,4.991,8.314,5.063,8.44"/>
		<path fill="#0490D9" d="M10.423,1.02c0.217,0.162,0.466,0.268,0.707,0.385c0.113,0.057,0.201,0.117,0.225,0.255
			c0.038,0.223,0.196,0.364,0.367,0.487c0.172,0.121,0.328,0.256,0.426,0.447c0.08,0.158,0.248,0.194,0.391,0.256
			c0.111,0.05,0.174,0.104,0.188,0.229c0.029,0.23,0.106,0.456,0.06,0.698c-0.043,0.211,0.094,0.377,0.313,0.421
			c0.068,0.015,0.134,0.035,0.202,0.05c0.094,0.021,0.131,0.079,0.126,0.173c-0.008,0.141,0.022,0.273,0.054,0.409
			c0.025,0.118,0.011,0.231-0.086,0.332c-0.08,0.086-0.139,0.19-0.207,0.291c-0.193,0.083-0.367-0.024-0.487-0.13
			c-0.218-0.186-0.443-0.365-0.619-0.598c-0.031-0.146,0.037-0.272,0.081-0.401c0.052-0.156,0.022-0.271-0.128-0.353
			c-0.109-0.055-0.198-0.129-0.236-0.252c-0.103-0.319-0.297-0.514-0.66-0.469c-0.058,0.008-0.116-0.013-0.171-0.043
			c-0.138-0.105-0.12-0.263-0.128-0.41c-0.01-0.209-0.084-0.369-0.261-0.505c-0.253-0.192-0.482-0.424-0.518-0.768
			c-0.015-0.138-0.191-0.181-0.162-0.33C10.063,1.109,10.237,1.049,10.423,1.02"/>
		<path fill="#015B8B" d="M16.591,22.951c-0.111,0.059-0.23,0.086-0.357,0.063c-0.012-0.002-0.023-0.004-0.036-0.004
			c-0.085-0.028-0.155-0.084-0.238-0.119c-0.062-0.023-0.122-0.047-0.185-0.068c-0.19-0.135-0.436-0.186-0.59-0.376
			c-0.053-0.116-0.178-0.197-0.199-0.326c-0.068-0.421-0.293-0.743-0.551-1.078c-0.23-0.302-0.473-0.509-0.839-0.575
			c-0.13-0.231-0.252-0.47-0.343-0.724c-0.025-0.222,0.113-0.364,0.244-0.508c0.109-0.122,0.216-0.25,0.343-0.356
			c0.243-0.018,0.45,0.071,0.606,0.249c0.205,0.233,0.426,0.435,0.729,0.525c0.088,0.024,0.153,0.089,0.199,0.169
			c0.068,0.128,0.166,0.244,0.201,0.389c0.126,0.442,0.203,0.901,0.456,1.301c0.034,0.061,0.063,0.123,0.062,0.194
			c-0.027,0.151-0.144,0.253-0.222,0.374c-0.163,0.253-0.167,0.252,0.14,0.309c0.125,0.021,0.251,0.031,0.375,0.068
			c0.104,0.031,0.208,0.063,0.255,0.178C16.676,22.747,16.677,22.857,16.591,22.951"/>
		<path fill="#0C98E1" d="M19.221,13.278c-0.056-0.261-0.188-0.511-0.372-0.66c-0.161-0.129-0.275-0.298-0.438-0.419
			c-0.147-0.111-0.167-0.262-0.133-0.428c0.033-0.162,0.071-0.325,0.101-0.489c0.033-0.19,0.001-0.228-0.188-0.277
			c-0.205-0.052-0.381-0.168-0.563-0.265c-0.071-0.037-0.118-0.102-0.134-0.188c-0.021-0.117-0.049-0.23-0.078-0.347
			c-0.07-0.274-0.124-0.334-0.398-0.329c-0.213,0.005-0.386-0.062-0.546-0.188c0.327-0.258,0.667-0.496,1.022-0.713
			c0.203-0.002,0.197,0.172,0.226,0.291c0.056,0.233,0.16,0.396,0.425,0.412c0.119,0.008,0.189,0.095,0.244,0.191
			c0.174,0.261,0.244,0.551,0.239,0.859c-0.001,0.085,0.015,0.179,0.103,0.195c0.332,0.066,0.395,0.351,0.498,0.603
			c0.021,0.045,0.038,0.09,0.059,0.136c-0.027,0.332,0.139,0.564,0.385,0.757c0.047,0.037,0.104,0.063,0.145,0.105
			c0.076,0.082,0.113,0.157,0.045,0.284c-0.116,0.221-0.104,0.229,0.104,0.399c0.134,0.109,0.222,0.253,0.316,0.392
			c0.128,0.186,0.175,0.375,0.019,0.569c-0.248-0.021-0.495-0.052-0.716-0.18v-0.06c-0.022-0.021-0.037-0.043-0.062-0.062v-0.062
			c-0.021-0.02-0.036-0.043-0.061-0.06v-0.058c-0.021-0.02-0.037-0.042-0.061-0.06v-0.061c-0.021-0.019-0.036-0.042-0.061-0.06
			v-0.061c-0.021-0.018-0.037-0.042-0.06-0.061V13.33C19.26,13.32,19.244,13.296,19.221,13.278"/>
		<path fill="#0189D0" d="M12.112,4.735c0.203,0.122,0.38,0.271,0.529,0.456c0.139,0.169,0.356,0.188,0.543,0.262
			c0.002,0.02,0.002,0.038,0.002,0.061c0.021,0.019,0.036,0.041,0.061,0.061c0.031,0.169,0.098,0.325,0.18,0.479
			c0.024,0.279-0.136,0.508-0.226,0.754c-0.068,0.189-0.097,0.33,0.141,0.426c0.213,0.085,0.25,0.316,0.325,0.511
			c0.075,0.19,0.143,0.349,0.402,0.362c0.153,0.007,0.328,0.106,0.254,0.341c-0.188,0.104-0.393,0.176-0.602,0.229
			c-0.092-0.317-0.34-0.433-0.634-0.49c-0.31-0.063-0.452-0.227-0.479-0.568c-0.027-0.401-0.354-0.645-0.677-0.841
			c-0.146-0.093-0.286-0.171-0.301-0.363c0.022-0.147-0.077-0.233-0.173-0.319c-0.145-0.125-0.254-0.27-0.305-0.455
			c-0.07-0.355,0.147-0.61,0.305-0.89C11.677,4.639,11.892,4.598,12.112,4.735"/>
		<path fill="#015E90" d="M6.079,7.066C6.11,6.824,5.944,6.707,5.78,6.587C5.577,6.399,5.567,6.149,5.584,5.901
			c0.014-0.22-0.054-0.369-0.249-0.488C5.116,5.277,4.969,5.059,4.821,4.85c0.094-0.159,0.207-0.303,0.35-0.422
			c0.03-0.014,0.056-0.029,0.063-0.064L5.227,4.368c0.04-0.01,0.063-0.037,0.063-0.077C5.292,4.27,5.302,4.257,5.323,4.252
			c0.005-0.021,0.018-0.033,0.039-0.04l0.013-0.015c0.009-0.021,0.024-0.039,0.047-0.049l0.01-0.012
			c0.011-0.021,0.028-0.039,0.05-0.053l0.006-0.008C5.504,4.055,5.52,4.037,5.541,4.021l0.006-0.008
			c0.017-0.021,0.034-0.037,0.053-0.055l0.007-0.006C5.623,3.932,5.639,3.916,5.66,3.898l0.004-0.006
			C5.681,3.872,5.7,3.854,5.718,3.835L5.722,3.83C5.742,3.813,5.76,3.795,5.78,3.777l0.006-0.006
			C5.802,3.751,5.819,3.735,5.84,3.719L5.845,3.71C5.862,3.691,5.88,3.673,5.901,3.657l0.006-0.005
			c0.017-0.02,0.037-0.027,0.062-0.03c0.024-0.004,0.047,0.001,0.068,0.015c0.03,0.02,0.054,0.045,0.071,0.073
			c0.016,0.031,0.024,0.065,0.034,0.101c0.013,0.03,0.024,0.063,0.037,0.097C6.19,3.932,6.198,3.954,6.204,3.979
			c0.011,0.039,0.02,0.076,0.021,0.117c-0.003,0.026-0.012,0.056-0.022,0.08C6.047,4.36,5.905,4.526,6.003,4.813
			c0.074,0.211,0.152,0.353,0.386,0.385c0.229,0.031,0.315,0.181,0.306,0.4c-0.002,0.09,0.017,0.184,0,0.269
			C6.639,6.145,6.71,6.307,7.03,6.279c0.104-0.008,0.199,0.059,0.242,0.15c0.114,0.252,0.31,0.407,0.557,0.511
			c0.035,0.015,0.058,0.054,0.072,0.092c0.004,0.039,0.012,0.087-0.021,0.11C7.635,7.329,7.514,7.605,7.346,7.85
			c-0.152,0.02-0.229-0.099-0.313-0.187C6.764,7.385,6.395,7.27,6.079,7.066"/>
		<path fill="#0187CE" d="M9.897,1.197c0.146,0.111,0.232,0.23,0.264,0.443c0.037,0.258,0.25,0.478,0.475,0.604
			c0.23,0.132,0.262,0.319,0.281,0.533c0.012,0.136-0.018,0.274,0.063,0.401c-0.05,0.272,0.049,0.455,0.289,0.609
			c0.301,0.192,0.354,0.537,0.196,0.95c-0.29-0.021-0.544-0.156-0.809-0.257c-0.134-0.051-0.179-0.185-0.197-0.313
			c-0.032-0.223-0.14-0.334-0.373-0.32C9.985,3.852,9.887,3.825,9.843,3.714c-0.027-0.27-0.076-0.526-0.359-0.655
			C9.389,2.955,9.38,2.823,9.378,2.703c-0.003-0.282-0.116-0.48-0.371-0.602C8.924,1.959,8.841,1.817,8.758,1.676
			c0.304-0.182,0.62-0.32,0.958-0.416c0.037-0.026,0.09-0.017,0.124-0.049C9.858,1.21,9.878,1.204,9.897,1.197"/>
		<path fill="#008CD4" d="M16.043,9.987c0.1,0.011,0.192-0.007,0.29-0.036c0.105-0.032,0.156,0.029,0.119,0.131
			c-0.06,0.156-0.125,0.313-0.194,0.463c-0.12,0.268-0.089,0.587,0.245,0.742c0.303,0.143,0.501,0.374,0.629,0.677
			c-0.166,0.339-0.113,0.73-0.271,1.07c-0.225,0.101-0.41,0.007-0.595-0.116c-0.177-0.117-0.315-0.291-0.532-0.353
			c-0.211-0.097-0.459-0.146-0.516-0.427c-0.013-0.449-0.058-0.888-0.389-1.235c-0.034-0.036-0.039-0.091-0.036-0.142
			c0.326-0.127,0.586-0.357,0.876-0.539C15.795,10.145,15.903,10.042,16.043,9.987"/>
		<path fill="#0177B5" d="M12.463,11.479c0.369-0.148,0.75-0.269,1.139-0.355c0.035-0.021,0.095-0.035,0.105-0.006
			c0.095,0.283,0.409,0.363,0.551,0.604c0.047,0.266,0.021,0.531,0.019,0.799c0,0.11-0.016,0.227,0.105,0.285
			c0.203,0.1,0.313,0.275,0.382,0.474c0.119,0.344,0.261,0.677,0.41,1.01c-0.218,0.312-0.415,0.365-0.793,0.228
			c-0.233-0.295-0.634-0.443-0.725-0.867c-0.039-0.178-0.085-0.35,0.008-0.519c0.085-0.153,0.03-0.256-0.099-0.354
			c-0.139-0.104-0.282-0.179-0.45-0.22c-0.167-0.041-0.308-0.143-0.29-0.323C12.851,11.9,12.722,11.661,12.463,11.479"/>
		<path fill="#016FA8" d="M12.463,11.479c0.376,0.134,0.424,0.197,0.426,0.569c0.001,0.36,0.003,0.355,0.382,0.458
			c0.215,0.062,0.363,0.232,0.535,0.361c0.063,0.047,0.039,0.129-0.011,0.188c-0.155,0.182-0.161,0.377-0.062,0.582
			c0.088,0.18,0.106,0.398,0.349,0.482c0.155,0.052,0.237,0.203,0.301,0.352c0.026,0.277-0.229,0.688-0.489,0.791
			c-0.181-0.141-0.138-0.358-0.176-0.545c-0.049-0.238-0.121-0.383-0.407-0.316c-0.139,0.031-0.295,0.023-0.435-0.039
			c-0.118-0.074-0.215-0.166-0.264-0.303c0.021-0.301-0.154-0.561-0.179-0.852c0-0.101,0.037-0.193,0.06-0.289
			c0.028-0.141-0.012-0.242-0.133-0.326c-0.479-0.332-0.479-0.332-0.298-0.886c0.014-0.037,0.034-0.071,0.037-0.11
			C12.212,11.528,12.333,11.49,12.463,11.479"/>
		<path fill="#0D99E2" d="M15.159,6.887c0.014-0.047,0.016-0.104,0.043-0.141c0.158-0.212,0.154-0.431-0.012-0.623
			c-0.229-0.263-0.229-0.564-0.211-0.88c0.002-0.05,0-0.101,0-0.147c0.222-0.201,0.454-0.222,0.656-0.063
			c0.059,0.109,0.146,0.193,0.24,0.26c0.22,0.15,0.411,0.329,0.596,0.518c0.12,0.18,0.073,0.359,0.018,0.541
			c-0.051,0.16-0.1,0.317-0.103,0.49c-0.005,0.229,0.095,0.326,0.318,0.32c0.106-0.005,0.218-0.007,0.323,0.01
			c0.117,0.021,0.242,0.038,0.233,0.203l-0.004-0.002c-0.041,0.02-0.093,0.016-0.128,0.05l-0.002,0.003
			c-0.047,0.051-0.131,0.002-0.176,0.063l0,0c-0.051,0.05-0.135-0.002-0.18,0.063l0.002-0.003c-0.053,0.048-0.139-0.005-0.183,0.064
			l0.004-0.003c-0.04,0.022-0.091,0.018-0.126,0.052l-0.017,0.013l-0.021-0.003c-0.046,0.021-0.102,0.013-0.141,0.054
			c-0.228,0.115-0.465,0.196-0.712,0.26c-0.106-0.098-0.066-0.219-0.045-0.329c0.029-0.179-0.023-0.295-0.188-0.386
			C15.212,7.192,15.04,7.105,15.159,6.887"/>
		<path fill="#0173AF" d="M7.987,2.094C7.974,2.331,8.08,2.559,8.052,2.799C8.037,2.926,8.139,2.979,8.233,3
			c0.306,0.076,0.368,0.297,0.353,0.563c-0.01,0.173,0.036,0.309,0.171,0.416c0.118,0.099,0.169,0.22,0.207,0.375
			C9.02,4.588,9.149,4.809,9.246,5.035c0.011,0.304-0.239,0.415-0.42,0.576c-0.06,0.021-0.118,0.025-0.179,0.015
			c-0.171-0.069-0.306-0.185-0.4-0.341c-0.027-0.09-0.01-0.18,0.031-0.258C8.399,4.801,8.326,4.676,8.09,4.618
			C7.974,4.587,7.86,4.547,7.758,4.488C7.651,4.428,7.598,4.366,7.662,4.227c0.19-0.422-0.058-0.896-0.505-0.991
			C7.032,3.129,6.901,3.026,6.809,2.885C7.172,2.576,7.561,2.309,7.987,2.094"/>
		<path fill="#015784" d="M10.618,15.25c-0.055-0.02-0.113-0.06-0.166-0.055c-0.256,0.025-0.385-0.1-0.445-0.332
			c-0.012-0.049-0.037-0.092-0.049-0.139c-0.064-0.26-0.164-0.472-0.491-0.438c-0.104,0.012-0.165-0.079-0.184-0.164
			c-0.074-0.358-0.355-0.565-0.609-0.769c-0.196-0.154-0.233-0.289-0.146-0.496c0.307-0.148,0.621-0.273,0.951-0.361
			c0.076-0.046,0.146-0.018,0.165,0.057c0.093,0.396,0.413,0.482,0.741,0.567c0.114,0.073,0.205,0.162,0.225,0.304
			c-0.103,0.338-0.084,0.646,0.086,0.978C10.835,14.665,10.804,14.98,10.618,15.25"/>
		<path fill="#0169A0" d="M8.289,5.274c0.119,0.099,0.239,0.198,0.358,0.299c0.062,0.069,0.056,0.147,0.019,0.219
			c-0.123,0.237-0.183,0.499-0.3,0.735c-0.027,0.02-0.06,0.023-0.09,0.017C7.942,6.398,7.76,6.113,7.63,5.799
			c-0.118-0.285-0.292-0.41-0.611-0.392C6.632,5.43,6.599,5.37,6.643,4.973c0.006-0.06,0.008-0.117,0.014-0.179
			c0.031-0.431,0.031-0.429-0.359-0.61c-0.047-0.021-0.08-0.059-0.099-0.104C6.164,4.047,6.177,3.99,6.137,3.959
			c0-0.021-0.001-0.04-0.001-0.06C6.116,3.879,6.102,3.856,6.078,3.838c-0.001-0.039-0.001-0.08-0.001-0.119
			c-0.021-0.02-0.038-0.041-0.061-0.062C5.994,3.645,5.975,3.624,5.964,3.6c0.253-0.272,0.535-0.514,0.844-0.72
			c0.168,0.037,0.25,0.175,0.344,0.3c0.096,0.192-0.021,0.371-0.055,0.549c-0.048,0.258-0.013,0.418,0.271,0.49
			c0.226,0.057,0.357,0.226,0.338,0.465C7.683,4.984,7.784,5.16,8.104,5.176C8.177,5.182,8.237,5.225,8.289,5.274"/>
		<path fill="#01669C" d="M8.289,6.528h0.061c0.396,0.063,0.738,0.229,1.009,0.532c0.052,0.102,0.08,0.207,0.08,0.318
			C9.432,7.616,9.311,7.836,9.356,8.084C9.395,8.301,9.391,8.52,9.634,8.635C9.729,8.68,9.737,8.797,9.737,8.9
			C9.74,9,9.727,9.1,9.699,9.193C9.621,9.46,9.692,9.626,9.97,9.714c0.148,0.048,0.347,0.114,0.235,0.356
			c-0.251,0.135-0.514,0.248-0.784,0.338c-0.084-0.135-0.067-0.288-0.076-0.438c0.099-0.342-0.082-0.613-0.223-0.896
			C9.058,8.947,8.934,8.91,8.808,8.873C8.51,8.784,8.457,8.695,8.508,8.396C8.522,8.32,8.54,8.242,8.563,8.167
			c0.045-0.144,0.009-0.241-0.152-0.245c-0.266-0.005-0.359-0.171-0.4-0.396C7.985,7.38,7.913,7.244,7.905,7.094
			C7.938,6.846,8.091,6.67,8.289,6.528"/>
		<path fill="#0180C3" d="M11.634,6.407c0.07,0.137,0.176,0.228,0.319,0.282c0.179,0.067,0.331,0.176,0.421,0.354
			c0.021,0.043,0.057,0.085,0.098,0.111c0.214,0.134,0.24,0.34,0.239,0.564c-0.002,0.25,0.005,0.25,0.242,0.332
			c0.131,0.047,0.26,0.094,0.392,0.133c0.346,0.101,0.354,0.106,0.379,0.485c-0.312,0.142-0.626,0.271-0.955,0.365
			c-0.06-0.104-0.082-0.22-0.142-0.323c-0.208-0.354-0.226-0.377-0.629-0.295c-0.25,0.053-0.374-0.034-0.413-0.273
			c-0.016-0.2-0.089-0.371-0.223-0.529c-0.09-0.104-0.237-0.191-0.207-0.369c-0.021-0.218,0.166-0.302,0.283-0.428
			C11.551,6.697,11.67,6.594,11.634,6.407"/>
		<path fill="#008CD5" d="M21.375,20.395c-0.381-0.258-0.657-0.649-1.081-0.853c-0.07-0.032-0.1-0.088-0.121-0.155
			c-0.092-0.28-0.169-0.564-0.411-0.772c-0.114-0.101-0.071-0.259-0.024-0.392c0.053-0.149,0.102-0.302,0.082-0.463
			c-0.052-0.08-0.062-0.148,0.043-0.191c0.111,0.242,0.319,0.313,0.566,0.349c0.381,0.056,0.665,0.343,0.728,0.718
			c0.038,0.229,0.118,0.416,0.319,0.543c0.094,0.062,0.164,0.146,0.196,0.256l0,0c0.234,0.185,0.14,0.401,0.068,0.619
			C21.637,20.188,21.515,20.303,21.375,20.395"/>
		<path fill="#016398" d="M16.591,22.951c0.001-0.117,0.002-0.234,0.002-0.354c-0.126-0.182-0.044-0.362,0.01-0.535
			c0.066-0.213,0-0.291-0.215-0.28c-0.115,0.005-0.238,0.013-0.332-0.08c-0.045-0.076-0.088-0.153-0.135-0.228
			c-0.116-0.186-0.388-1.035-0.404-1.268c0.297-0.188,0.631-0.271,0.963-0.359c0.207,0.026,0.328,0.17,0.344,0.352
			c0.021,0.311,0.16,0.58,0.254,0.865c0.014,0.101,0.019,0.207-0.033,0.291c-0.135,0.224-0.053,0.393,0.104,0.56
			c0.153,0.169,0.295,0.343,0.338,0.583c0.022,0.124,0.002,0.186-0.111,0.221C17.123,22.835,16.862,22.908,16.591,22.951"/>
		<path fill="#017FC2" d="M18.385,17.939c0.207,0.033,0.245,0.195,0.234,0.355c-0.021,0.285,0.083,0.46,0.371,0.514
			c0.15,0.023,0.191,0.125,0.17,0.259c-0.03,0.176-0.068,0.349-0.104,0.521c-0.044,0.229,0.007,0.277,0.225,0.231
			c0.269-0.058,0.538-0.116,0.84-0.185c-0.03,0.33,0.067,0.639-0.09,0.931c-0.062,0.11-0.003,0.179,0.092,0.243
			c0.128,0.091,0.271,0.176,0.294,0.354c-0.256,0.216-0.532,0.401-0.834,0.546c-0.069-0.172-0.021-0.351-0.016-0.523
			c0.007-0.237-0.075-0.394-0.3-0.482c-0.127-0.051-0.251-0.111-0.357-0.201c-0.068-0.063-0.127-0.131-0.15-0.223
			c0.008-0.038-0.021,0.004-0.001-0.029c0.352-0.548-0.109-0.827-0.383-1.169c-0.131-0.164-0.352-0.021-0.49-0.149
			c-0.076-0.074-0.125-0.164-0.145-0.27C17.833,18.311,18.108,18.124,18.385,17.939"/>
		<path fill="#015A8A" d="M9.423,9.993c-0.031,0.139,0.064,0.276,0,0.416c-0.472,0.233-0.948,0.455-1.436,0.655
			c-0.021-0.221-0.084-0.42-0.25-0.579c-0.039-0.04-0.095-0.095-0.096-0.144c-0.005-0.388-0.242-0.701-0.31-1.065
			C7.405,9.234,7.485,9.24,7.557,9.264c0.327,0.11,0.676,0.082,1.01,0.145c0.19,0.186,0.381,0.367,0.685,0.347
			C9.405,9.743,9.374,9.908,9.423,9.993"/>
		<path fill="#0171AC" d="M11.694,9.458c-0.289,0.142-0.586,0.271-0.896,0.363c-0.021-0.23-0.114-0.408-0.327-0.521
			c-0.087-0.047-0.174-0.125-0.187-0.225C10.223,8.591,9.885,8.223,9.76,7.764C9.737,7.676,9.647,7.586,9.759,7.496
			c0.137-0.063,0.284-0.084,0.43-0.113c0.342-0.074,0.492,0.036,0.563,0.381c0.04,0.201-0.075,0.451,0.094,0.596
			c0.15,0.127,0.383,0.029,0.577,0.063c0.09,0.014,0.174,0.037,0.233,0.113c0.098,0.23,0.063,0.488,0.143,0.727
			C11.826,9.346,11.764,9.41,11.694,9.458"/>
		<path fill="#018DD6" d="M14.324,8.442c-0.116-0.27-0.169-0.314-0.403-0.272c-0.12,0.021-0.168-0.023-0.205-0.113
			c-0.061-0.146-0.119-0.293-0.174-0.439c-0.067-0.184-0.145-0.348-0.367-0.384c-0.135-0.024-0.164-0.108-0.111-0.242
			c0.12-0.313,0.223-0.636,0.363-0.938c0.281-0.033,0.395,0.186,0.537,0.358c0.061,0.438,0.332,0.769,0.563,1.12
			c0.102,0.154,0.217,0.275,0.367,0.379c0.094,0.063,0.258,0.138,0.086,0.292C14.77,8.307,14.552,8.389,14.324,8.442"/>
		<path fill="#016AA1" d="M9.722,7.544c0.165,0.226,0.216,0.503,0.341,0.748c0.022,0.044,0.021,0.11,0.054,0.136
			c0.178,0.146,0.228,0.332,0.208,0.555c-0.01,0.099,0.064,0.16,0.134,0.22c0.06,0.05,0.127,0.09,0.19,0.136
			c0.246,0.169,0.25,0.182,0.151,0.485c-0.185,0.11-0.385,0.188-0.592,0.25c0.019-0.165-0.101-0.217-0.22-0.274
			c-0.147-0.07-0.374-0.064-0.418-0.234c-0.036-0.147,0.044-0.323,0.07-0.487c0.012-0.06,0.017-0.116,0.022-0.175
			c0.017-0.137-0.033-0.238-0.171-0.27C9.329,8.6,9.328,8.486,9.3,8.352c-0.068-0.338-0.004-0.66,0.066-0.984
			C9.512,7.367,9.614,7.462,9.722,7.544"/>
		<path fill="#014E76" d="M6.676,11.723c-0.034-0.043-0.08-0.063-0.131-0.043c-0.234,0.101-0.394-0.056-0.567-0.162
			c-0.078-0.047-0.1-0.136-0.063-0.209c0.072-0.152,0.035-0.297-0.027-0.432c-0.12-0.256-0.215-0.508-0.109-0.796
			C5.8,10.02,5.782,9.942,5.783,9.873c0.15,0.035,0.304,0.083,0.458,0.102c0.154,0.021,0.254,0.084,0.31,0.23
			c0.021,0.055,0.078,0.098,0.09,0.148c0.043,0.189,0.159,0.246,0.345,0.24c0.162-0.002,0.221,0.07,0.227,0.31
			c0.004,0.176,0.051,0.327,0.131,0.477C7.129,11.518,6.905,11.629,6.676,11.723"/>
		<path fill="#015683" d="M4.821,4.852c0.109,0.007,0.177,0.08,0.23,0.164c0.115,0.18,0.257,0.33,0.451,0.418
			c0.115,0.054,0.166,0.136,0.156,0.261c-0.001,0.019,0.001,0.04-0.001,0.06C5.63,6.041,5.678,6.318,5.778,6.589
			C5.549,6.653,5.304,6.626,5.076,6.678c-0.099,0.021-0.15-0.017-0.208-0.074C4.762,6.5,4.661,6.389,4.55,6.291
			C4.417,6.173,4.328,6.057,4.397,5.858C4.431,5.76,4.416,5.637,4.293,5.576C4.438,5.311,4.615,5.07,4.821,4.852"/>
		<path fill="#0692DB" d="M14.979,8.2c0.054-0.087,0.023-0.171-0.059-0.196c-0.316-0.102-0.421-0.398-0.593-0.631
			c-0.047-0.063-0.081-0.139-0.134-0.197c-0.188-0.224-0.275-0.475-0.23-0.769c0.301-0.003,0.574,0.077,0.822,0.25
			c0.117,0.084,0.249,0.153,0.373,0.229c-0.018,0.181,0.099,0.264,0.238,0.326c0.239,0.111,0.276,0.176,0.23,0.424
			c-0.021,0.113-0.066,0.226-0.046,0.346C15.391,8.083,15.188,8.149,14.979,8.2"/>
		<path fill="#014E77" d="M5.063,8.44C4.934,8.385,4.806,8.434,4.688,8.459C4.567,8.486,4.5,8.477,4.464,8.352
			C4.386,8.085,4.25,7.874,4.01,7.703c-0.224-0.162-0.437-0.366-0.56-0.634c0.067-0.22,0.174-0.414,0.303-0.601
			c0.021-0.023,0.041-0.048,0.045-0.08c-0.007-0.02,0-0.033,0.021-0.041C3.835,6.327,3.847,6.305,3.86,6.283L3.858,6.288
			c0.049-0.022,0.034-0.084,0.065-0.116L3.925,6.17c0.063,0.014,0.126,0.027,0.093,0.111C3.979,6.373,3.928,6.46,3.89,6.553
			C3.844,6.66,3.871,6.742,3.983,6.797C4.108,6.86,4.231,6.923,4.351,6.99c0.175,0.099,0.341,0.204,0.402,0.413
			C4.786,7.51,4.883,7.549,4.974,7.589C5.183,7.684,5.181,7.684,5.13,7.913C5.091,8.084,5.042,8.26,5.063,8.44"/>
		<path fill="#0181C5" d="M14.203,11.727c-0.042-0.105-0.146-0.133-0.231-0.176c-0.139-0.064-0.27-0.13-0.252-0.318
			c0.007-0.072-0.055-0.098-0.118-0.109c0.392-0.145,0.784-0.275,1.191-0.359c0.115,0.146,0.237,0.285,0.345,0.438
			c0.13,0.187,0.105,0.41,0.137,0.62c0.019,0.104,0.004,0.216,0.004,0.322c-0.287,0.154-0.52-0.086-0.779-0.111
			C14.321,12.012,14.222,11.902,14.203,11.727"/>
		<path fill="#016AA1" d="M17.372,22.719c0.023-0.026,0.076-0.074,0.068-0.087c-0.096-0.163-0.043-0.382-0.222-0.521
			c-0.127-0.102-0.214-0.251-0.326-0.374c-0.065-0.077-0.038-0.144-0.001-0.216c0.069-0.131,0.142-0.26,0.119-0.418
			c0.18-0.002,0.352,0.057,0.529,0.051c0.179-0.01,0.269,0.115,0.326,0.259c0.109,0.269,0.303,0.437,0.58,0.502
			c0.086,0.095,0.197,0.181,0.119,0.332C18.188,22.455,17.789,22.609,17.372,22.719"/>
		<path fill="#119DE6" d="M17.263,7.376c-0.058-0.114-0.157-0.135-0.271-0.134c-0.157,0.005-0.316,0.01-0.475-0.003
			c-0.172-0.017-0.202-0.079-0.214-0.25c-0.017-0.238,0.023-0.466,0.115-0.685c0.068-0.16,0.052-0.328,0.055-0.494
			c0.16,0.17,0.378,0.209,0.59,0.229c0.174,0.02,0.221,0.098,0.267,0.252c0.081,0.285,0.159,0.567,0.182,0.864
			c0.003,0.053-0.003,0.097-0.021,0.146C17.422,7.352,17.346,7.375,17.263,7.376"/>
		<path fill="#016194" d="M10.557,13.398c-0.06-0.079-0.117-0.16-0.179-0.239c-0.135-0.36,0-0.69,0.116-1.022
			c0.169-0.093,0.349-0.149,0.537-0.187c0.255,0.021,0.423,0.198,0.603,0.345c0.172,0.141,0.04,0.305-0.009,0.46
			c-0.12,0.293-0.344,0.5-0.58,0.698C10.878,13.489,10.71,13.516,10.557,13.398"/>
		<path fill="#0169A0" d="M11.575,12.741c0.097-0.347,0.097-0.347-0.192-0.545c-0.117-0.081-0.233-0.165-0.35-0.247
			c0.347-0.146,0.7-0.27,1.065-0.354c0.047,0.029,0.064,0.066,0.043,0.125c-0.031,0.092-0.063,0.185-0.093,0.276
			c-0.092,0.289-0.086,0.306,0.171,0.438c0.436,0.228,0.447,0.258,0.273,0.729c-0.008,0.018-0.018,0.035-0.024,0.055
			C12.045,13.413,11.539,13.145,11.575,12.741"/>
		<path fill="#0173AF" d="M18.567,22.245c0.01-0.122-0.132-0.185-0.121-0.305c0.061-0.222,0.015-0.4-0.139-0.589
			c-0.363-0.455-0.312-0.735,0.178-1.135c0.113-0.033,0.224-0.033,0.316,0.051c0.04,0.061,0.079,0.119,0.12,0.18
			c0.129,0.206,0.021,0.424,0.021,0.634c0,0.265,0.034,0.464,0.344,0.515c0.083,0.016,0.203,0.041,0.182,0.184
			C19.188,21.975,18.886,22.127,18.567,22.245"/>
		<path fill="#109CE5" d="M18.385,9.873c-0.135-0.145-0.331-0.118-0.497-0.168c-0.099-0.031-0.148-0.063-0.169-0.168
			c-0.023-0.136-0.079-0.266-0.109-0.398c-0.018-0.073-0.052-0.129-0.118-0.16c0.267-0.219,0.547-0.42,0.843-0.598
			c0.105,0.002,0.154,0.074,0.188,0.16c0.045,0.107,0.077,0.221,0.17,0.305c0.068,0.063,0.053,0.146,0.007,0.217
			c-0.095,0.149-0.122,0.332-0.231,0.477C18.392,9.637,18.376,9.752,18.385,9.873"/>
		<path fill="#017DBE" d="M11.694,9.458c0.027-0.071,0.086-0.144,0.037-0.219c-0.138-0.213-0.089-0.45-0.099-0.681
			c-0.081-0.141-0.123-0.279,0-0.418c0.043,0.028,0.06,0.074,0.063,0.127c0.014,0.106,0.093,0.129,0.172,0.099
			c0.113-0.042,0.236-0.022,0.342-0.072c0.141-0.063,0.23,0.003,0.303,0.104c0.103,0.142,0.187,0.296,0.279,0.442
			c0.045,0.073,0.006,0.132-0.021,0.194C12.421,9.2,12.063,9.342,11.694,9.458"/>
		<path fill="#0178B7" d="M19.468,21.777c-0.105-0.126-0.263-0.117-0.4-0.154c-0.14-0.039-0.211-0.105-0.209-0.268
			c0.004-0.305,0.011-0.606,0.064-0.908c0.186,0.094,0.371,0.186,0.557,0.279c0.072,0.035,0.154,0.074,0.152,0.164
			c-0.005,0.272,0.059,0.553-0.05,0.818C19.556,21.757,19.514,21.771,19.468,21.777"/>
		<path fill="#0D99E2" d="M12.948,1.749c-0.106-0.01-0.206-0.051-0.313-0.065c-0.399-0.061-0.5-0.371-0.34-0.683
			c0.04-0.078,0.098-0.146,0.146-0.222c0.041-0.067,0.029-0.129-0.043-0.174c0.198-0.074,0.405-0.06,0.61-0.059
			c0.021,0.042,0.04,0.082,0.06,0.124C13.132,1.042,13.135,1.407,12.948,1.749"/>
		<path fill="#025B8B" d="M10.496,12.135c0.032,0.24-0.05,0.469-0.083,0.701c-0.016,0.108-0.029,0.215-0.033,0.322
			c-0.238-0.014-0.467-0.042-0.637-0.245c-0.069-0.083-0.15-0.153-0.144-0.278c0.009-0.084-0.038-0.128-0.12-0.138
			C9.805,12.346,10.145,12.223,10.496,12.135"/>
		<path fill="#0692DB" d="M21.74,20.053c-0.034-0.207,0.04-0.423-0.068-0.621c0.121-0.02,0.235-0.069,0.363-0.062
			c0.103,0.007,0.188,0.021,0.235,0.126C22.119,19.705,21.942,19.891,21.74,20.053"/>
		<path fill="#01466B" d="M4.035,17.764c0.088,0.098,0.2,0.166,0.269,0.282c-0.029,0.029-0.06,0.06-0.089,0.087
			c-0.106-0.104-0.187-0.227-0.225-0.373C4.007,17.74,4.022,17.741,4.035,17.764"/>
		<path fill="#0D99E2" d="M12.35,0.61c-0.11,0.112-0.25,0.047-0.377,0.057C12.092,0.6,12.222,0.609,12.35,0.61"/>
		<path fill="#88D5F7" d="M21.55,5.93c0.006-0.01,0.012-0.018,0.02-0.021c0.043-0.031,0.105-0.063,0.127-0.012
			c0.022,0.047-0.035,0.08-0.088,0.092C21.589,5.967,21.569,5.947,21.55,5.93"/>
		<path fill="#01466B" d="M3.925,17.699c-0.033-0.018-0.063-0.047-0.031-0.079c0.015-0.013,0.063,0.012,0.094,0.021
			c0.016,0.014,0.021,0.028,0.02,0.043C4.004,17.701,4,17.708,3.996,17.708C3.969,17.725,3.946,17.719,3.925,17.699"/>
		<path fill="#119DE6" d="M16.774,7.549c0.041-0.076,0.11-0.063,0.18-0.063C16.905,7.541,16.843,7.551,16.774,7.549"/>
		<path fill="#119DE6" d="M16.595,7.611c0.039-0.082,0.112-0.067,0.181-0.064C16.729,7.605,16.664,7.61,16.595,7.611"/>
		<path fill="#119DE6" d="M16.953,7.486c0.041-0.073,0.11-0.063,0.176-0.063C17.082,7.477,17.02,7.489,16.953,7.486"/>
		<path fill="#0490D9" d="M9.84,1.217C9.809,1.264,9.764,1.27,9.715,1.266C9.747,1.223,9.79,1.212,9.84,1.217"/>
		<path fill="#016397" d="M5.967,3.602L6.02,3.66c-0.039,0-0.076,0.002-0.115,0.002C5.913,3.627,5.936,3.609,5.967,3.602"/>
		<path fill="#014E76" d="M6.323,11.912c0.019-0.055,0.063-0.064,0.115-0.064C6.415,11.896,6.371,11.909,6.323,11.912"/>
		<path fill="#119DE6" d="M16.295,7.723c0.033-0.056,0.085-0.058,0.141-0.051C16.399,7.717,16.348,7.727,16.295,7.723"/>
		<path fill="#014E76" d="M6.44,11.848c0.021-0.05,0.063-0.063,0.113-0.062C6.528,11.83,6.489,11.848,6.44,11.848"/>
		<path fill="#014E76" d="M6.556,11.785c0.023-0.049,0.065-0.061,0.113-0.061C6.645,11.766,6.608,11.786,6.556,11.785"/>
		<path fill="#119DE6" d="M16.472,7.66c0.029-0.049,0.075-0.057,0.126-0.052C16.569,7.655,16.524,7.663,16.472,7.66"/>
		<path fill="#01466B" d="M3.925,17.699c0.021-0.001,0.043-0.001,0.065-0.001c0.021-0.021,0.04-0.015,0.051,0.013l-0.007,0.006
			c0.003,0.017,0.003,0.031,0.001,0.047l-0.023,0.002L3.991,17.76C3.949,17.76,3.931,17.734,3.925,17.699"/>
		<path fill="#01527D" d="M3.925,6.169c0.001,0.052-0.01,0.097-0.066,0.116C3.862,6.234,3.878,6.192,3.925,6.169"/>
		<path fill="#119DE6" d="M17.131,7.423c0.029-0.052,0.076-0.058,0.128-0.05C17.229,7.422,17.18,7.428,17.131,7.423"/>
		<path fill="#014E77" d="M3.451,7.07c0,0.045-0.011,0.087-0.054,0.111C3.391,7.135,3.412,7.098,3.451,7.07"/>
		<path fill="#014A72" d="M6.194,13.889l-0.07,0.039C6.136,13.896,6.161,13.883,6.194,13.889"/>
		<path fill="#016397" d="M5.899,3.666C5.88,3.684,5.862,3.701,5.844,3.719C5.847,3.688,5.866,3.669,5.899,3.666"/>
		<path fill="#016397" d="M5.839,3.727C5.821,3.744,5.802,3.762,5.785,3.78C5.789,3.747,5.805,3.729,5.839,3.727"/>
		<path fill="#01466B" d="M4.041,17.711c-0.021,0.001-0.036-0.003-0.051-0.013c0-0.021-0.001-0.039-0.003-0.06
			C4.016,17.654,4.036,17.678,4.041,17.711"/>
		<path fill="#016397" d="M5.778,3.784C5.758,3.803,5.741,3.82,5.72,3.837C5.724,3.805,5.745,3.787,5.778,3.784"/>
		<path fill="#016397" d="M5.719,3.842C5.7,3.861,5.681,3.879,5.664,3.9C5.666,3.864,5.682,3.846,5.719,3.842"/>
		<path fill="#016397" d="M5.66,3.903C5.64,3.921,5.625,3.94,5.606,3.958C5.608,3.926,5.628,3.908,5.66,3.903"/>
		<path fill="#016397" d="M5.598,3.964C5.581,3.984,5.563,4,5.546,4.018C5.549,3.985,5.567,3.969,5.598,3.964"/>
		<path fill="#016397" d="M5.541,4.025C5.522,4.044,5.507,4.061,5.489,4.08C5.491,4.045,5.508,4.027,5.541,4.025"/>
		<path fill="#016397" d="M5.481,4.087c-0.018,0.019-0.032,0.034-0.05,0.052C5.432,4.108,5.45,4.09,5.481,4.087"/>
		<path fill="#016397" d="M5.423,4.15C5.407,4.167,5.39,4.182,5.376,4.199C5.377,4.169,5.391,4.153,5.423,4.15"/>
		<path fill="#016397" d="M5.362,4.213C5.354,4.23,5.341,4.245,5.324,4.253C5.323,4.227,5.338,4.214,5.362,4.213"/>
		<path fill="#016397" d="M5.292,4.292c-0.003,0.04-0.024,0.067-0.063,0.077C5.235,4.332,5.257,4.307,5.292,4.292"/>
		<path fill="#016397" d="M5.233,4.364C5.226,4.399,5.207,4.422,5.171,4.43C5.177,4.395,5.196,4.372,5.233,4.364"/>
		<path fill="#01527D" d="M3.862,6.28C3.845,6.303,3.834,6.323,3.819,6.346C3.815,6.313,3.828,6.29,3.862,6.28"/>
		<path fill="#01527D" d="M3.801,6.389C3.799,6.422,3.785,6.451,3.756,6.467C3.753,6.43,3.765,6.404,3.801,6.389"/>
		<path fill="#014C73" d="M13.729,22.238c0.161,0.313,0.213,0.67,0.407,1.008H12.83c-0.047-0.104-0.119-0.157-0.24-0.186
			c-0.235-0.058-0.473-0.131-0.632-0.347c-0.065-0.084-0.065-0.134-0.016-0.229c0.125-0.245,0.332-0.44,0.408-0.714
			C12.817,21.913,13.278,22.059,13.729,22.238"/>
		<path fill="#109CE5" d="M12.948,1.749c0.065-0.356,0.025-0.725,0.119-1.076c0.197-0.003,0.351,0.13,0.53,0.179
			c0.415,0.107,0.681,0.373,0.816,0.777c0.049,0.146,0.13,0.271,0.299,0.301c0.063,0.013,0.121,0.047,0.13,0.107
			c0.036,0.271,0.141,0.53,0.014,0.814c-0.104,0.228,0.019,0.459,0.103,0.678c0.026,0.07,0.113,0.064,0.184,0.072
			c0.331,0.039,0.478,0.168,0.557,0.48c0.018,0.064,0.032,0.135,0.055,0.199c0.063,0.205,0.092,0.404-0.082,0.579
			c-0.043,0.045-0.033,0.112-0.034,0.171c-0.229-0.102-0.439,0.013-0.656,0.063c-0.199-0.137-0.344-0.328-0.519-0.49
			c-0.014-0.012-0.035-0.028-0.037-0.045c-0.058-0.375-0.354-0.623-0.514-0.941c-0.103-0.201-0.065-0.425-0.12-0.637
			c-0.055-0.206-0.108-0.374-0.355-0.406c-0.162-0.021-0.254-0.139-0.304-0.293C13.076,2.102,13.01,1.926,12.948,1.749"/>
		<path fill="#014E77" d="M13.411,21.708c-0.545-0.146-1.079-0.327-1.603-0.542c0.052-0.01,0.1-0.02,0.079-0.092
			c-0.074-0.266-0.146-0.532-0.224-0.796c-0.019-0.056-0.054-0.13-0.097-0.144c-0.188-0.063-0.178-0.205-0.176-0.356
			c0.004-0.198,0.018-0.394,0.053-0.589c0.05-0.252,0-0.293-0.256-0.295c-0.119-0.002-0.237,0.002-0.356-0.002
			c-0.203-0.006-0.238-0.055-0.198-0.256c0.048-0.25,0.102-0.502,0.104-0.76c0.188,0.112,0.401,0.147,0.599,0.238
			c0.135,0.045,0.166,0.168,0.19,0.281c0.049,0.22,0.188,0.313,0.396,0.34c0.146,0.019,0.298,0.025,0.436,0.097
			c0.026,0.017,0.05,0.032,0.068,0.058c0.01,0.026,0.014,0.057,0.012,0.086c-0.047,0.213-0.119,0.418-0.185,0.627
			c-0.032,0.102-0.077,0.233,0.063,0.281c0.346,0.107,0.447,0.41,0.558,0.689c0.118,0.302,0.274,0.563,0.505,0.787
			c0.07,0.068,0.133,0.15,0.161,0.248C13.581,21.744,13.503,21.74,13.411,21.708"/>
		<path fill="#0490D9" d="M13.248,5.572l-0.06-0.061L13.248,5.572z"/>
		<path fill="#015886" d="M6.079,7.066C6.506,7.135,6.832,7.379,7.132,7.67c0.063,0.063,0.117,0.137,0.201,0.174
			c0.036,0.024,0.053,0.063,0.064,0.104C7.414,8.002,7.428,8.055,7.45,8.108c0.102,0.21-0.012,0.394-0.065,0.587
			c-0.035,0.096-0.026,0.208-0.11,0.283C7.212,8.811,7.125,8.723,6.915,8.727C6.69,8.73,6.479,8.65,6.376,8.391
			C6.291,8.182,6.151,7.995,6.031,7.803c-0.13-0.199-0.173-0.396-0.019-0.604C6.041,7.159,6.055,7.11,6.079,7.066"/>
		<path fill="#015E8F" d="M7.272,8.979c0.017-0.102-0.039-0.217,0.062-0.301c0.37-0.108,0.752-0.084,1.087,0.063
			c0.292,0.129,0.21,0.45,0.167,0.713c-0.43,0.022-0.851-0.021-1.254-0.179C7.233,9.192,7.289,9.077,7.272,8.979"/>
		<path fill="#028ED7" d="M16.832,13.039c0.024-0.193,0.069-0.384,0.063-0.582c-0.006-0.195,0.114-0.349,0.234-0.493
			c0.219,0.095,0.429,0.195,0.434,0.487c0,0.075,0.03,0.152,0.055,0.229c0.031,0.101,0.076,0.192,0.201,0.18
			c0.152-0.018,0.207,0.068,0.246,0.195c0.047,0.149,0.103,0.299,0.164,0.442c0.043,0.099,0.066,0.229,0.162,0.276
			c0.267,0.13,0.251,0.355,0.217,0.578c-0.021,0.111-0.002,0.178,0.063,0.267c0.102,0.142,0.18,0.302,0.268,0.454
			c0.11,0.191,0.252,0.265,0.461,0.236c0.125,0.065,0.205,0.187,0.308,0.275c0.044,0.04,0.083,0.105,0.133,0.115
			c0.42,0.084,0.349,0.438,0.394,0.718c0.022,0.146,0.004,0.295,0.004,0.443c-0.03,0.231-0.118,0.421-0.373,0.479
			c-0.301-0.283-0.607-0.561-1.049-0.596c-0.053-0.005-0.095-0.029-0.132-0.064c-0.124-0.226-0.135-0.47-0.116-0.718
			c0.013-0.192-0.02-0.35-0.234-0.416c-0.085-0.026-0.146-0.097-0.188-0.181c0.019-0.371-0.017-0.708-0.428-0.885
			c-0.092-0.041-0.047-0.198-0.02-0.305c0.104-0.4-0.179-0.83-0.594-0.896c-0.027-0.004-0.058-0.012-0.086-0.021
			C16.936,13.205,16.819,13.178,16.832,13.039"/>
		<path fill="#0692DB" d="M19.879,17.342c0.126-0.154,0.274-0.294,0.358-0.479c0.089,0.181,0.277,0.146,0.421,0.17
			c0.239,0.04,0.348,0.148,0.428,0.38c0.084,0.247,0.244,0.474,0.386,0.697c0.068,0.106,0.199,0.073,0.305,0.058
			c0.115-0.018,0.254-0.113,0.334-0.005c0.082,0.111-0.029,0.242-0.074,0.358c-0.118,0.305-0.242,0.605-0.363,0.91
			c-0.131-0.103-0.264-0.205-0.396-0.308c-0.166-0.129-0.172-0.323-0.198-0.505c-0.041-0.273-0.345-0.589-0.612-0.624
			c-0.097-0.013-0.191-0.039-0.289-0.058c-0.287-0.053-0.287-0.053-0.297-0.358C19.811,17.5,19.811,17.421,19.879,17.342"/>
		<path fill="#0995DE" d="M19.52,13.876c0.021,0.021,0.038,0.039,0.06,0.06C19.558,13.915,19.541,13.896,19.52,13.876"/>
		<path fill="#0995DE" d="M19.461,13.757c0.021,0.021,0.04,0.039,0.06,0.062C19.5,13.796,19.481,13.776,19.461,13.757"/>
		<path fill="#0995DE" d="M19.401,13.639c0.02,0.021,0.039,0.037,0.06,0.061C19.44,13.676,19.421,13.657,19.401,13.639"/>
		<path fill="#0995DE" d="M19.341,13.52c0.02,0.019,0.04,0.037,0.061,0.058C19.381,13.557,19.36,13.537,19.341,13.52"/>
		<path fill="#0995DE" d="M19.282,13.398c0.02,0.021,0.039,0.039,0.06,0.06C19.321,13.438,19.302,13.418,19.282,13.398"/>
		<path fill="#0995DE" d="M19.221,13.278c0.021,0.021,0.04,0.04,0.062,0.06C19.26,13.318,19.242,13.299,19.221,13.278"/>
		<path fill="#015B8B" d="M10.557,13.398h0.539c0.339,0.231,0.645,0.5,0.835,0.871c-0.052,0.269,0.026,0.533,0.013,0.799
			c-0.004,0.099,0.048,0.176,0.123,0.227c0.347,0.231,0.367,0.583,0.357,0.948c-0.038,0.204-0.109,0.388-0.285,0.517
			c-0.027,0.012-0.059,0.021-0.09,0.019c-0.536-0.072-0.821-0.474-1.12-0.857c-0.071-0.094-0.003-0.218-0.071-0.31
			c-0.08-0.12-0.158-0.239-0.239-0.358c-0.003-0.208,0.094-0.405,0.062-0.618c-0.01-0.066,0.014-0.146-0.031-0.203
			C10.379,14.104,10.392,13.757,10.557,13.398"/>
		<path fill="#015480" d="M10.858,15.609c0.141,0.354,0.403,0.617,0.67,0.879c0.071,0.07,0.164,0.104,0.258,0.14
			c0.091,0.032,0.195,0.036,0.267,0.116c0.065,0.211-0.081,0.354-0.17,0.516c-0.147,0.267-0.112,0.344,0.183,0.326
			c0.234-0.015,0.354,0.096,0.405,0.303c0.05,0.203,0.099,0.405,0.142,0.608c0.041,0.187,0.007,0.337-0.199,0.397
			c-0.204-0.036-0.406-0.102-0.61-0.104c-0.226-0.004-0.291-0.151-0.331-0.313c-0.031-0.127-0.079-0.241-0.135-0.357
			c0.069-0.119,0.146-0.234,0.206-0.361c0.072-0.154,0.033-0.234-0.128-0.298c-0.203-0.079-0.413-0.146-0.629-0.171
			c-0.139-0.018-0.214-0.089-0.213-0.202c0.002-0.221-0.077-0.429-0.077-0.647c-0.001-0.187,0.041-0.327,0.187-0.443
			C10.803,15.896,10.888,15.777,10.858,15.609"/>
		<path fill="#017DBE" d="M18.385,17.939c-0.123,0.182-0.299,0.313-0.445,0.474c-0.064,0.072-0.153,0.129-0.151,0.243
			c-0.294-0.035-0.489-0.238-0.695-0.421c-0.043-0.082-0.069-0.171-0.077-0.267c-0.001-0.101,0.021-0.195,0.055-0.289
			c0.111-0.309,0.111-0.574-0.22-0.76c-0.106-0.062-0.151-0.181-0.151-0.307c0-0.235-0.032-0.473,0.003-0.706
			c0.043-0.034,0.087-0.037,0.131-0.002c0.019,0.021,0.041,0.039,0.06,0.06c0.349,0.031,0.625,0.16,0.765,0.508
			c0.081,0.205,0.225,0.301,0.464,0.276c0.205-0.021,0.207,0.005,0.158,0.224c-0.022,0.105-0.032,0.218-0.074,0.314
			c-0.096,0.229-0.059,0.423,0.124,0.591C18.346,17.896,18.362,17.92,18.385,17.939"/>
		<path fill="#0180C4" d="M16.832,15.906c-0.04,0-0.08,0-0.12,0c-0.179,0.084-0.339,0.007-0.398-0.141
			c-0.146-0.373-0.462-0.612-0.682-0.929c-0.04-0.057-0.084-0.11-0.089-0.184c0.272-0.306,0.159-0.604,0.001-0.916
			c-0.087-0.173-0.184-0.378,0.086-0.505c0.326,0.027,0.571,0.191,0.72,0.479c0.081,0.153,0.184,0.274,0.331,0.36
			c0.286,0.321,0.501,0.684,0.571,1.116c-0.062,0.211-0.211,0.365-0.332,0.537C16.878,15.785,16.832,15.834,16.832,15.906"/>
		<path fill="#018AD2" d="M17.251,15.191c-0.102-0.201-0.205-0.403-0.301-0.606c-0.081-0.169-0.176-0.327-0.297-0.469
			c-0.052-0.068-0.077-0.147-0.037-0.22c0.127-0.229,0.197-0.49,0.396-0.678c0.06,0,0.118,0.004,0.179,0
			c0.15-0.018,0.269,0.024,0.336,0.176c0.031,0.069,0.078,0.14,0.132,0.193c0.188,0.195,0.245,0.398,0.104,0.65
			c-0.075,0.134-0.024,0.248,0.121,0.31c0.021,0.009,0.036,0.021,0.054,0.027c0.355,0.182,0.358,0.185,0.26,0.563
			c-0.021,0.074-0.051,0.147-0.047,0.229C17.858,15.258,17.569,15.146,17.251,15.191"/>
		<path fill="#0188CF" d="M19.879,17.342v0.238c-0.07,0.042-0.058,0.113-0.06,0.18c-0.244-0.043-0.487-0.08-0.729-0.135
			c-0.157-0.035-0.289-0.09-0.31-0.3c-0.021-0.214-0.079-0.426-0.1-0.642c0.291-0.045,0.541,0.039,0.766,0.229
			c0.083,0.066,0.18,0.124,0.275,0.169C19.841,17.137,19.889,17.219,19.879,17.342"/>
		<path fill="#017FC2" d="M18.385,17.939c-0.021-0.021-0.041-0.041-0.06-0.062C18.344,17.898,18.365,17.919,18.385,17.939"/>
		<path fill="#0180C4" d="M16.89,15.967c-0.02-0.021-0.04-0.039-0.06-0.061C16.85,15.928,16.872,15.946,16.89,15.967"/>
		<path fill="#0176B3" d="M11.635,8.141c0,0.142,0,0.278,0,0.418c-0.215-0.11-0.446-0.047-0.671-0.058
			c-0.28-0.013-0.281-0.007-0.284-0.278c-0.002-0.148,0.011-0.301-0.006-0.445c-0.033-0.301-0.159-0.374-0.457-0.309
			c-0.163,0.036-0.323,0.099-0.494,0.074c-0.157,0.016-0.262-0.07-0.356-0.181c0.017-0.106-0.055-0.195-0.063-0.298
			c-0.107-0.232,0.059-0.4,0.154-0.569C9.561,6.307,9.538,6.19,9.37,6.071C9.249,5.985,9.121,5.909,9.01,5.811
			C8.934,5.745,8.808,5.709,8.827,5.571c0.117-0.197,0.347-0.308,0.418-0.539C9.307,5.061,9.37,5.1,9.442,5.094
			c0.143-0.02,0.234,0.059,0.341,0.144c0.231,0.19,0.3,0.405,0.176,0.681c-0.045,0.1-0.052,0.171,0.056,0.253
			c0.301,0.23,0.585,0.479,0.688,0.871c0.022,0.095,0.09,0.153,0.197,0.144c0.094-0.008,0.178,0.018,0.259,0.062
			c0.077,0.138,0.188,0.257,0.293,0.366C11.604,7.77,11.657,7.936,11.635,8.141"/>
		<path fill="#0181C4" d="M9.843,3.719c0.125,0.082,0.268,0.063,0.405,0.063c0.151-0.004,0.248,0.041,0.253,0.214
			c0.01,0.304,0.16,0.479,0.469,0.535c0.171,0.03,0.344,0.091,0.485,0.207c0.016,0.015,0.021,0.026,0.016,0.04
			c-0.005,0.013-0.011,0.02-0.016,0.02c-0.045,0.299-0.267,0.533-0.298,0.838c-0.156-0.1-0.326-0.135-0.513-0.121
			c-0.146,0.01-0.296,0.002-0.463,0.002c0.036-0.221,0.158-0.377,0.237-0.556c0.104-0.229,0.077-0.28-0.182-0.278
			C9.915,4.686,9.922,4.702,9.804,4.363c-0.016-0.047-0.021-0.1-0.047-0.143C9.645,4.027,9.69,3.866,9.843,3.719"/>
		<path fill="#0180C3" d="M9.006,2.107C9.108,2.096,9.194,2.148,9.288,2.17C9.375,2.192,9.427,2.254,9.42,2.342
			C9.399,2.585,9.511,2.818,9.483,3.063c-0.244-0.015-0.496,0.05-0.729-0.086C8.744,2.658,8.956,2.405,9.006,2.107"/>
		<path fill="#008CD5" d="M11.455,4.795c0-0.02,0-0.039,0-0.06c0-0.156-0.011-0.314,0.003-0.47c0.017-0.193-0.071-0.317-0.221-0.416
			c-0.041-0.025-0.082-0.054-0.123-0.08c-0.313-0.213-0.318-0.235-0.139-0.588h0.206c0.407,0,0.562,0.088,0.669,0.468
			c0.042,0.146,0.119,0.208,0.235,0.269c0.229,0.12,0.229,0.139,0.149,0.395c-0.041,0.143-0.084,0.283-0.127,0.425
			C11.89,4.738,11.669,4.714,11.455,4.795"/>
		<path fill="#016295" d="M15.338,19.852c-0.112-0.139-0.279-0.174-0.433-0.232c-0.133-0.05-0.235-0.111-0.318-0.237
			c-0.176-0.261-0.439-0.407-0.742-0.485c-0.174-0.122-0.309-0.295-0.501-0.396c-0.114-0.063-0.132-0.185-0.123-0.31
			c0.021-0.229,0.011-0.45-0.028-0.676c0.029-0.195,0.076-0.388,0.25-0.515c0.258-0.051,0.518-0.073,0.778-0.071
			c0.148,0.062,0.242,0.162,0.263,0.324c0.064,0.485,0.248,0.869,0.805,0.938c0.058,0.006,0.104,0.046,0.145,0.093
			c0.049,0.067,0.079,0.144,0.094,0.223c-0.057,0.341-0.119,0.677-0.065,1.024C15.473,19.639,15.433,19.764,15.338,19.852"/>
		<path fill="#015786" d="M13.248,17.521c0.108,0.215,0.069,0.445,0.048,0.666c-0.016,0.158,0.02,0.25,0.157,0.298
			c0.202,0.071,0.319,0.217,0.392,0.409c-0.013,0.168-0.161,0.234-0.255,0.343c-0.128,0.146-0.274,0.278-0.282,0.493
			c-0.391-0.116-0.626-0.42-0.861-0.725c-0.01-0.037,0-0.08-0.033-0.111l0,0c0.174-0.229,0.176-0.229,0.103-0.502
			c-0.041-0.15-0.083-0.304-0.105-0.459c-0.042-0.258-0.122-0.308-0.382-0.254c-0.107,0.021-0.228,0.055-0.295-0.061
			c-0.069-0.107-0.045-0.225,0.039-0.329c0.129-0.164,0.217-0.351,0.283-0.548h0.062c0.19,0.021,0.23,0.2,0.298,0.329
			c0.104,0.206,0.234,0.329,0.479,0.321C13.014,17.395,13.147,17.428,13.248,17.521"/>
		<path fill="#01527D" d="M12.47,18.954c0.211,0.245,0.414,0.498,0.708,0.658c0.051,0.026,0.086,0.079,0.128,0.116
			c0.099,0.24,0.276,0.447,0.3,0.719c0.104,0.372,0.215,0.745,0.319,1.117c0.032,0.115,0.107,0.302-0.155,0.263
			c-0.13-0.01-0.25-0.051-0.358-0.119c0.057-0.013,0.132-0.015,0.063-0.104c-0.125-0.166-0.251-0.326-0.404-0.469
			c-0.094-0.084-0.137-0.184-0.172-0.314c-0.067-0.253-0.216-0.485-0.346-0.721c-0.048-0.086-0.154-0.116-0.255-0.131
			c-0.151-0.02-0.209-0.09-0.156-0.242c0.087-0.258,0.134-0.529,0.271-0.771C12.43,18.934,12.451,18.934,12.47,18.954"/>
		<path fill="#015581" d="M13.77,21.827c0.146-0.019,0.133-0.103,0.096-0.211c-0.094-0.287-0.172-0.579-0.271-0.864
			c-0.036-0.109-0.058-0.205,0.011-0.305c0.143-0.018,0.273,0.029,0.409,0.055c0.109,0.021,0.179,0.079,0.236,0.163
			c0.178,0.261,0.313,0.558,0.606,0.724c0.057,0.029,0.051,0.103,0.063,0.158c0.034,0.166,0.088,0.326,0.111,0.492
			c0.016,0.122,0.092,0.193,0.166,0.271c0.035,0.039,0.064,0.078,0.001,0.117c-0.072-0.027-0.149-0.053-0.216-0.091
			C14.604,22.109,14.177,21.993,13.77,21.827"/>
		<path fill="#01669B" d="M15.338,19.852c0.022-0.24,0.078-0.479,0.007-0.723c-0.036-0.117-0.011-0.255,0.061-0.367
			c0.057-0.091,0.057-0.188,0.054-0.287c0.567,0.189,1.028,0.84,1.016,1.437c-0.251,0.086-0.503,0.171-0.753,0.262
			c-0.066,0.022-0.132,0.038-0.203,0.037C15.481,20.078,15.349,19.994,15.338,19.852"/>
		<path fill="#015F91" d="M16.055,21.702c0.188,0,0.377,0,0.567,0.001c0.119,0,0.16,0.054,0.123,0.171
			c-0.077,0.235-0.167,0.47-0.152,0.726c-0.313-0.127-0.653-0.14-1.009-0.207C15.726,22.137,15.891,21.919,16.055,21.702"/>
		<path fill="#016397" d="M8.289,6.528c-0.085,0.2-0.257,0.347-0.359,0.537c-0.02,0.023-0.04,0.023-0.06,0
			C7.856,7.051,7.846,7.028,7.83,7.023C7.53,6.932,7.302,6.768,7.2,6.454C7.162,6.342,7.046,6.352,6.946,6.348
			C6.829,6.341,6.692,6.395,6.599,6.311c-0.098-0.088,0.026-0.198,0.02-0.307C6.606,5.846,6.608,5.688,6.618,5.528
			C6.626,5.382,6.553,5.307,6.42,5.281c-0.048-0.01-0.099-0.006-0.147-0.016c-0.235-0.054-0.231-0.104-0.32-0.322
			c-0.147-0.359-0.057-0.618,0.232-0.84C6.192,4.1,6.194,4.085,6.2,4.079c0.119,0.085,0.27,0.047,0.398,0.103
			C6.782,4.26,6.841,4.311,6.782,4.49C6.706,4.711,6.778,4.945,6.69,5.164c-0.041,0.104,0.022,0.17,0.141,0.17
			c0.159,0,0.316,0.01,0.477-0.002C7.434,5.325,7.51,5.377,7.565,5.488c0.082,0.17,0.179,0.334,0.26,0.502
			C7.916,6.18,8.028,6.325,8.219,6.409C8.267,6.43,8.283,6.477,8.289,6.528"/>
		<path fill="#016295" d="M7.871,7.066h0.06C8.035,7.229,8.061,7.418,8.11,7.6c0.061,0.228,0.063,0.229,0.299,0.244
			c0.029,0,0.06-0.002,0.09,0c0.182,0.019,0.224,0.073,0.172,0.25C8.632,8.229,8.588,8.359,8.577,8.498
			C8.563,8.669,8.608,8.778,8.768,8.79c0.297,0.021,0.411,0.198,0.526,0.44C9.413,9.483,9.5,9.717,9.422,9.992
			C9.356,9.881,9.285,9.783,9.127,9.811c-0.29,0.053-0.438-0.118-0.541-0.356C8.511,9.338,8.528,9.207,8.524,9.08
			C8.52,8.844,8.444,8.739,8.213,8.744C7.915,8.753,7.625,8.686,7.331,8.678c0.002-0.039-0.008-0.086,0.011-0.115
			c0.103-0.153,0.083-0.316,0.049-0.48C7.354,8.051,7.37,7.993,7.331,7.963c0-0.04,0-0.081,0-0.119
			C7.352,7.781,7.382,7.715,7.399,7.65c0.053-0.178,0.133-0.327,0.308-0.413C7.782,7.199,7.837,7.141,7.871,7.066"/>
		<path fill="#016397" d="M6.138,3.959C6.186,3.985,6.196,4.028,6.2,4.079C6.149,4.053,6.139,4.008,6.138,3.959"/>
		<path fill="#016397" d="M6.02,3.659C6.039,3.68,6.057,3.7,6.079,3.721C6.056,3.7,6.039,3.682,6.02,3.659"/>
		<path fill="#016397" d="M6.079,3.84c0.02,0.021,0.039,0.039,0.06,0.062C6.118,3.879,6.097,3.859,6.079,3.84"/>
		<path fill="#017EC0" d="M15.636,13.278c-0.135,0.069-0.14,0.176-0.088,0.298c0.068,0.163,0.138,0.324,0.209,0.482
			c0.115,0.256,0.116,0.256-0.073,0.455c-0.039,0.045-0.072,0.092-0.107,0.14c-0.1,0.039-0.146-0.045-0.207-0.091
			c-0.018-0.018-0.032-0.031-0.049-0.051c-0.015-0.015-0.027-0.031-0.04-0.049c-0.009-0.008-0.017-0.017-0.021-0.022
			c-0.015-0.013-0.026-0.029-0.042-0.044c-0.006-0.008-0.013-0.018-0.02-0.022c-0.016-0.016-0.024-0.032-0.034-0.05
			c-0.002-0.01-0.003-0.021-0.005-0.03c-0.184-0.237-0.305-0.491-0.389-0.789c-0.073-0.266-0.154-0.593-0.522-0.661
			c-0.062-0.011-0.099-0.068-0.081-0.14c0.075-0.324,0.02-0.653,0.036-0.979c0.073,0.037,0.047,0.156,0.142,0.176
			c0.317,0.062,0.605,0.231,0.936,0.242c0.06,0.252,0.31,0.252,0.479,0.358C15.86,12.783,15.803,13.039,15.636,13.278"/>
		<path fill="#0186CB" d="M15.636,13.278c0.04-0.259,0.08-0.519,0.12-0.776c0.134,0.016,0.237,0.084,0.328,0.18
			c0.204,0.211,0.457,0.324,0.747,0.357c0.045,0.074,0.153,0.086,0.179,0.18c-0.05,0.217-0.166,0.404-0.277,0.59
			c-0.06,0.102-0.086,0.195-0.082,0.309c-0.138-0.055-0.263-0.113-0.315-0.271C16.222,13.51,15.946,13.371,15.636,13.278"/>
		<path fill="#0172AD" d="M13.905,15.25c0.222-0.221,0.367-0.488,0.478-0.777c0.301,0.123,0.544-0.002,0.776-0.179l0,0
			c0.018,0.022,0.04,0.04,0.06,0.06l0,0c0.021,0.021,0.04,0.041,0.06,0.062l0,0c0.021,0.021,0.041,0.04,0.062,0.062
			c0.005,0.01,0.019,0.021,0.017,0.024c-0.166,0.338-0.203,0.748-0.548,0.989c-0.229,0.037-0.461,0.091-0.694,0.078
			C13.921,15.555,13.774,15.484,13.905,15.25"/>
		<path fill="#016BA4" d="M13.905,15.25c0.025,0.235,0.025,0.238,0.228,0.237c0.244,0,0.479-0.097,0.728-0.06
			c0.285,0.16,0.386,0.438,0.447,0.734c-0.082,0.329-0.149,0.641,0.051,0.975c0.147,0.238,0.17,0.547,0.197,0.834
			c0.014,0.14-0.029,0.254-0.158,0.323c-0.063-0.026-0.123-0.057-0.193-0.06c-0.329-0.018-0.546-0.184-0.653-0.493
			c-0.058-0.17-0.207-0.31-0.132-0.521c0.031-0.093-0.122-0.146-0.155-0.24c-0.067-0.066-0.081-0.155-0.073-0.244
			c0.025-0.374-0.215-0.639-0.383-0.932c-0.057-0.102-0.176-0.117-0.275-0.153c-0.445-0.208-0.674-0.569-0.717-1.05
			c-0.012-0.106-0.012-0.223,0.075-0.31c0.156,0.066,0.321,0.047,0.479,0.025c0.33-0.046,0.342-0.048,0.408,0.272
			C13.821,14.813,13.827,15.037,13.905,15.25"/>
		<path fill="#016295" d="M12.888,14.294c0,0.04,0.003,0.079,0,0.119c-0.034,0.498,0.169,0.874,0.593,1.136
			c0.024,0.014,0.045,0.04,0.064,0.062c0.095,0.118,0.021,0.222-0.043,0.313c-0.104,0.151-0.178,0.326-0.331,0.44
			c-0.169,0.06-0.351,0.063-0.522,0.108c-0.188,0.052-0.271-0.032-0.298-0.207c0-0.062,0.003-0.119,0-0.179
			c-0.017-0.272-0.036-0.539-0.311-0.71c-0.127-0.08-0.255-0.199-0.17-0.394c0.018-0.042,0.016-0.104-0.001-0.146
			c-0.083-0.202-0.036-0.401,0.004-0.604c0.229-0.183,0.482-0.269,0.775-0.181C12.751,14.113,12.776,14.247,12.888,14.294"/>
		<path fill="#01659A" d="M12.649,14.057c-0.266,0.029-0.517,0.123-0.775,0.18c-0.154-0.219-0.367-0.38-0.544-0.574
			c-0.079-0.087-0.179-0.155-0.232-0.263c-0.001-0.114,0.084-0.177,0.155-0.242c0.127-0.124,0.25-0.25,0.323-0.414
			c-0.003,0.092,0.007,0.177,0.1,0.229c0.011,0.004,0.021,0.008,0.027,0.014c0.218,0.207,0.472,0.291,0.77,0.236
			c0.075,0.211,0.15,0.424,0.227,0.638C12.722,13.934,12.676,13.992,12.649,14.057"/>
		<path fill="#016FA9" d="M8.289,5.274C8.118,5.292,7.963,5.205,7.793,5.205c-0.106,0-0.14-0.104-0.151-0.191
			c-0.015-0.106-0.008-0.218-0.01-0.326C7.627,4.42,7.606,4.389,7.36,4.301C7.304,4.28,7.249,4.264,7.192,4.244
			C6.975,4.167,6.94,4.117,6.987,3.899C7.04,3.66,7.072,3.415,7.153,3.184c0.011,0.002,0.021,0.01,0.028,0.01
			c0.371,0.013,0.371,0.013,0.513,0.39C7.71,3.62,7.72,3.657,7.74,3.692c0.125,0.23,0.196,0.46-0.084,0.639
			C7.791,4.46,7.952,4.486,8.094,4.546C8.176,4.58,8.259,4.612,8.341,4.645c0.11,0.041,0.11,0.104,0.079,0.209
			C8.38,4.995,8.267,5.114,8.289,5.274"/>
		<path fill="#016FA9" d="M8.827,5.572C9.045,5.788,9.325,5.92,9.55,6.13c0.102,0.095,0.119,0.146,0.047,0.267
			C9.473,6.605,9.321,6.809,9.304,7.067c-0.12-0.15-0.3-0.207-0.461-0.29C8.68,6.691,8.514,6.612,8.35,6.53
			C8.34,6.256,8.479,6.028,8.588,5.792C8.62,5.721,8.651,5.654,8.649,5.574C8.708,5.572,8.765,5.572,8.827,5.572"/>
		<path fill="#016FA9" d="M15.397,18.298c0.127-0.198,0.095-0.416,0.039-0.618c-0.07-0.259-0.067-0.556-0.296-0.758
			c-0.021-0.018-0.041-0.06-0.032-0.078c0.086-0.227-0.027-0.5,0.17-0.697c0.442-0.193,0.729-0.008,0.717,0.467
			c-0.02,0.582,0.221,0.956,0.756,1.182c0.12,0.051,0.236,0.1,0.32,0.205c0.041,0.074,0.066,0.151,0.061,0.238
			c0.021,0.052,0.012,0.105-0.025,0.137c-0.312,0.249-0.172,0.557-0.104,0.848c0.039,0.164,0.162,0.238,0.337,0.217
			c0.167-0.021,0.335-0.038,0.501,0.017c0.256,0.229,0.405,0.542,0.604,0.815c-0.075,0.173-0.171,0.336-0.284,0.484
			c-0.081,0.106-0.078,0.188,0.004,0.288c0.1,0.121,0.181,0.259,0.275,0.386c0.197,0.262,0.198,0.262,0.005,0.515
			c-0.275,0.012-0.482-0.084-0.572-0.364c-0.012-0.037-0.04-0.068-0.056-0.105c-0.084-0.189-0.211-0.287-0.435-0.25
			c-0.134,0.021-0.28,0.023-0.373-0.113c-0.005-0.104-0.063-0.188-0.107-0.272c-0.087-0.159-0.142-0.317-0.138-0.507
			c0.006-0.197-0.064-0.369-0.293-0.416c-0.088-0.218-0.188-0.433-0.264-0.652c-0.084-0.242-0.225-0.425-0.453-0.547
			c-0.109-0.061-0.199-0.154-0.298-0.234C15.431,18.417,15.395,18.364,15.397,18.298"/>
		<path fill="#0174B1" d="M17.846,19.491c-0.167,0.008-0.336-0.017-0.504,0.019c-0.217,0.043-0.409-0.092-0.426-0.308
			c-0.009-0.099-0.01-0.201-0.053-0.288c-0.094-0.188-0.045-0.337,0.094-0.475c0.063-0.064,0.135-0.117,0.173-0.203
			c0.235,0.113,0.435,0.283,0.656,0.419c0.04,0.079,0.081,0.157,0.12,0.239C18.028,19.108,17.992,19.307,17.846,19.491"/>
		<path fill="#017BBB" d="M17.846,19.491c-0.009-0.202,0.098-0.392,0.063-0.597c0.046,0.013,0.104,0.053,0.137,0.037
			c0.23-0.11,0.359,0.041,0.468,0.189c0.095,0.131,0.199,0.245,0.312,0.357c0.203,0.207,0.22,0.346,0.063,0.604
			c-0.036,0.061-0.084,0.11-0.084,0.186c-0.119,0-0.236,0-0.357,0c-0.199-0.119-0.313-0.313-0.432-0.504
			C17.96,19.673,17.903,19.583,17.846,19.491"/>
		<path fill="#015480" d="M12.47,18.954h-0.06c0-0.021,0-0.04,0-0.06C12.43,18.914,12.451,18.934,12.47,18.954"/>
		<path fill="#015E90" d="M7.334,7.962c0.048,0.025,0.058,0.07,0.06,0.119C7.344,8.057,7.335,8.01,7.334,7.962"/>
		<path fill="#015E8F" d="M12.35,16.266c0.063,0.121,0.139,0.166,0.291,0.129c0.178-0.045,0.358-0.099,0.547-0.068
			c0.205,0.197,0.287,0.436,0.238,0.717l-0.18,0.479c-0.207,0.005-0.401-0.086-0.612-0.064c-0.104,0.014-0.147-0.079-0.188-0.161
			c-0.094-0.194-0.203-0.379-0.334-0.55C12.211,16.594,12.321,16.45,12.35,16.266"/>
		<path fill="#0177B5" d="M17.071,17.998c-0.271-0.068-0.511-0.213-0.771-0.305c-0.087-0.031-0.129-0.092-0.125-0.182
			c0.007-0.123-0.052-0.211-0.141-0.278c-0.179-0.136-0.183-0.314-0.146-0.509c0.009-0.039,0.031-0.073,0.036-0.112
			c0.035-0.293-0.115-0.464-0.411-0.466c-0.079-0.002-0.159,0-0.237,0c-0.12-0.25-0.245-0.498-0.418-0.719
			c0.074-0.166,0.205-0.311,0.207-0.515c0-0.083,0.072-0.158,0.141-0.22c0.063-0.063,0.134-0.121,0.132-0.225
			c0.08,0.062,0.16,0.119,0.239,0.183c0.173,0.211,0.329,0.438,0.531,0.62c0.076,0.065,0.146,0.145,0.162,0.24
			c0.047,0.248,0.2,0.365,0.44,0.393c0.104,0.186,0.062,0.389,0.056,0.584c-0.004,0.189,0.025,0.349,0.217,0.438
			c0.041,0.021,0.071,0.071,0.113,0.092c0.161,0.076,0.172,0.201,0.135,0.35C17.177,17.578,17.125,17.788,17.071,17.998"/>
		<path fill="#01659B" d="M13.427,17.042c-0.081-0.239-0.16-0.478-0.238-0.717c0.03-0.183,0.177-0.3,0.261-0.451
			c0.048-0.085,0.112-0.159,0.098-0.266c0.181-0.024,0.299,0.051,0.377,0.216c0.062,0.122,0.129,0.243,0.208,0.355
			c0.173,0.248,0.125,0.527,0.131,0.802C13.985,17.027,13.708,17.061,13.427,17.042"/>
		<path fill="#0177B5" d="M15.219,14.354c-0.02-0.021-0.04-0.038-0.06-0.061C15.178,14.315,15.199,14.334,15.219,14.354"/>
		<path fill="#0177B5" d="M15.338,14.473c-0.019-0.02-0.039-0.037-0.06-0.06C15.299,14.436,15.319,14.453,15.338,14.473"/>
		<path fill="#0177B5" d="M15.278,14.413c-0.021-0.021-0.041-0.04-0.062-0.06C15.239,14.373,15.259,14.395,15.278,14.413"/>
	</g>
</g>
</svg>
